<svg width="242" height="93" viewBox="0 0 242 93" fill="none" xmlns="http://www.w3.org/2000/svg">
<path d="M43.1719 43.931L37.2878 40.5339L45.2539 35.9346L24.5692 23.9923L16.6031 28.5916L10.7191 25.1944L26.9455 15.8261C29.3142 14.4585 31.9016 13.435 34.7079 12.7556C37.5141 12.0761 40.3581 11.7408 43.2398 11.7495C46.1214 11.7582 48.9503 12.1023 51.7264 12.7817C54.5024 13.4611 57.0597 14.4759 59.3983 15.8261L72.66 23.4828C73.0674 23.7179 73.3766 23.9836 73.5879 24.2798C73.7991 24.5759 73.9047 24.8808 73.9047 25.1944C73.9047 25.508 73.7991 25.8129 73.5879 26.109C73.3766 26.4052 73.0674 26.6709 72.66 26.906L43.1719 43.931ZM30.4533 20.5952L51.138 32.5375L63.8566 25.1944L53.5142 19.2232C53.3332 19.1187 52.9183 18.914 52.2695 18.6091C51.6509 18.3043 50.8513 17.9907 49.8706 17.6684C48.905 17.3548 47.781 17.0804 46.4986 16.8452C45.2162 16.61 43.8357 16.5099 42.3571 16.5447C40.8786 16.5796 39.3246 16.7973 37.6952 17.198C36.0959 17.5987 34.474 18.2738 32.8295 19.2232L30.4533 20.5952Z" fill="url(#paint0_linear_2111_51287)"/>
<path d="M77.8412 52.5883C77.8412 53.9292 77.6904 55.2265 77.3888 56.4803C77.1022 57.7079 76.7177 58.8703 76.2351 59.9673C75.7525 61.0644 75.187 62.0874 74.5385 63.0365C73.8901 63.9855 73.219 64.8431 72.5253 65.6093C71.8316 66.3755 71.1228 67.0546 70.3989 67.6467C69.6901 68.2301 69.019 68.7046 68.3857 69.0703L45.697 82.1696V75.3783L68.3857 62.279C69.5167 61.626 70.3914 60.7379 71.0097 59.6147C71.6431 58.4828 71.9597 57.2726 71.9597 55.984C71.9597 55.3571 71.8768 54.8303 71.7109 54.4037C71.545 53.9771 71.3037 53.6636 70.9871 53.4634C70.6854 53.2544 70.3084 53.1761 69.856 53.2283C69.4187 53.2718 68.9286 53.4503 68.3857 53.7638L54.8584 61.5737C53.9083 62.1223 52.8828 62.5228 51.782 62.7753C50.6811 63.0103 49.6556 62.9668 48.7055 62.6447C47.7705 62.3138 46.9863 61.626 46.353 60.5812C45.7347 59.5276 45.4255 57.9822 45.4255 55.9448C45.4255 53.9074 45.7347 52.0137 46.353 50.2636C46.9863 48.4875 47.7705 46.8941 48.7055 45.4836C49.6556 44.047 50.6811 42.8194 51.782 41.8007C52.8828 40.7646 53.9083 39.9722 54.8584 39.4237L74.8778 27.8655V34.6568L54.8584 46.215C53.7424 46.8593 52.8678 47.7561 52.2344 48.9054C51.6161 50.046 51.3069 51.2606 51.3069 52.5492C51.3069 53.8552 51.6161 54.7128 52.2344 55.122C52.8678 55.5051 53.7424 55.3745 54.8584 54.7302L68.3857 46.9202L68.4309 46.8941C69.0643 46.5459 69.7354 46.2629 70.4442 46.0452C71.1529 45.8101 71.8542 45.6839 72.5479 45.6665C73.2567 45.6404 73.9278 45.7405 74.5611 45.9669C75.1945 46.1758 75.7525 46.5502 76.2351 47.09C76.7327 47.6211 77.1248 48.3351 77.4114 49.2319C77.6979 50.1287 77.8412 51.2475 77.8412 52.5883Z" fill="url(#paint1_linear_2111_51287)"/>
<path d="M42.7819 82.4985L37.1512 79.2476V58.0548L27.2438 72.4604C27.0002 72.8327 26.6564 73.0229 26.2122 73.0312C25.7824 73.0477 25.3167 72.9113 24.8153 72.6217C24.3282 72.3405 23.8697 71.9434 23.4399 71.4306C23.0244 70.926 22.6948 70.347 22.4513 69.6935L12.5008 43.8229V65.0157L6.91314 61.7896V28.9582C6.91314 28.2137 7.09939 27.6595 7.47191 27.2956C7.85875 26.9399 8.36021 26.8406 8.97629 26.9978C9.27717 27.0888 9.57804 27.2376 9.87892 27.4444C10.1798 27.6347 10.4663 27.8746 10.7386 28.1641C11.0251 28.4454 11.283 28.768 11.5122 29.1319C11.7415 29.4793 11.9349 29.8557 12.0925 30.261L24.8153 63.1421L37.5381 44.952C37.8676 44.5136 38.3189 44.3275 38.892 44.3937C39.4794 44.4681 40.0883 44.7783 40.7188 45.3243C41.3205 45.8702 41.8148 46.5444 42.2016 47.3468C42.5885 48.1492 42.7819 48.9226 42.7819 49.6671V82.4985Z" fill="url(#paint2_linear_2111_51287)"/>
<path d="M111.175 29.125L104.69 12.4985H107.446L114.096 29.125H111.175ZM97.8974 29.125L104.524 12.4985H107.303L100.819 29.125H97.8974ZM101.009 25.0396V22.5931H110.961V25.0396H101.009ZM115.883 33.8754V17.2489H118.377L118.543 19.4341V33.8754H115.883ZM122.296 29.41C121.298 29.41 120.435 29.1567 119.707 28.65C118.995 28.1274 118.448 27.399 118.068 26.4648C117.688 25.5305 117.498 24.4379 117.498 23.1869C117.498 21.9202 117.688 20.8276 118.068 19.9091C118.448 18.9749 118.995 18.2544 119.707 17.7477C120.435 17.2251 121.298 16.9639 122.296 16.9639C123.373 16.9639 124.307 17.2251 125.099 17.7477C125.906 18.2544 126.532 18.9749 126.975 19.9091C127.434 20.8276 127.664 21.9202 127.664 23.1869C127.664 24.4379 127.434 25.5305 126.975 26.4648C126.532 27.399 125.906 28.1274 125.099 28.65C124.307 29.1567 123.373 29.41 122.296 29.41ZM121.631 26.9873C122.264 26.9873 122.827 26.829 123.317 26.5123C123.808 26.1797 124.196 25.7284 124.481 25.1584C124.782 24.5883 124.933 23.9312 124.933 23.1869C124.933 22.4427 124.79 21.7856 124.505 21.2155C124.236 20.6455 123.856 20.2021 123.365 19.8854C122.874 19.5687 122.304 19.4103 121.655 19.4103C121.053 19.4103 120.515 19.5687 120.04 19.8854C119.565 20.2021 119.192 20.6455 118.923 21.2155C118.67 21.7856 118.543 22.4427 118.543 23.1869C118.543 23.9312 118.67 24.5883 118.923 25.1584C119.192 25.7284 119.557 26.1797 120.016 26.5123C120.491 26.829 121.029 26.9873 121.631 26.9873ZM130.055 33.8754V17.2489H132.549L132.716 19.4341V33.8754H130.055ZM136.469 29.41C135.471 29.41 134.608 29.1567 133.88 28.65C133.167 28.1274 132.621 27.399 132.241 26.4648C131.861 25.5305 131.671 24.4379 131.671 23.1869C131.671 21.9202 131.861 20.8276 132.241 19.9091C132.621 18.9749 133.167 18.2544 133.88 17.7477C134.608 17.2251 135.471 16.9639 136.469 16.9639C137.545 16.9639 138.48 17.2251 139.271 17.7477C140.079 18.2544 140.704 18.9749 141.148 19.9091C141.607 20.8276 141.837 21.9202 141.837 23.1869C141.837 24.4379 141.607 25.5305 141.148 26.4648C140.704 27.399 140.079 28.1274 139.271 28.65C138.48 29.1567 137.545 29.41 136.469 29.41ZM135.803 26.9873C136.437 26.9873 136.999 26.829 137.49 26.5123C137.981 26.1797 138.369 25.7284 138.654 25.1584C138.955 24.5883 139.105 23.9312 139.105 23.1869C139.105 22.4427 138.963 21.7856 138.677 21.2155C138.408 20.6455 138.028 20.2021 137.537 19.8854C137.047 19.5687 136.476 19.4103 135.827 19.4103C135.226 19.4103 134.687 19.5687 134.212 19.8854C133.737 20.2021 133.365 20.6455 133.096 21.2155C132.842 21.7856 132.716 22.4427 132.716 23.1869C132.716 23.9312 132.842 24.5883 133.096 25.1584C133.365 25.7284 133.729 26.1797 134.188 26.5123C134.663 26.829 135.202 26.9873 135.803 26.9873ZM144.109 29.125V12.4985H146.769V29.125H144.109ZM149.889 29.125V17.2489H152.525V29.125H149.889ZM151.219 14.9924C150.791 14.9924 150.419 14.842 150.102 14.5411C149.802 14.2244 149.651 13.8523 149.651 13.4248C149.651 12.9972 149.802 12.633 150.102 12.3322C150.419 12.0313 150.791 11.8809 151.219 11.8809C151.646 11.8809 152.011 12.0313 152.311 12.3322C152.628 12.633 152.786 12.9972 152.786 13.4248C152.786 13.8523 152.628 14.2244 152.311 14.5411C152.011 14.842 151.646 14.9924 151.219 14.9924ZM161.219 29.41C159.999 29.41 158.922 29.1488 157.988 28.6262C157.054 28.0878 156.318 27.3515 155.779 26.4172C155.257 25.483 154.995 24.4062 154.995 23.1869C154.995 21.9677 155.257 20.8909 155.779 19.9566C156.318 19.0224 157.046 18.294 157.964 17.7714C158.899 17.2331 159.968 16.9639 161.171 16.9639C162.343 16.9639 163.404 17.2489 164.354 17.8189C165.304 18.3732 166.009 19.1728 166.468 20.2179L163.998 21.168C163.744 20.6455 163.356 20.2258 162.834 19.9091C162.311 19.5924 161.717 19.4341 161.052 19.4341C160.403 19.4341 159.825 19.6004 159.318 19.9329C158.812 20.2496 158.416 20.693 158.131 21.263C157.846 21.8172 157.703 22.4585 157.703 23.1869C157.703 23.9153 157.846 24.5646 158.131 25.1346C158.432 25.6888 158.835 26.1322 159.342 26.4648C159.865 26.7814 160.451 26.9398 161.1 26.9398C161.765 26.9398 162.359 26.7735 162.881 26.441C163.404 26.0926 163.792 25.6255 164.045 25.0396L166.515 25.9897C166.056 27.0665 165.351 27.9057 164.401 28.5074C163.467 29.1092 162.406 29.41 161.219 29.41ZM175.825 29.125L175.706 26.8923V23.0207C175.706 22.2131 175.619 21.5401 175.445 21.0017C175.286 20.4475 175.017 20.0279 174.637 19.7429C174.273 19.442 173.782 19.2916 173.165 19.2916C172.595 19.2916 172.096 19.4103 171.668 19.6479C171.241 19.8854 170.876 20.2575 170.576 20.7642L168.248 19.9091C168.501 19.3866 168.834 18.9036 169.245 18.4603C169.673 18.001 170.203 17.6368 170.837 17.3677C171.486 17.0985 172.262 16.9639 173.165 16.9639C174.321 16.9639 175.286 17.1935 176.062 17.6527C176.838 18.0961 177.408 18.7374 177.773 19.5766C178.153 20.4159 178.343 21.4293 178.343 22.6169L178.271 29.125H175.825ZM172.405 29.41C170.979 29.41 169.871 29.0933 169.079 28.4599C168.303 27.8265 167.915 26.9319 167.915 25.7759C167.915 24.5408 168.327 23.5987 169.15 22.9494C169.99 22.3002 171.154 21.9756 172.642 21.9756H175.825V24.0183H173.497C172.436 24.0183 171.692 24.1687 171.264 24.4696C170.837 24.7546 170.623 25.1663 170.623 25.7047C170.623 26.1639 170.805 26.5281 171.169 26.7973C171.549 27.0506 172.072 27.1773 172.737 27.1773C173.339 27.1773 173.861 27.0427 174.305 26.7735C174.748 26.5043 175.089 26.1481 175.326 25.7047C175.579 25.2613 175.706 24.7625 175.706 24.2083H176.49C176.49 25.8234 176.165 27.0981 175.516 28.0324C174.867 28.9508 173.83 29.41 172.405 29.41ZM185.763 29.41C184.512 29.41 183.554 29.1012 182.889 28.4837C182.24 27.8503 181.915 26.9477 181.915 25.7759V13.5435H184.552V25.2771C184.552 25.8314 184.678 26.251 184.932 26.536C185.201 26.821 185.589 26.9635 186.096 26.9635C186.254 26.9635 186.428 26.9319 186.618 26.8685C186.808 26.8052 187.022 26.6864 187.259 26.5123L188.233 28.5312C187.822 28.8162 187.41 29.03 186.998 29.1725C186.587 29.3309 186.175 29.41 185.763 29.41ZM179.944 19.5291V17.2489H187.758V19.5291H179.944ZM190.527 29.125V17.2489H193.164V29.125H190.527ZM191.857 14.9924C191.43 14.9924 191.058 14.842 190.741 14.5411C190.44 14.2244 190.29 13.8523 190.29 13.4248C190.29 12.9972 190.44 12.633 190.741 12.3322C191.058 12.0313 191.43 11.8809 191.857 11.8809C192.285 11.8809 192.649 12.0313 192.95 12.3322C193.267 12.633 193.425 12.9972 193.425 13.4248C193.425 13.8523 193.267 14.2244 192.95 14.5411C192.649 14.842 192.285 14.9924 191.857 14.9924ZM201.762 29.41C200.574 29.41 199.514 29.1488 198.579 28.6262C197.661 28.0878 196.94 27.3515 196.418 26.4172C195.895 25.483 195.634 24.4062 195.634 23.1869C195.634 21.9677 195.887 20.8909 196.394 19.9566C196.917 19.0224 197.637 18.294 198.556 17.7714C199.474 17.2331 200.527 16.9639 201.715 16.9639C202.902 16.9639 203.955 17.2331 204.874 17.7714C205.792 18.294 206.505 19.0224 207.011 19.9566C207.534 20.8909 207.795 21.9677 207.795 23.1869C207.795 24.4062 207.542 25.483 207.035 26.4172C206.528 27.3515 205.816 28.0878 204.897 28.6262C203.979 29.1488 202.934 29.41 201.762 29.41ZM201.762 26.9635C202.411 26.9635 202.989 26.8052 203.496 26.4885C204.003 26.156 204.399 25.7126 204.684 25.1584C204.969 24.5883 205.111 23.9312 205.111 23.1869C205.111 22.4427 204.961 21.7935 204.66 21.2393C204.375 20.6692 203.979 20.2258 203.472 19.9091C202.966 19.5766 202.38 19.4103 201.715 19.4103C201.05 19.4103 200.464 19.5687 199.957 19.8854C199.45 20.2021 199.054 20.6455 198.769 21.2155C198.484 21.7856 198.342 22.4427 198.342 23.1869C198.342 23.9312 198.484 24.5883 198.769 25.1584C199.07 25.7126 199.474 26.156 199.981 26.4885C200.503 26.8052 201.097 26.9635 201.762 26.9635ZM210.1 29.125V17.2489H212.594L212.761 19.4341V29.125H210.1ZM218.152 29.125V23.0444H220.813V29.125H218.152ZM218.152 23.0444C218.152 22.0943 218.042 21.3659 217.82 20.8592C217.614 20.3367 217.313 19.9725 216.917 19.7666C216.537 19.5608 216.086 19.4579 215.563 19.4579C214.677 19.442 213.988 19.735 213.497 20.3367C213.006 20.9384 212.761 21.8014 212.761 22.9257H211.763C211.763 21.6747 211.945 20.6059 212.309 19.7191C212.674 18.8165 213.196 18.1356 213.877 17.6764C214.558 17.2014 215.365 16.9639 216.3 16.9639C217.25 16.9639 218.057 17.1539 218.722 17.5339C219.403 17.914 219.918 18.5078 220.266 19.3153C220.631 20.1071 220.813 21.1443 220.813 22.4269V23.0444H218.152Z" fill="white"/>
<path d="M99.655 55.8652V39.2387H102.6L107.826 46.9344L113.004 39.2387H115.973V55.8652H113.218V43.5853L107.802 51.5898L102.41 43.6328V55.8652H99.655ZM126.65 55.8652L126.532 53.6325V49.7609C126.532 48.9533 126.444 48.2804 126.27 47.742C126.112 47.1878 125.843 46.7681 125.463 46.4831C125.099 46.1822 124.608 46.0318 123.99 46.0318C123.42 46.0318 122.921 46.1506 122.494 46.3881C122.066 46.6256 121.702 46.9977 121.401 47.5045L119.073 46.6494C119.327 46.1268 119.659 45.6439 120.071 45.2005C120.499 44.7413 121.029 44.3771 121.662 44.1079C122.312 43.8387 123.088 43.7041 123.99 43.7041C125.146 43.7041 126.112 43.9337 126.888 44.3929C127.664 44.8363 128.234 45.4776 128.598 46.3168C128.978 47.1561 129.168 48.1695 129.168 49.3571L129.097 55.8652H126.65ZM123.23 56.1503C121.805 56.1503 120.696 55.8336 119.905 55.2002C119.129 54.5668 118.741 53.6721 118.741 52.5162C118.741 51.2811 119.153 50.3389 119.976 49.6897C120.815 49.0404 121.979 48.7158 123.468 48.7158H126.65V50.7585H124.323C123.262 50.7585 122.517 50.9089 122.09 51.2098C121.662 51.4948 121.449 51.9065 121.449 52.4449C121.449 52.9041 121.631 53.2683 121.995 53.5375C122.375 53.7909 122.897 53.9176 123.563 53.9176C124.164 53.9176 124.687 53.783 125.13 53.5138C125.574 53.2446 125.914 52.8883 126.152 52.4449C126.405 52.0015 126.532 51.5027 126.532 50.9485H127.315C127.315 52.5637 126.991 53.8384 126.342 54.7726C125.692 55.6911 124.655 56.1503 123.23 56.1503ZM131.862 55.8652V43.9891H134.356L134.522 46.1743V55.8652H131.862ZM139.914 55.8652V49.7847H142.574V55.8652H139.914ZM139.914 49.7847C139.914 48.8346 139.803 48.1062 139.581 47.5995C139.376 47.0769 139.075 46.7127 138.679 46.5069C138.299 46.301 137.847 46.1981 137.325 46.1981C136.438 46.1822 135.749 46.4752 135.258 47.0769C134.768 47.6786 134.522 48.5416 134.522 49.6659H133.525C133.525 48.415 133.707 47.3461 134.071 46.4594C134.435 45.5568 134.958 44.8759 135.639 44.4167C136.319 43.9416 137.127 43.7041 138.061 43.7041C139.011 43.7041 139.819 43.8941 140.484 44.2742C141.165 44.6542 141.679 45.248 142.028 46.0556C142.392 46.8473 142.574 47.8845 142.574 49.1671V49.7847H139.914ZM152.513 55.8652L152.395 53.6325V49.7609C152.395 48.9533 152.307 48.2804 152.133 47.742C151.975 47.1878 151.706 46.7681 151.326 46.4831C150.962 46.1822 150.471 46.0318 149.853 46.0318C149.283 46.0318 148.784 46.1506 148.357 46.3881C147.929 46.6256 147.565 46.9977 147.264 47.5045L144.936 46.6494C145.19 46.1268 145.522 45.6439 145.934 45.2005C146.362 44.7413 146.892 44.3771 147.525 44.1079C148.175 43.8387 148.951 43.7041 149.853 43.7041C151.009 43.7041 151.975 43.9337 152.751 44.3929C153.527 44.8363 154.097 45.4776 154.461 46.3168C154.841 47.1561 155.031 48.1695 155.031 49.3571L154.96 55.8652H152.513ZM149.093 56.1503C147.668 56.1503 146.559 55.8336 145.768 55.2002C144.992 54.5668 144.604 53.6721 144.604 52.5162C144.604 51.2811 145.016 50.3389 145.839 49.6897C146.678 49.0404 147.842 48.7158 149.331 48.7158H152.513V50.7585H150.186C149.125 50.7585 148.38 50.9089 147.953 51.2098C147.525 51.4948 147.312 51.9065 147.312 52.4449C147.312 52.9041 147.494 53.2683 147.858 53.5375C148.238 53.7909 148.76 53.9176 149.426 53.9176C150.027 53.9176 150.55 53.783 150.993 53.5138C151.437 53.2446 151.777 52.8883 152.015 52.4449C152.268 52.0015 152.395 51.5027 152.395 50.9485H153.178C153.178 52.5637 152.854 53.8384 152.205 54.7726C151.555 55.6911 150.518 56.1503 149.093 56.1503ZM162.832 60.9245C161.992 60.9245 161.232 60.8532 160.551 60.7107C159.886 60.5682 159.324 60.4019 158.865 60.2119C158.406 60.0219 158.05 59.8398 157.796 59.6656L158.818 57.5279C159.039 57.6387 159.332 57.7733 159.696 57.9317C160.076 58.1059 160.52 58.2563 161.026 58.383C161.533 58.5096 162.103 58.573 162.737 58.573C163.418 58.573 164.027 58.4305 164.566 58.1454C165.104 57.8763 165.524 57.4566 165.824 56.8866C166.125 56.3165 166.276 55.5881 166.276 54.7014V43.9891H168.936V54.6301C168.936 55.9761 168.683 57.1162 168.176 58.0504C167.669 59.0005 166.957 59.7131 166.038 60.1881C165.12 60.679 164.051 60.9245 162.832 60.9245ZM162.428 55.6277C161.351 55.6277 160.409 55.3823 159.601 54.8914C158.81 54.4005 158.184 53.7196 157.725 52.8487C157.282 51.962 157.06 50.9406 157.06 49.7847C157.06 48.5496 157.282 47.4807 157.725 46.5781C158.184 45.6755 158.81 44.9709 159.601 44.4642C160.409 43.9575 161.351 43.7041 162.428 43.7041C163.394 43.7041 164.233 43.9575 164.946 44.4642C165.674 44.9709 166.236 45.6835 166.632 46.6019C167.028 47.5045 167.226 48.5733 167.226 49.8084C167.226 50.9802 167.028 52.0015 166.632 52.8725C166.236 53.7434 165.674 54.4243 164.946 54.9151C164.233 55.3902 163.394 55.6277 162.428 55.6277ZM163.164 53.3713C163.766 53.3713 164.288 53.2129 164.732 52.8962C165.191 52.5795 165.547 52.152 165.801 51.6136C166.054 51.0594 166.181 50.426 166.181 49.7134C166.181 48.985 166.054 48.3516 165.801 47.8132C165.547 47.259 165.191 46.8315 164.732 46.5306C164.273 46.2139 163.742 46.0556 163.14 46.0556C162.507 46.0556 161.945 46.2139 161.454 46.5306C160.979 46.8315 160.599 47.259 160.314 47.8132C160.045 48.3516 159.91 48.985 159.91 49.7134C159.91 50.426 160.045 51.0594 160.314 51.6136C160.599 52.152 160.987 52.5795 161.478 52.8962C161.969 53.2129 162.531 53.3713 163.164 53.3713ZM177.171 56.1503C176.015 56.1503 174.986 55.889 174.083 55.3664C173.196 54.8281 172.492 54.0917 171.969 53.1575C171.462 52.2232 171.209 51.1465 171.209 49.9272C171.209 48.7079 171.47 47.6311 171.993 46.6969C172.515 45.7626 173.228 45.0342 174.131 44.5117C175.049 43.9733 176.094 43.7041 177.266 43.7041C178.327 43.7041 179.285 43.9812 180.14 44.5354C180.995 45.0738 181.668 45.8576 182.159 46.8869C182.666 47.9162 182.919 49.1434 182.919 50.5685H173.584L173.941 50.236C173.941 50.9644 174.099 51.5978 174.416 52.1361C174.732 52.6587 175.152 53.0625 175.675 53.3475C176.197 53.6325 176.775 53.775 177.408 53.775C178.137 53.775 178.739 53.6167 179.214 53.3C179.689 52.9675 180.061 52.5399 180.33 52.0174L182.681 53.015C182.349 53.6484 181.921 54.2026 181.399 54.6776C180.892 55.1527 180.282 55.5169 179.57 55.7702C178.873 56.0236 178.074 56.1503 177.171 56.1503ZM174.107 48.8583L173.727 48.5258H180.425L180.069 48.8583C180.069 48.2091 179.926 47.6786 179.641 47.2669C179.356 46.8394 178.992 46.5227 178.549 46.3168C178.121 46.0952 177.67 45.9843 177.195 45.9843C176.72 45.9843 176.245 46.0952 175.77 46.3168C175.294 46.5227 174.899 46.8394 174.582 47.2669C174.265 47.6786 174.107 48.2091 174.107 48.8583ZM184.956 55.8652V43.9891H187.45L187.569 45.5805C187.933 44.963 188.401 44.4958 188.971 44.1791C189.541 43.8625 190.19 43.7041 190.918 43.7041C191.868 43.7041 192.676 43.9179 193.341 44.3454C194.006 44.773 194.489 45.4222 194.79 46.2931C195.138 45.4538 195.629 44.8125 196.263 44.3692C196.896 43.9258 197.64 43.7041 198.495 43.7041C199.873 43.7041 200.934 44.1475 201.678 45.0342C202.422 45.9051 202.786 47.2511 202.771 49.0721V55.8652H200.134V49.7847C200.134 48.8346 200.031 48.1062 199.825 47.5995C199.619 47.0769 199.342 46.7127 198.994 46.5069C198.646 46.301 198.242 46.1981 197.783 46.1981C196.959 46.1822 196.318 46.4752 195.859 47.0769C195.415 47.6786 195.194 48.5416 195.194 49.6659V55.8652H192.533V49.7847C192.533 48.8346 192.43 48.1062 192.225 47.5995C192.035 47.0769 191.765 46.7127 191.417 46.5069C191.069 46.301 190.665 46.1981 190.206 46.1981C189.382 46.1822 188.741 46.4752 188.282 47.0769C187.838 47.6786 187.617 48.5416 187.617 49.6659V55.8652H184.956ZM210.781 56.1503C209.625 56.1503 208.596 55.889 207.693 55.3664C206.807 54.8281 206.102 54.0917 205.579 53.1575C205.073 52.2232 204.819 51.1465 204.819 49.9272C204.819 48.7079 205.081 47.6311 205.603 46.6969C206.126 45.7626 206.838 45.0342 207.741 44.5117C208.659 43.9733 209.704 43.7041 210.876 43.7041C211.937 43.7041 212.895 43.9812 213.75 44.5354C214.605 45.0738 215.278 45.8576 215.769 46.8869C216.276 47.9162 216.529 49.1434 216.529 50.5685H207.195L207.551 50.236C207.551 50.9644 207.709 51.5978 208.026 52.1361C208.343 52.6587 208.762 53.0625 209.285 53.3475C209.807 53.6325 210.385 53.775 211.019 53.775C211.747 53.775 212.349 53.6167 212.824 53.3C213.299 52.9675 213.671 52.5399 213.94 52.0174L216.292 53.015C215.959 53.6484 215.532 54.2026 215.009 54.6776C214.502 55.1527 213.893 55.5169 213.18 55.7702C212.483 56.0236 211.684 56.1503 210.781 56.1503ZM207.717 48.8583L207.337 48.5258H214.035L213.679 48.8583C213.679 48.2091 213.536 47.6786 213.251 47.2669C212.966 46.8394 212.602 46.5227 212.159 46.3168C211.731 46.0952 211.28 45.9843 210.805 45.9843C210.33 45.9843 209.855 46.0952 209.38 46.3168C208.905 46.5227 208.509 46.8394 208.192 47.2669C207.876 47.6786 207.717 48.2091 207.717 48.8583ZM218.567 55.8652V43.9891H221.061L221.227 46.1743V55.8652H218.567ZM226.619 55.8652V49.7847H229.279V55.8652H226.619ZM226.619 49.7847C226.619 48.8346 226.508 48.1062 226.286 47.5995C226.08 47.0769 225.78 46.7127 225.384 46.5069C225.004 46.301 224.552 46.1981 224.03 46.1981C223.143 46.1822 222.454 46.4752 221.963 47.0769C221.472 47.6786 221.227 48.5416 221.227 49.6659H220.229C220.229 48.415 220.412 47.3461 220.776 46.4594C221.14 45.5568 221.662 44.8759 222.343 44.4167C223.024 43.9416 223.832 43.7041 224.766 43.7041C225.716 43.7041 226.524 43.8941 227.189 44.2742C227.87 44.6542 228.384 45.248 228.733 46.0556C229.097 46.8473 229.279 47.8845 229.279 49.1671V49.7847H226.619ZM236.7 56.1503C235.45 56.1503 234.492 55.8415 233.826 55.2239C233.177 54.5905 232.853 53.6879 232.853 52.5162V40.2838H235.489V52.0174C235.489 52.5716 235.616 52.9912 235.869 53.2762C236.138 53.5613 236.526 53.7038 237.033 53.7038C237.191 53.7038 237.366 53.6721 237.556 53.6088C237.746 53.5454 237.959 53.4267 238.197 53.2525L239.171 55.2714C238.759 55.5565 238.347 55.7702 237.936 55.9127C237.524 56.0711 237.112 56.1503 236.7 56.1503ZM230.881 46.2693V43.9891H238.696V46.2693H230.881Z" fill="white"/>
<path d="M105.118 80.1503C104.247 80.1503 103.447 80.0473 102.719 79.8415C102.006 79.6356 101.373 79.3506 100.819 78.9864C100.281 78.6222 99.8292 78.2184 99.465 77.775C99.1166 77.3158 98.8712 76.8408 98.7287 76.3499L101.436 75.5186C101.642 76.1045 102.046 76.6191 102.648 77.0625C103.25 77.5058 103.994 77.7355 104.881 77.7513C105.91 77.7513 106.725 77.5375 107.327 77.11C107.929 76.6824 108.23 76.1203 108.23 75.4236C108.23 74.7902 107.976 74.2755 107.47 73.8797C106.963 73.468 106.282 73.1513 105.427 72.9296L103.384 72.407C102.608 72.2012 101.904 71.9003 101.27 71.5045C100.653 71.1086 100.162 70.6098 99.7975 70.0081C99.4492 69.4063 99.275 68.6938 99.275 67.8704C99.275 66.3186 99.7817 65.1151 100.795 64.26C101.809 63.3891 103.257 62.9537 105.142 62.9537C106.203 62.9537 107.129 63.1199 107.921 63.4525C108.728 63.7692 109.393 64.2125 109.916 64.7826C110.439 65.3368 110.826 65.9702 111.08 66.6828L108.42 67.5378C108.182 66.9044 107.77 66.3819 107.184 65.9702C106.599 65.5585 105.87 65.3526 104.999 65.3526C104.097 65.3526 103.384 65.5664 102.862 65.9939C102.355 66.4215 102.102 67.0153 102.102 67.7754C102.102 68.3929 102.299 68.8759 102.695 69.2242C103.107 69.5568 103.661 69.8101 104.358 69.9843L106.401 70.4831C107.889 70.8473 109.045 71.4728 109.868 72.3595C110.692 73.2463 111.104 74.228 111.104 75.3048C111.104 76.2549 110.874 77.0941 110.415 77.8225C109.956 78.5509 109.275 79.121 108.372 79.5327C107.485 79.9444 106.401 80.1503 105.118 80.1503ZM118.95 80.1503C117.794 80.1503 116.765 79.889 115.862 79.3664C114.976 78.8281 114.271 78.0917 113.748 77.1575C113.242 76.2232 112.988 75.1465 112.988 73.9272C112.988 72.7079 113.25 71.6311 113.772 70.6969C114.295 69.7626 115.007 69.0342 115.91 68.5117C116.828 67.9733 117.873 67.7041 119.045 67.7041C120.106 67.7041 121.064 67.9812 121.919 68.5354C122.774 69.0738 123.447 69.8576 123.938 70.8869C124.445 71.9162 124.698 73.1434 124.698 74.5685H115.364L115.72 74.236C115.72 74.9644 115.878 75.5978 116.195 76.1361C116.512 76.6587 116.931 77.0625 117.454 77.3475C117.976 77.6325 118.554 77.775 119.188 77.775C119.916 77.775 120.518 77.6167 120.993 77.3C121.468 76.9675 121.84 76.5399 122.109 76.0174L124.461 77.015C124.128 77.6484 123.701 78.2026 123.178 78.6776C122.671 79.1527 122.062 79.5169 121.349 79.7702C120.652 80.0236 119.853 80.1503 118.95 80.1503ZM115.886 72.8583L115.506 72.5258H122.204L121.848 72.8583C121.848 72.2091 121.705 71.6786 121.42 71.2669C121.135 70.8394 120.771 70.5227 120.328 70.3168C119.9 70.0952 119.449 69.9843 118.974 69.9843C118.499 69.9843 118.024 70.0952 117.549 70.3168C117.074 70.5227 116.678 70.8394 116.361 71.2669C116.044 71.6786 115.886 72.2091 115.886 72.8583ZM128.493 73.5471C128.493 72.2645 128.739 71.2115 129.23 70.3881C129.721 69.5647 130.354 68.9551 131.13 68.5592C131.922 68.1475 132.745 67.9416 133.6 67.9416V70.4831C132.872 70.4831 132.183 70.586 131.534 70.7919C130.9 70.9819 130.386 71.2986 129.99 71.742C129.594 72.1854 129.396 72.7712 129.396 73.4996L128.493 73.5471ZM126.736 79.8652V67.9891H129.396V79.8652H126.736ZM139.189 79.8652L143.82 67.9891H146.575L141.683 79.8652H139.189ZM138.999 79.8652L134.082 67.9891H136.813L141.469 79.8652H138.999ZM148.404 79.8652V67.9891H151.041V79.8652H148.404ZM149.734 65.7327C149.307 65.7327 148.935 65.5822 148.618 65.2814C148.317 64.9647 148.167 64.5926 148.167 64.165C148.167 63.7375 148.317 63.3733 148.618 63.0724C148.935 62.7716 149.307 62.6211 149.734 62.6211C150.162 62.6211 150.526 62.7716 150.827 63.0724C151.144 63.3733 151.302 63.7375 151.302 64.165C151.302 64.5926 151.144 64.9647 150.827 65.2814C150.526 65.5822 150.162 65.7327 149.734 65.7327ZM159.734 80.1503C158.515 80.1503 157.438 79.889 156.504 79.3664C155.569 78.8281 154.833 78.0917 154.295 77.1575C153.772 76.2232 153.511 75.1465 153.511 73.9272C153.511 72.7079 153.772 71.6311 154.295 70.6969C154.833 69.7626 155.562 69.0342 156.48 68.5117C157.414 67.9733 158.483 67.7041 159.687 67.7041C160.858 67.7041 161.919 67.9891 162.869 68.5592C163.819 69.1134 164.524 69.9131 164.983 70.9582L162.513 71.9082C162.26 71.3857 161.872 70.9661 161.349 70.6494C160.827 70.3327 160.233 70.1743 159.568 70.1743C158.919 70.1743 158.341 70.3406 157.834 70.6731C157.327 70.9898 156.931 71.4332 156.646 72.0033C156.361 72.5575 156.219 73.1988 156.219 73.9272C156.219 74.6556 156.361 75.3048 156.646 75.8749C156.947 76.4291 157.351 76.8725 157.858 77.205C158.38 77.5217 158.966 77.68 159.615 77.68C160.28 77.68 160.874 77.5138 161.397 77.1812C161.919 76.8329 162.307 76.3657 162.561 75.7799L165.031 76.7299C164.572 77.8067 163.867 78.646 162.917 79.2477C161.983 79.8494 160.922 80.1503 159.734 80.1503ZM172.393 80.1503C171.237 80.1503 170.207 79.889 169.305 79.3664C168.418 78.8281 167.713 78.0917 167.191 77.1575C166.684 76.2232 166.431 75.1465 166.431 73.9272C166.431 72.7079 166.692 71.6311 167.215 70.6969C167.737 69.7626 168.45 69.0342 169.352 68.5117C170.271 67.9733 171.316 67.7041 172.488 67.7041C173.549 67.7041 174.507 67.9812 175.362 68.5354C176.217 69.0738 176.89 69.8576 177.381 70.8869C177.887 71.9162 178.141 73.1434 178.141 74.5685H168.806L169.162 74.236C169.162 74.9644 169.321 75.5978 169.637 76.1361C169.954 76.6587 170.374 77.0625 170.896 77.3475C171.419 77.6325 171.997 77.775 172.63 77.775C173.359 77.775 173.96 77.6167 174.435 77.3C174.91 76.9675 175.283 76.5399 175.552 76.0174L177.903 77.015C177.571 77.6484 177.143 78.2026 176.621 78.6776C176.114 79.1527 175.504 79.5169 174.792 79.7702C174.095 80.0236 173.295 80.1503 172.393 80.1503ZM169.329 72.8583L168.949 72.5258H175.647L175.29 72.8583C175.29 72.2091 175.148 71.6786 174.863 71.2669C174.578 70.8394 174.214 70.5227 173.77 70.3168C173.343 70.0952 172.891 69.9843 172.416 69.9843C171.941 69.9843 171.466 70.0952 170.991 70.3168C170.516 70.5227 170.12 70.8394 169.804 71.2669C169.487 71.6786 169.329 72.2091 169.329 72.8583ZM184.501 80.1503C183.709 80.1503 182.981 80.0315 182.316 79.794C181.651 79.5565 181.081 79.2239 180.606 78.7964C180.131 78.353 179.766 77.8384 179.513 77.2525L181.817 76.2311C182.055 76.6745 182.403 77.0466 182.862 77.3475C183.337 77.6484 183.86 77.7988 184.43 77.7988C185.047 77.7988 185.538 77.6959 185.902 77.49C186.282 77.2683 186.473 76.9675 186.473 76.5874C186.473 76.2232 186.33 75.9461 186.045 75.7561C185.76 75.5502 185.356 75.384 184.834 75.2573L183.717 74.9485C182.593 74.6635 181.714 74.2122 181.081 73.5947C180.447 72.9613 180.131 72.2408 180.131 71.4332C180.131 70.2456 180.511 69.3272 181.271 68.6779C182.047 68.0287 183.155 67.7041 184.596 67.7041C185.324 67.7041 185.99 67.8149 186.591 68.0366C187.209 68.2425 187.739 68.5433 188.183 68.9392C188.626 69.3193 188.935 69.7705 189.109 70.2931L186.9 71.2907C186.742 70.8948 186.441 70.594 185.997 70.3881C185.554 70.1664 185.063 70.0556 184.525 70.0556C183.986 70.0556 183.567 70.1743 183.266 70.4119C182.965 70.6335 182.815 70.9502 182.815 71.3619C182.815 71.5995 182.949 71.8212 183.218 72.027C183.488 72.217 183.876 72.3754 184.382 72.502L185.784 72.8346C186.56 73.0246 187.193 73.3255 187.684 73.7372C188.175 74.133 188.539 74.5843 188.776 75.091C189.014 75.5819 189.133 76.0807 189.133 76.5874C189.133 77.3 188.927 77.9255 188.515 78.4639C188.119 79.0022 187.573 79.4219 186.876 79.7227C186.18 80.0077 185.388 80.1503 184.501 80.1503Z" fill="white"/>
<defs>
<linearGradient id="paint0_linear_2111_51287" x1="11.8442" y1="19.2871" x2="46.0185" y2="89.5844" gradientUnits="userSpaceOnUse">
<stop stop-color="#4DB1B3"/>
<stop offset="0.206731" stop-color="#0195D6"/>
<stop offset="0.408654" stop-color="#0F5299"/>
<stop offset="0.600962" stop-color="#C5284C"/>
<stop offset="0.802885" stop-color="#E83430"/>
<stop offset="1" stop-color="#E66407"/>
</linearGradient>
<linearGradient id="paint1_linear_2111_51287" x1="5.49394" y1="42.9502" x2="47.3645" y2="88.9099" gradientUnits="userSpaceOnUse">
<stop stop-color="#4DB1B3"/>
<stop offset="0.206731" stop-color="#0195D6"/>
<stop offset="0.408654" stop-color="#0F5299"/>
<stop offset="0.600962" stop-color="#C5284C"/>
<stop offset="0.802885" stop-color="#E83430"/>
<stop offset="1" stop-color="#E66407"/>
</linearGradient>
<linearGradient id="paint2_linear_2111_51287" x1="20.1106" y1="-7.9074" x2="91.5513" y2="18.099" gradientUnits="userSpaceOnUse">
<stop stop-color="#4DB1B3"/>
<stop offset="0.206731" stop-color="#0195D6"/>
<stop offset="0.408654" stop-color="#0F5299"/>
<stop offset="0.600962" stop-color="#C5284C"/>
<stop offset="0.802885" stop-color="#E83430"/>
<stop offset="1" stop-color="#E66407"/>
</linearGradient>
</defs>
</svg>
