<svg width="278" height="63" viewBox="0 0 278 63" fill="none" xmlns="http://www.w3.org/2000/svg">
<g clip-path="url(#clip0_2111_51162)">
<path fill-rule="evenodd" clip-rule="evenodd" d="M101.969 41.5301C97.7782 41.5301 94.4092 40.4719 91.9738 38.3869C89.5384 36.3179 88.3047 33.475 88.3047 29.9686C88.3047 28.0415 88.7474 26.2414 89.6174 24.614C90.4875 22.9713 91.7527 21.5973 93.3496 20.4916C94.4252 19.7651 95.6429 19.228 96.9397 18.8963C98.2524 18.5645 99.9289 18.3906 101.937 18.3906H103.503V19.7961H101.526C98.1253 19.7961 95.3262 20.7439 93.207 22.6235C91.0718 24.5031 89.9967 26.9828 89.9967 29.9681C89.9967 32.9534 91.0878 35.4171 93.223 37.2967C95.3583 39.1763 98.1574 40.1241 101.526 40.1241H103.503V41.5296H101.969V41.5301Z" fill="white"/>
<path d="M85.3699 29.1836H71.1992V30.7944H85.3699V29.1836Z" fill="white"/>
<path fill-rule="evenodd" clip-rule="evenodd" d="M80.4964 27.5084H82.1729C82.0303 26.7659 81.8252 26.0394 81.5405 25.3444C81.2243 24.5545 80.8131 23.8126 80.3383 23.1016C79.9431 22.517 79.5003 21.9644 78.994 21.4433C77.9029 20.3222 76.6377 19.4533 75.2299 18.8687C73.8226 18.2841 72.3197 17.9844 70.7698 17.9844C69.2199 17.9844 67.7175 18.2847 66.3097 18.8687C64.9179 19.4533 63.6372 20.3216 62.5455 21.4433C61.4229 22.612 60.5529 23.939 59.9675 25.3919C59.3822 26.8448 59.082 28.3772 59.082 29.9565V29.988C59.082 31.5674 59.3827 33.0997 59.9675 34.5527C60.5529 35.9901 61.4224 37.3166 62.5455 38.5012C63.6367 39.6224 64.9019 40.4913 66.3097 41.0758C67.717 41.6604 69.2199 41.9602 70.7698 41.9602C72.3197 41.9602 73.822 41.6599 75.2299 41.0758C76.6372 40.4913 77.9024 39.6229 78.994 38.5012C79.5003 37.9801 79.9431 37.427 80.3383 36.843C80.8126 36.148 81.2238 35.39 81.5405 34.6001C81.8252 33.9051 82.0308 33.1787 82.1729 32.4362H80.4964C80.3538 33.1627 80.0852 33.8577 79.7845 34.5367C79.5158 35.1527 79.1676 35.7373 78.7724 36.2899C78.6458 36.4637 78.5193 36.6216 78.3927 36.7955C78.2186 37.0168 78.045 37.2222 77.8394 37.427C75.9097 39.4645 73.5374 40.5068 70.7698 40.5068C68.0022 40.5068 65.5983 39.48 63.6527 37.427C61.7391 35.4055 60.7585 32.8939 60.7425 29.972C60.7425 27.0502 61.7231 24.5385 63.6527 22.517C65.5823 20.4795 67.9702 19.4373 70.7698 19.4373C73.5694 19.4373 75.9258 20.4795 77.8394 22.517C78.2191 22.9277 78.5668 23.3539 78.883 23.8281C79.3257 24.4756 79.6894 25.1546 79.9586 25.8816C80.1327 26.3552 80.2748 26.8294 80.4329 27.303C80.4489 27.3819 80.4804 27.4449 80.4959 27.5084" fill="white"/>
<path fill-rule="evenodd" clip-rule="evenodd" d="M43.9953 41.9743C40.6584 41.9743 37.8433 40.8372 35.6605 38.5783C33.4782 36.3195 32.3711 33.4291 32.3711 29.9702C32.3711 28.3434 32.6558 26.7955 33.2091 25.3581C33.7624 23.9206 34.5849 22.6096 35.6605 21.4724C36.7361 20.3353 38.0168 19.4509 39.4402 18.8504C40.8635 18.2503 42.4294 17.95 44.1059 17.95C45.5927 17.95 47.016 18.2183 48.3443 18.74C49.6571 19.2611 50.8908 20.0195 52.0294 21.0303V23.0678C50.9538 21.9306 49.7836 21.0617 48.5659 20.4617C47.1901 19.7982 45.6878 19.4664 44.0904 19.4664C41.2122 19.4664 38.7923 20.4772 36.9102 22.4672C35.0281 24.4572 34.0791 27.0004 34.0791 30.0326C34.0791 33.0649 35.0436 35.5765 36.9572 37.5826C38.8708 39.5886 41.2747 40.5993 44.1059 40.5993C47.1266 40.5993 49.562 39.5251 51.365 37.3932C53.1521 35.2768 54.0696 32.3864 54.0696 28.801V7.03711H55.6825V28.5967C55.6825 30.3185 55.556 31.8029 55.3028 33.0349C55.0497 34.251 54.6384 35.3253 54.0851 36.2411C52.9625 38.0732 51.5071 39.4947 49.7676 40.474C48.0121 41.4692 46.067 41.9743 43.9953 41.9743Z" fill="white"/>
<path fill-rule="evenodd" clip-rule="evenodd" d="M25.8365 41.5323V27.7754C25.8365 25.2958 25.1091 23.2423 23.6697 21.6944C22.2304 20.1466 20.3168 19.3566 18.0235 19.3566C15.7301 19.3566 13.8165 20.1466 12.3772 21.6944C10.9379 23.2423 10.2104 25.2798 10.2104 27.7754V41.5323H8.64453V28.407C8.64453 25.2163 9.49852 22.6422 11.2065 20.7626C12.899 18.899 15.1918 17.9512 18.0229 17.9512C20.8541 17.9512 23.1469 18.899 24.8394 20.7626C26.5319 22.6422 27.4013 25.2168 27.4013 28.407V41.5323H25.8354H25.8365Z" fill="white"/>
<path d="M2.05042 18.377H0.4375V41.5319H2.05042V18.377Z" fill="white"/>
<path d="M27.3789 56.2358V47.9785H28.2448V56.2358H27.3789Z" fill="white"/>
<path d="M56.1211 56.2358V47.9785H56.987V56.2358H56.1211Z" fill="white"/>
<path d="M66.504 54.3197C66.3284 54.4533 66.1393 54.5694 65.9373 54.6674C65.7347 54.7655 65.5131 54.8398 65.2724 54.8903C65.0316 54.9409 64.765 54.9662 64.4736 54.9662C64.0154 54.9662 63.5933 54.8831 63.2063 54.7165C62.8194 54.5503 62.4846 54.3228 62.2025 54.0349C61.9199 53.747 61.6983 53.4065 61.5376 53.0143C61.377 52.6222 61.2969 52.2002 61.2969 51.7487C61.2969 51.2972 61.3759 50.884 61.5335 50.4918C61.6911 50.0997 61.9127 49.7566 62.1984 49.4625C62.4841 49.1684 62.823 48.9368 63.2156 48.7675C63.6083 48.5983 64.0423 48.5137 64.5186 48.5137C64.8043 48.5137 65.0642 48.5374 65.2997 48.5849C65.5348 48.6323 65.7502 48.6994 65.9466 48.7856C66.1429 48.8717 66.3242 48.9744 66.4911 49.0931C66.6574 49.2118 66.8155 49.3428 66.9643 49.4852L66.2591 50.2963C66.0091 50.0646 65.7446 49.8773 65.4651 49.7349C65.185 49.5925 64.8673 49.5208 64.5103 49.5208C64.2127 49.5208 63.9379 49.5786 63.6848 49.6947C63.4316 49.8108 63.2131 49.9681 63.0286 50.1673C62.8442 50.3665 62.7016 50.5997 62.6003 50.8669C62.4991 51.1342 62.4484 51.4226 62.4484 51.7317C62.4484 52.0407 62.4991 52.3302 62.6003 52.6005C62.7016 52.8709 62.8442 53.1072 63.0286 53.3089C63.2131 53.5112 63.4316 53.6701 63.6848 53.7857C63.9374 53.9018 64.2127 53.9596 64.5103 53.9596C64.8911 53.9596 65.2181 53.8868 65.4919 53.7413C65.7657 53.5958 66.0365 53.3982 66.3041 53.1485L67.0093 53.8615C66.8486 54.0339 66.6807 54.1871 66.505 54.3207L66.504 54.3197Z" fill="white"/>
<path d="M70.4629 54.9861C70.3678 55.2297 70.2697 55.4345 70.1684 55.6011C70.0671 55.7673 69.954 55.9025 69.8295 56.0067C69.7045 56.1104 69.5676 56.1862 69.4188 56.2342C69.27 56.2817 69.1005 56.3054 68.9099 56.3054C68.6836 56.3054 68.4831 56.2796 68.3075 56.2291C68.1318 56.178 67.9608 56.1073 67.7945 56.0175L68.1603 55.209C68.2615 55.2627 68.3638 55.3055 68.4682 55.338C68.572 55.3705 68.681 55.387 68.7936 55.387C68.9481 55.387 69.0762 55.3483 69.1775 55.2714C69.2788 55.1941 69.3738 55.0516 69.4632 54.8442L67.5 50.1465H68.6511L69.9896 53.64L71.2125 50.1465H72.3372L70.4629 54.9861Z" fill="white"/>
<path d="M77.9517 53.5458C77.8298 53.8486 77.666 54.1061 77.4609 54.3166C77.2558 54.5276 77.0207 54.6865 76.7557 54.7933C76.4907 54.9001 76.2189 54.9538 75.9389 54.9538C75.5519 54.9538 75.2306 54.8707 74.9749 54.7041C74.7191 54.538 74.5078 54.3445 74.3415 54.1247L74.3503 54.8558H73.2617V48.3496H74.3503V50.9345C74.5223 50.6848 74.7362 50.4753 74.9914 50.3061C75.2466 50.1369 75.5643 50.0523 75.9441 50.0523C76.2231 50.0523 76.4932 50.1059 76.7541 50.2127C77.015 50.3195 77.2486 50.4789 77.4531 50.6895C77.6577 50.9005 77.8225 51.1574 77.9476 51.4603C78.0721 51.7632 78.1346 52.1109 78.1346 52.503C78.1346 52.8952 78.0736 53.2429 77.9517 53.5458ZM76.9386 51.8746C76.8673 51.6873 76.7702 51.5284 76.6488 51.3979C76.5268 51.2673 76.3837 51.1662 76.2205 51.095C76.0567 51.0238 75.8826 50.9882 75.6982 50.9882C75.5137 50.9882 75.3381 51.0238 75.1717 51.095C75.0048 51.1662 74.8591 51.2689 74.7346 51.4025C74.6096 51.5361 74.5099 51.6951 74.4355 51.8792C74.3611 52.0634 74.3239 52.2714 74.3239 52.503C74.3239 52.7347 74.3611 52.9426 74.4355 53.1268C74.5099 53.311 74.6096 53.4699 74.7346 53.6036C74.8597 53.7372 75.0054 53.8399 75.1717 53.9111C75.3381 53.9823 75.5137 54.0179 75.6982 54.0179C75.8826 54.0179 76.0567 53.9823 76.2205 53.9111C76.3842 53.8399 76.5268 53.7387 76.6488 53.6082C76.7707 53.4777 76.8673 53.3188 76.9386 53.1315C77.0099 52.9442 77.0455 52.7347 77.0455 52.503C77.0455 52.2714 77.0099 52.0619 76.9386 51.8746Z" fill="white"/>
<path d="M80.533 53.7718C80.7769 53.9767 81.0744 54.0793 81.4252 54.0793C81.6928 54.0793 81.9248 54.0319 82.1211 53.9369C82.3174 53.842 82.5107 53.7022 82.7013 53.518L83.3347 54.0793C83.1084 54.3466 82.8393 54.5607 82.5272 54.7212C82.2152 54.8816 81.8416 54.9616 81.4071 54.9616C81.0682 54.9616 80.751 54.9023 80.4565 54.7831C80.1621 54.6644 79.9063 54.4978 79.6888 54.2842C79.4713 54.0701 79.3008 53.8131 79.1758 53.5133C79.0508 53.2136 78.9883 52.8792 78.9883 52.5108C78.9883 52.1724 79.0446 51.8546 79.1577 51.5574C79.2709 51.2602 79.43 51.0001 79.6351 50.7772C79.8402 50.5544 80.0825 50.3779 80.3625 50.2468C80.642 50.1163 80.9515 50.0508 81.2904 50.0508C81.6649 50.0508 81.994 50.1194 82.2766 50.2556C82.5592 50.3923 82.7943 50.5765 82.9818 50.8082C83.1694 51.0399 83.3104 51.3102 83.406 51.6193C83.5011 51.9283 83.5486 52.2518 83.5486 52.5908C83.5486 52.6383 83.547 52.6858 83.5439 52.7332C83.5408 52.7807 83.5362 52.8313 83.5305 52.8849H80.068C80.1336 53.2714 80.2881 53.5665 80.532 53.7718H80.533ZM82.4786 52.1719C82.4611 51.9995 82.4218 51.8375 82.3624 51.6864C82.303 51.5347 82.2224 51.4041 82.1216 51.2942C82.0204 51.1843 81.9 51.0966 81.76 51.0311C81.62 50.9656 81.4609 50.9331 81.2826 50.9331C80.9494 50.9331 80.674 51.0476 80.4571 51.2762C80.2396 51.5047 80.1073 51.8035 80.0598 52.1719H82.4781H82.4786Z" fill="white"/>
<path d="M85.7214 54.8574H84.6328V50.1514H85.7214V51.2122C85.8701 50.8557 86.0814 50.5703 86.3547 50.3567C86.6286 50.1426 86.9737 50.0446 87.3901 50.0627V51.2034H87.3276C87.0894 51.2034 86.8724 51.2421 86.6761 51.3195C86.4798 51.3969 86.3103 51.5125 86.1672 51.6673C86.0246 51.8221 85.9141 52.0166 85.8371 52.2508C85.7596 52.4856 85.7208 52.7575 85.7208 53.0665V54.8579L85.7214 54.8574Z" fill="white"/>
<path d="M89.427 50.5699C89.4688 50.6591 89.5448 50.7422 89.6553 50.8196C89.7654 50.897 89.9178 50.9682 90.1115 51.0337C90.3052 51.0993 90.5517 51.1674 90.8498 51.2386C91.1778 51.3216 91.4687 51.414 91.7224 51.5151C91.976 51.6162 92.1858 51.7396 92.3532 51.8851C92.52 52.0306 92.6471 52.2003 92.7334 52.3933C92.8197 52.5862 92.8631 52.8138 92.8631 53.0748C92.8631 53.372 92.8083 53.6362 92.6993 53.8679C92.5903 54.0995 92.4384 54.2956 92.2436 54.456C92.0489 54.6165 91.8148 54.7383 91.542 54.8213C91.2688 54.9044 90.9686 54.9462 90.6416 54.9462C90.1595 54.9462 89.6987 54.8647 89.258 54.7011C88.8179 54.5376 88.4102 54.2868 88.0352 53.9478L88.6954 53.1636C88.9987 53.4252 89.305 53.6259 89.6145 53.7652C89.924 53.905 90.2748 53.9747 90.6674 53.9747C91.0063 53.9747 91.2755 53.9035 91.4749 53.7605C91.6743 53.6181 91.774 53.4252 91.774 53.1811C91.774 53.0681 91.7544 52.967 91.7156 52.8783C91.6769 52.7895 91.6051 52.7075 91.5007 52.6332C91.3964 52.5589 91.2533 52.4892 91.0714 52.4237C90.8895 52.3582 90.6524 52.2901 90.36 52.2189C90.0257 52.1415 89.7292 52.0553 89.4698 51.9604C89.2105 51.8654 88.9925 51.7463 88.8168 51.6039C88.6406 51.4615 88.5063 51.2891 88.4138 51.0869C88.3214 50.8851 88.2754 50.6385 88.2754 50.347C88.2754 50.0741 88.3286 49.8254 88.4345 49.603C88.5409 49.3801 88.6866 49.1887 88.8726 49.0282C89.0586 48.8678 89.2818 48.7444 89.5432 48.6583C89.8046 48.5721 90.0898 48.5293 90.3993 48.5293C90.8575 48.5293 91.2693 48.5964 91.635 48.73C92.0008 48.8636 92.3444 49.0581 92.6657 49.3135L92.0768 50.1427C91.7911 49.9348 91.5085 49.7758 91.229 49.6659C90.9495 49.556 90.6669 49.5008 90.3812 49.5008C90.0598 49.5008 89.8098 49.5736 89.6315 49.7191C89.4528 49.8646 89.3639 50.0416 89.3639 50.2495C89.3639 50.3743 89.3846 50.4811 89.4264 50.5704L89.427 50.5699Z" fill="white"/>
<path d="M95.3143 53.7718C95.5581 53.9767 95.8557 54.0793 96.2065 54.0793C96.4741 54.0793 96.7061 54.0319 96.9024 53.9369C97.0987 53.842 97.2919 53.7022 97.4826 53.518L98.116 54.0793C97.8897 54.3466 97.6205 54.5607 97.3085 54.7212C96.9964 54.8816 96.6229 54.9616 96.1884 54.9616C95.8495 54.9616 95.5323 54.9023 95.2378 54.7831C94.9433 54.6644 94.6876 54.4978 94.4701 54.2842C94.2526 54.0701 94.0821 53.8131 93.9571 53.5133C93.832 53.2136 93.7695 52.8792 93.7695 52.5108C93.7695 52.1724 93.8258 51.8546 93.939 51.5574C94.0521 51.2602 94.2113 51.0001 94.4164 50.7772C94.6215 50.5544 94.8638 50.3779 95.1438 50.2468C95.4233 50.1163 95.7327 50.0508 96.0716 50.0508C96.4462 50.0508 96.7753 50.1194 97.0579 50.2556C97.3405 50.3923 97.5756 50.5765 97.7631 50.8082C97.9506 51.0399 98.0917 51.3102 98.1872 51.6193C98.2823 51.9283 98.3298 52.2518 98.3298 52.5908C98.3298 52.6383 98.3283 52.6858 98.3252 52.7332C98.3221 52.7807 98.3174 52.8313 98.3117 52.8849H94.8493C94.9149 53.2714 95.0694 53.5665 95.3132 53.7718H95.3143ZM97.2599 52.1719C97.2423 51.9995 97.2031 51.8375 97.1436 51.6864C97.0842 51.5347 97.0036 51.4041 96.9029 51.2942C96.8016 51.1843 96.6813 51.0966 96.5413 51.0311C96.4012 50.9656 96.2421 50.9331 96.0639 50.9331C95.7307 50.9331 95.4553 51.0476 95.2383 51.2762C95.0208 51.5047 94.8886 51.8035 94.841 52.1719H97.2594H97.2599Z" fill="white"/>
<path d="M102.743 54.7165C102.445 54.8801 102.068 54.9616 101.609 54.9616C101.258 54.9616 100.934 54.8976 100.636 54.7702C100.339 54.6422 100.081 54.4673 99.8615 54.2444C99.6425 54.0216 99.4715 53.7631 99.3485 53.469C99.2255 53.1749 99.1641 52.8586 99.1641 52.5196C99.1641 52.1806 99.2255 51.8633 99.3485 51.5661C99.4715 51.2689 99.6425 51.0079 99.8615 50.7819C100.081 50.5559 100.34 50.3779 100.641 50.2468C100.941 50.1163 101.267 50.0508 101.618 50.0508C102.064 50.0508 102.435 50.1251 102.729 50.2737C103.024 50.4223 103.281 50.6183 103.501 50.8619L102.832 51.5837C102.665 51.4114 102.488 51.2705 102.301 51.1601C102.113 51.0502 101.883 50.995 101.609 50.995C101.412 50.995 101.231 51.0352 101.064 51.1152C100.897 51.1952 100.755 51.304 100.636 51.4408C100.517 51.5775 100.423 51.7364 100.355 51.9175C100.286 52.0986 100.252 52.2936 100.252 52.501C100.252 52.7085 100.286 52.9143 100.355 53.098C100.423 53.2822 100.52 53.4427 100.645 53.5794C100.77 53.7161 100.919 53.8245 101.091 53.9044C101.264 53.9844 101.454 54.0247 101.662 54.0247C101.918 54.0247 102.143 53.97 102.336 53.8595C102.529 53.7496 102.712 53.6088 102.885 53.436L103.536 54.0778C103.304 54.3394 103.039 54.5514 102.742 54.715L102.743 54.7165Z" fill="white"/>
<path d="M33.9987 48.3496V54.5885H32.9102V48.3496H33.9987Z" fill="white"/>
<path d="M36.6393 54.6439H35.5508V49.9379H36.6393V50.6762C36.7163 50.5622 36.801 50.4559 36.893 50.3568C36.985 50.2578 37.0919 50.1695 37.2133 50.0916C37.3347 50.0137 37.4685 49.9523 37.6137 49.9074C37.7589 49.8625 37.9237 49.8398 38.1076 49.8398C38.6413 49.8398 39.0541 50.0034 39.3444 50.33C39.6348 50.6566 39.7804 51.0967 39.7804 51.6493V54.6439H38.6919V51.9764C38.6919 51.609 38.6051 51.3258 38.431 51.1271C38.2569 50.9285 38.0105 50.8294 37.6922 50.8294C37.374 50.8294 37.126 50.9316 36.9312 51.1364C36.7365 51.3413 36.6393 51.6271 36.6393 51.9945V54.6444V54.6439Z" fill="white"/>
<path d="M43.6484 49.8679V50.759H42.4168V54.5378H41.3282V50.759H40.7305V49.8586H41.3282V49.5202C41.3282 48.9975 41.4543 48.6095 41.7059 48.3572C41.958 48.1049 42.317 47.9785 42.7825 47.9785C42.9727 47.9785 43.1364 47.9904 43.2733 48.0141C43.4102 48.0379 43.5378 48.0678 43.6572 48.1034V49.0125C43.5502 48.9769 43.4474 48.9485 43.3493 48.9279C43.2511 48.9072 43.1426 48.8964 43.0233 48.8964C42.6069 48.8964 42.3987 49.1342 42.3987 49.6094V49.8679H43.6479H43.6484Z" fill="white"/>
<path d="M45.526 54.6367H44.4375V49.9307H45.526V50.9915C45.6748 50.635 45.8861 50.3496 46.1594 50.136C46.4332 49.9219 46.7784 49.8239 47.1948 49.842V50.9827H47.1322C46.8941 50.9827 46.6771 51.0214 46.4808 51.0988C46.2845 51.1762 46.115 51.2918 45.9719 51.4466C45.8293 51.6013 45.7187 51.7959 45.6418 52.0301C45.5643 52.2649 45.5255 52.5368 45.5255 52.8458V54.6372L45.526 54.6367Z" fill="white"/>
<path d="M50.7823 54.6176V54.0382C50.6216 54.2285 50.4165 54.389 50.1664 54.5195C49.9164 54.6501 49.6131 54.7156 49.2561 54.7156C49.0299 54.7156 48.816 54.6846 48.6135 54.6222C48.4109 54.5598 48.2342 54.4679 48.0824 54.3462C47.9305 54.2244 47.8085 54.0727 47.7166 53.8916C47.6241 53.7105 47.5781 53.501 47.5781 53.2632V53.2451C47.5781 52.9897 47.6257 52.7668 47.7207 52.5765C47.8158 52.3866 47.948 52.2287 48.118 52.1038C48.2875 51.979 48.49 51.8856 48.725 51.8232C48.9601 51.7607 49.2143 51.7298 49.4881 51.7298C49.7619 51.7298 50.0161 51.7478 50.2155 51.7834C50.4149 51.819 50.6066 51.8665 50.7911 51.9258V51.8098C50.7911 51.4832 50.6913 51.2334 50.4919 51.0611C50.2925 50.8888 50.0058 50.8026 49.6307 50.8026C49.3631 50.8026 49.1249 50.8294 48.9167 50.8826C48.7085 50.9362 48.4972 51.0074 48.2833 51.0967L47.9888 50.232C48.2508 50.1133 48.5184 50.0178 48.7922 49.9466C49.066 49.8754 49.3961 49.8398 49.7826 49.8398C50.4847 49.8398 51.0055 50.0137 51.3444 50.3615C51.6833 50.7092 51.8532 51.1978 51.8532 51.8278V54.6176H50.7823ZM50.8091 52.6213C50.6722 52.5677 50.51 52.5233 50.323 52.4877C50.1355 52.4521 49.9376 52.4341 49.7294 52.4341C49.3905 52.4341 49.1254 52.4996 48.9353 52.6301C48.7447 52.7607 48.6496 52.9479 48.6496 53.1915V53.2095C48.6496 53.4355 48.7374 53.6078 48.9131 53.7265C49.0888 53.8452 49.3042 53.905 49.5599 53.905C49.7382 53.905 49.9035 53.8813 50.0554 53.8338C50.2073 53.7864 50.3395 53.7193 50.4527 53.6331C50.5658 53.547 50.6536 53.4433 50.7161 53.321C50.7787 53.1992 50.8097 53.064 50.8097 52.9154V52.6213H50.8091Z" fill="white"/>
<path d="M7.04597 54.6329H5.88562L5.25223 53.1268H2.29813L1.65544 54.6329H0.53125L3.28025 48.3496H4.29749L7.04649 54.6329H7.04597ZM3.77053 49.6596L2.69955 52.1553H4.85029L3.77053 49.6596Z" fill="white"/>
<path d="M12.6822 53.3227C12.5602 53.6255 12.3965 53.883 12.1914 54.0935C11.9863 54.3045 11.7512 54.4634 11.4862 54.5702C11.2211 54.677 10.9494 54.7307 10.6694 54.7307C10.2824 54.7307 9.96107 54.6476 9.70534 54.481C9.4496 54.3149 9.2383 54.1214 9.07195 53.9016L9.08073 56.0583H7.99219V49.9262H9.08073V50.7104C9.25277 50.4607 9.46665 50.2512 9.72187 50.082C9.97708 49.9127 10.2948 49.8281 10.6745 49.8281C10.9535 49.8281 11.2237 49.8818 11.4846 49.9886C11.746 50.0954 11.979 50.2548 12.1836 50.4653C12.3882 50.6764 12.553 50.9333 12.678 51.2362C12.8025 51.539 12.8651 51.8868 12.8651 52.2789C12.8651 52.671 12.8041 53.0188 12.6822 53.3216V53.3227ZM11.6691 51.6515C11.5978 51.4642 11.5011 51.3053 11.3792 51.1748C11.2573 51.0442 11.1142 50.9431 10.9509 50.8719C10.7872 50.8007 10.6131 50.7651 10.4286 50.7651C10.2442 50.7651 10.0685 50.8007 9.90217 50.8719C9.7353 50.9431 9.58961 51.0458 9.4651 51.1794C9.34008 51.313 9.24037 51.472 9.16597 51.6561C9.09158 51.8403 9.05438 52.0483 9.05438 52.2799C9.05438 52.5116 9.09158 52.7195 9.16597 52.9037C9.24037 53.0879 9.34008 53.2468 9.4651 53.3805C9.59013 53.5141 9.73582 53.6168 9.90217 53.688C10.0685 53.7592 10.2442 53.7948 10.4286 53.7948C10.6131 53.7948 10.7872 53.7592 10.9509 53.688C11.1147 53.6168 11.2573 53.5156 11.3792 53.3851C11.5011 53.2546 11.5978 53.0957 11.6691 52.9084C11.7403 52.7211 11.776 52.5116 11.776 52.2799C11.776 52.0483 11.7403 51.8388 11.6691 51.6515Z" fill="white"/>
<path d="M18.6587 53.3227C18.5368 53.6255 18.373 53.883 18.1679 54.0935C17.9628 54.3045 17.7278 54.4634 17.4627 54.5702C17.1977 54.677 16.9259 54.7307 16.6459 54.7307C16.259 54.7307 15.9376 54.6476 15.6819 54.481C15.4262 54.3149 15.2149 54.1214 15.0485 53.9016L15.0573 56.0583H13.9688V49.9262H15.0573V50.7104C15.2293 50.4607 15.4432 50.2512 15.6984 50.082C15.9536 49.9127 16.2714 49.8281 16.6511 49.8281C16.9301 49.8281 17.2003 49.8818 17.4612 49.9886C17.7226 50.0954 17.9556 50.2548 18.1602 50.4653C18.3648 50.6764 18.5296 50.9333 18.6546 51.2362C18.7791 51.539 18.8416 51.8868 18.8416 52.2789C18.8416 52.671 18.7807 53.0188 18.6587 53.3216V53.3227ZM17.6456 51.6515C17.5743 51.4642 17.4777 51.3053 17.3558 51.1748C17.2339 51.0442 17.0908 50.9431 16.9275 50.8719C16.7637 50.8007 16.5896 50.7651 16.4052 50.7651C16.2207 50.7651 16.0451 50.8007 15.8787 50.8719C15.7119 50.9431 15.5662 51.0458 15.4417 51.1794C15.3166 51.313 15.2169 51.472 15.1425 51.6561C15.0681 51.8403 15.0309 52.0483 15.0309 52.2799C15.0309 52.5116 15.0681 52.7195 15.1425 52.9037C15.2169 53.0879 15.3166 53.2468 15.4417 53.3805C15.5667 53.5141 15.7124 53.6168 15.8787 53.688C16.0451 53.7592 16.2207 53.7948 16.4052 53.7948C16.5896 53.7948 16.7637 53.7592 16.9275 53.688C17.0913 53.6168 17.2339 53.5156 17.3558 53.3851C17.4777 53.2546 17.5743 53.0957 17.6456 52.9084C17.7169 52.7211 17.7526 52.5116 17.7526 52.2799C17.7526 52.0483 17.7169 51.8388 17.6456 51.6515Z" fill="white"/>
<path d="M23.1847 53.8962C23.0953 54.0804 22.9718 54.2337 22.8142 54.3554C22.6567 54.4772 22.4707 54.5695 22.2563 54.632C22.0419 54.6944 21.813 54.7254 21.5692 54.7254C21.2302 54.7254 20.8867 54.666 20.5385 54.5468C20.1903 54.4282 19.8674 54.2528 19.5703 54.0211L20.0523 53.29C20.3081 53.4804 20.5684 53.6243 20.833 53.7224C21.0975 53.8204 21.3522 53.8694 21.596 53.8694C21.8399 53.8694 22.0078 53.8235 22.1359 53.7311C22.264 53.6393 22.3276 53.516 22.3276 53.3612V53.3431C22.3276 53.2539 22.2992 53.177 22.2428 53.1115C22.186 53.0459 22.109 52.9881 22.0109 52.9376C21.9127 52.887 21.7996 52.8427 21.672 52.804C21.5438 52.7653 21.4116 52.7255 21.2747 52.6837C21.1021 52.6301 20.928 52.5707 20.7524 52.5057C20.5767 52.4402 20.4191 52.3556 20.2791 52.2519C20.1391 52.1482 20.0249 52.0202 19.9356 51.8685C19.8462 51.7168 19.8018 51.5285 19.8018 51.3025V51.2845C19.8018 51.0647 19.8446 50.8655 19.9309 50.6875C20.0172 50.509 20.136 50.3578 20.2879 50.233C20.4398 50.1081 20.618 50.0132 20.8231 49.9476C21.0282 49.8821 21.2473 49.8496 21.4793 49.8496C21.7768 49.8496 22.077 49.8971 22.3808 49.992C22.684 50.0869 22.961 50.218 23.2105 50.3841L22.7822 51.1508C22.5559 51.0141 22.3271 50.9058 22.0951 50.8258C21.8631 50.7458 21.6487 50.7056 21.4524 50.7056C21.2442 50.7056 21.082 50.7499 20.9663 50.8392C20.8505 50.9285 20.7921 51.0415 20.7921 51.1777V51.1957C20.7921 51.2788 20.8221 51.3515 20.8815 51.414C20.9409 51.4764 21.02 51.5326 21.1181 51.5832C21.2163 51.6338 21.3294 51.6812 21.457 51.7256C21.5852 51.77 21.7174 51.8133 21.8543 51.8546C22.0269 51.9083 22.1995 51.9707 22.372 52.0419C22.5446 52.1131 22.7006 52.2008 22.8406 52.305C22.9801 52.4093 23.0948 52.5351 23.1841 52.6837C23.2735 52.8323 23.318 53.0134 23.318 53.2276V53.2451C23.318 53.4948 23.2735 53.7115 23.1841 53.8957L23.1847 53.8962Z" fill="white"/>
</g>
<line x1="145.814" y1="3.4056e-08" x2="145.814" y2="62.3289" stroke="white" stroke-opacity="0.5" stroke-width="1.55822"/>
<g clip-path="url(#clip1_2111_51162)">
<path d="M174.385 47.4771C172.894 47.025 172.241 46.7382 172.241 45.8852C172.241 45.1219 173.257 44.851 174.128 44.851C174.889 44.851 175.708 45.0774 176.264 45.4415C176.395 45.527 176.557 45.553 176.708 45.5111C176.859 45.4708 176.987 45.366 177.057 45.2259L177.31 44.7193C177.435 44.4693 177.353 44.1657 177.119 44.0122C176.318 43.4888 175.182 43.1642 174.154 43.1642C171.993 43.1642 170.541 44.2739 170.541 45.9254C170.541 48.071 172.353 48.6137 173.807 49.0507C175.33 49.507 175.996 49.8005 175.988 50.7072C175.988 51.6173 174.917 51.9411 173.915 51.9411C172.954 51.9411 171.909 51.4302 171.274 50.8439C171.148 50.7274 170.984 50.6603 170.815 50.6796C170.645 50.6988 170.493 50.797 170.405 50.9446L170.113 51.4378C169.983 51.655 170.019 51.9327 170.199 52.1105C171.141 53.0382 172.559 53.6152 173.901 53.6152C176.166 53.6152 177.687 52.4401 177.687 50.698C177.705 48.4845 175.864 47.9259 174.385 47.4771Z" fill="white"/>
<path d="M184.36 43.514C184.27 43.3186 184.075 43.1927 183.859 43.1927H183.26C183.044 43.1927 182.848 43.3186 182.759 43.5157L178.538 52.8251C178.46 52.9962 178.475 53.1934 178.575 53.351C178.678 53.5096 178.851 53.6035 179.038 53.6035H179.65C179.867 53.6035 180.063 53.4769 180.152 53.2798L181.205 50.953H185.943L187.008 53.2823C187.098 53.4777 187.293 53.6035 187.508 53.6035H188.121C188.309 53.6035 188.483 53.5079 188.584 53.3502C188.686 53.1934 188.699 52.9954 188.621 52.8235L184.36 43.514ZM181.942 49.2923L183.555 45.7149L185.187 49.2923H181.942Z" fill="white"/>
<path d="M191.386 43.1936H190.828C190.524 43.1936 190.277 43.4402 190.277 43.7438V53.0533C190.277 53.3578 190.524 53.6035 190.828 53.6035H191.386C191.69 53.6035 191.936 53.3578 191.936 53.0533V43.7438C191.936 43.4402 191.69 43.1936 191.386 43.1936Z" fill="white"/>
<path d="M202.996 43.1936H202.45C202.144 43.1936 201.899 43.4402 201.899 43.7438V50.5244L196.674 43.4175C196.57 43.2758 196.405 43.1936 196.23 43.1936H195.578C195.273 43.1936 195.027 43.4402 195.027 43.7438V53.0533C195.027 53.3578 195.273 53.6035 195.578 53.6035H196.136C196.441 53.6035 196.687 53.3578 196.687 53.0533V46.2761L201.899 53.3804C202.002 53.5205 202.167 53.6035 202.343 53.6035H202.996C203.299 53.6035 203.546 53.3578 203.546 53.0533V43.7438C203.546 43.4402 203.299 43.1936 202.996 43.1936Z" fill="white"/>
<path d="M212.599 43.1936H205.752C205.449 43.1936 205.203 43.4402 205.203 43.7438V44.2907C205.203 44.5935 205.449 44.8401 205.752 44.8401H208.347V53.0533C208.347 53.3578 208.593 53.6035 208.897 53.6035H209.454C209.76 53.6035 210.006 53.3578 210.006 53.0533V44.8401H212.599C212.903 44.8401 213.149 44.5935 213.149 44.2907V43.7438C213.149 43.4402 212.903 43.1936 212.599 43.1936Z" fill="white"/>
<path d="M216.697 48.2689H213.726C213.422 48.2689 213.176 48.5146 213.176 48.8191V49.272C213.176 49.5765 213.422 49.8223 213.726 49.8223H216.697C217 49.8223 217.246 49.5765 217.246 49.272V48.8191C217.246 48.5146 217 48.2689 216.697 48.2689Z" fill="white"/>
<path d="M228.263 47.9334H227.756C227.754 47.9334 227.75 47.9343 227.747 47.9343H226.095C225.79 47.9343 225.544 48.1809 225.544 48.4845V49.044C225.544 49.3476 225.79 49.5942 226.095 49.5942H227.207V51.296C226.558 51.7406 225.779 51.9822 224.987 51.9822C222.933 51.9822 221.262 50.3717 221.262 48.3914C221.262 46.4178 222.933 44.8124 224.987 44.8124C225.94 44.8124 226.879 45.1638 227.562 45.777C227.675 45.8776 227.824 45.9288 227.974 45.9162C228.125 45.9045 228.264 45.8306 228.358 45.7132L228.691 45.3005C228.876 45.0699 228.848 44.7344 228.625 44.5398C227.625 43.6633 226.332 43.1785 224.987 43.1785C222.018 43.1785 219.602 45.5161 219.602 48.3914C219.602 51.2726 222.005 53.6152 224.96 53.6152C226.296 53.6152 227.629 53.1254 228.622 52.2707C228.743 52.1667 228.814 52.014 228.814 51.853V48.4837C228.814 48.1809 228.566 47.9334 228.263 47.9334Z" fill="white"/>
<path d="M236.066 43.1785C233.105 43.1785 230.695 45.5161 230.695 48.3906C230.695 51.2726 233.105 53.6152 236.066 53.6152C239.028 53.6152 241.438 51.2726 241.438 48.3906C241.438 45.5161 239.028 43.1785 236.066 43.1785ZM236.066 51.9687C234.027 51.9687 232.368 50.3633 232.368 48.3906C232.368 46.4245 234.027 44.8258 236.066 44.8258C238.105 44.8258 239.764 46.4245 239.764 48.3906C239.764 50.3633 238.105 51.9687 236.066 51.9687Z" fill="white"/>
<path d="M250.253 48.1037C250.814 47.6214 251.125 46.911 251.125 46.0471C251.125 44.2865 249.801 43.1927 247.671 43.1927H243.862C243.559 43.1927 243.312 43.4393 243.312 43.743V53.0533C243.312 53.3569 243.559 53.6035 243.862 53.6035H247.698C250.136 53.6035 251.59 52.462 251.59 50.5504C251.59 49.4684 251.101 48.6078 250.253 48.1037ZM247.658 47.4151H244.971V44.8401H247.658C248.481 44.8401 249.465 45.0607 249.465 46.1142C249.465 46.9773 248.857 47.4151 247.658 47.4151ZM244.971 49.0616H247.658C248.506 49.0616 249.931 49.2461 249.931 50.4825C249.931 51.7012 248.695 51.957 247.658 51.957H244.971V49.0616Z" fill="white"/>
<path d="M258.349 43.514C258.259 43.3186 258.063 43.1927 257.848 43.1927H257.249C257.032 43.1927 256.837 43.3186 256.747 43.5157L252.526 52.8251C252.449 52.9962 252.463 53.1934 252.565 53.351C252.667 53.5096 252.84 53.6035 253.028 53.6035H253.64C253.857 53.6035 254.053 53.4769 254.142 53.2798L255.194 50.953H259.931L260.996 53.2823C261.086 53.4777 261.282 53.6035 261.497 53.6035H262.109C262.296 53.6035 262.472 53.5079 262.572 53.3502C262.674 53.1934 262.688 52.9954 262.61 52.8235L258.349 43.514ZM255.931 49.2923L257.544 45.7149L259.176 49.2923H255.931Z" fill="white"/>
<path d="M265.368 43.1936H264.809C264.505 43.1936 264.258 43.4402 264.258 43.7438V53.0533C264.258 53.3578 264.505 53.6035 264.809 53.6035H265.368C265.672 53.6035 265.92 53.3578 265.92 53.0533V43.7438C265.92 43.4402 265.672 43.1936 265.368 43.1936Z" fill="white"/>
<path d="M276.977 43.1936H276.43C276.127 43.1936 275.881 43.4402 275.881 43.7438V50.5244L270.655 43.4175C270.552 43.2758 270.387 43.1936 270.211 43.1936H269.559C269.254 43.1936 269.008 43.4402 269.008 43.7438V53.0533C269.008 53.3578 269.254 53.6035 269.559 53.6035H270.118C270.422 53.6035 270.668 53.3578 270.668 53.0533V46.2761L275.881 53.3804C275.984 53.5205 276.148 53.6035 276.324 53.6035H276.977C277.281 53.6035 277.526 53.3578 277.526 53.0533V43.7438C277.526 43.4402 277.281 43.1936 276.977 43.1936Z" fill="white"/>
<path d="M230.46 28.5845V37.7371H228.775V27.3255L230.46 28.5845ZM263.124 37.7069H256.496L256.449 37.6608L250.619 31.8942C250.382 31.6594 250.016 31.5872 249.707 31.7164C249.393 31.8473 249.19 32.1509 249.19 32.4906V37.7371H247.458V24.7538C247.458 24.524 247.362 24.3017 247.195 24.144L242.352 19.5694C242.196 19.4218 241.99 19.3404 241.775 19.3404H239.354C238.891 19.3404 238.515 19.717 238.515 20.1792V37.7371H236.796V9.54948C236.796 9.20726 236.592 8.9028 236.275 8.77363C235.965 8.64613 235.593 8.72329 235.36 8.96066L227.338 17.1009C227.182 17.2586 227.097 17.4683 227.097 17.6897V23.978L223.812 21.5254C223.514 21.3031 223.076 21.3107 222.786 21.543L215.318 27.5301C215.119 27.6903 215.005 27.9294 215.005 28.1852V37.7371H213.312V32.4721C213.312 30.6235 212.039 28.6583 209.681 28.6583C207.323 28.6583 206.051 30.6327 206.051 32.4906V37.7371L204.339 37.7362V34.1648C204.339 32.7171 203.343 31.1796 201.496 31.1796C199.649 31.1796 198.653 32.7187 198.653 34.1681V37.7379L196.948 37.7388L196.947 37.5802C196.944 36.8606 196.942 35.9388 196.942 35.5689C196.942 34.3392 195.781 33.2614 194.458 33.2614C193.134 33.2614 191.973 34.3342 191.973 35.558V37.7371L184.496 37.7362C184.033 37.7362 183.657 38.1128 183.656 38.575C183.656 38.7998 183.743 39.0103 183.902 39.1689C184.061 39.3274 184.271 39.4146 184.495 39.4146L192.812 39.4155C193.036 39.4155 193.247 39.3282 193.405 39.1697C193.564 39.0112 193.652 38.8006 193.652 38.5767V35.7098C193.652 35.3994 193.99 34.939 194.458 34.939C194.919 34.939 195.264 35.36 195.264 35.7366C195.264 35.9522 195.273 38.5817 195.273 38.5817C195.275 39.043 195.651 39.418 196.112 39.418L199.492 39.4155C199.954 39.4155 200.331 39.0388 200.331 38.5767V34.1681C200.331 33.7144 200.574 32.8571 201.496 32.8571C202.418 32.8571 202.662 33.7118 202.662 34.1648V38.5742C202.662 39.0372 203.037 39.4138 203.5 39.4138L206.889 39.4155C207.11 39.4155 207.326 39.3257 207.482 39.1697C207.638 39.0137 207.728 38.7973 207.728 38.5767V32.4906C207.728 31.7458 208.137 30.3358 209.681 30.3358C211.114 30.3358 211.634 31.6132 211.634 32.4721V38.5767C211.634 39.0388 212.011 39.4155 212.473 39.4155H215.843C216.306 39.4155 216.682 39.0388 216.682 38.5767V28.5878L216.742 28.5392L223.329 23.2583L227.097 26.0723V38.5767C227.097 39.0388 227.473 39.4155 227.935 39.4155H231.299C231.762 39.4155 232.138 39.0388 232.138 38.5767V28.1634C232.138 27.9009 232.011 27.6492 231.801 27.4915L228.775 25.2311V18.0336L228.821 17.9866L235.118 11.5961V38.5767C235.118 39.0388 235.495 39.4155 235.957 39.4155H239.354C239.816 39.4155 240.193 39.0388 240.193 38.5767V21.0179H241.442L241.488 21.0616L245.78 25.1153V38.5767C245.78 39.0388 246.157 39.4155 246.619 39.4155H250.029C250.492 39.4155 250.868 39.0388 250.868 38.5767V34.5003L255.561 39.142C255.719 39.298 255.929 39.3844 256.15 39.3844H263.124C263.587 39.3844 263.964 39.0078 263.964 38.5457C263.964 38.0827 263.587 37.7069 263.124 37.7069Z" fill="url(#paint0_linear_2111_51162)"/>
<path d="M230.46 28.5845V37.7371H228.775V27.3255L230.46 28.5845ZM263.124 37.7069H256.496L256.449 37.6608L250.619 31.8942C250.382 31.6594 250.016 31.5872 249.707 31.7164C249.393 31.8473 249.19 32.1509 249.19 32.4906V37.7371H247.458V24.7538C247.458 24.524 247.362 24.3017 247.195 24.144L242.352 19.5694C242.196 19.4218 241.99 19.3404 241.775 19.3404H239.354C238.891 19.3404 238.515 19.717 238.515 20.1792V37.7371H236.796V9.54948C236.796 9.20726 236.592 8.9028 236.275 8.77363C235.965 8.64613 235.593 8.72329 235.36 8.96066L227.338 17.1009C227.182 17.2586 227.097 17.4683 227.097 17.6897V23.978L223.812 21.5254C223.514 21.3031 223.076 21.3107 222.786 21.543L215.318 27.5301C215.119 27.6903 215.005 27.9294 215.005 28.1852V37.7371H213.312V32.4721C213.312 30.6235 212.039 28.6583 209.681 28.6583C207.323 28.6583 206.051 30.6327 206.051 32.4906V37.7371L204.339 37.7362V34.1648C204.339 32.7171 203.343 31.1796 201.496 31.1796C199.649 31.1796 198.653 32.7187 198.653 34.1681V37.7379L196.948 37.7388L196.947 37.5802C196.944 36.8606 196.942 35.9388 196.942 35.5689C196.942 34.3392 195.781 33.2614 194.458 33.2614C193.134 33.2614 191.973 34.3342 191.973 35.558V37.7371L184.496 37.7362C184.033 37.7362 183.657 38.1128 183.656 38.575C183.656 38.7998 183.743 39.0103 183.902 39.1689C184.061 39.3274 184.271 39.4146 184.495 39.4146L192.812 39.4155C193.036 39.4155 193.247 39.3282 193.405 39.1697C193.564 39.0112 193.652 38.8006 193.652 38.5767V35.7098C193.652 35.3994 193.99 34.939 194.458 34.939C194.919 34.939 195.264 35.36 195.264 35.7366C195.264 35.9522 195.273 38.5817 195.273 38.5817C195.275 39.043 195.651 39.418 196.112 39.418L199.492 39.4155C199.954 39.4155 200.331 39.0388 200.331 38.5767V34.1681C200.331 33.7144 200.574 32.8571 201.496 32.8571C202.418 32.8571 202.662 33.7118 202.662 34.1648V38.5742C202.662 39.0372 203.037 39.4138 203.5 39.4138L206.889 39.4155C207.11 39.4155 207.326 39.3257 207.482 39.1697C207.638 39.0137 207.728 38.7973 207.728 38.5767V32.4906C207.728 31.7458 208.137 30.3358 209.681 30.3358C211.114 30.3358 211.634 31.6132 211.634 32.4721V38.5767C211.634 39.0388 212.011 39.4155 212.473 39.4155H215.843C216.306 39.4155 216.682 39.0388 216.682 38.5767V28.5878L216.742 28.5392L223.329 23.2583L227.097 26.0723V38.5767C227.097 39.0388 227.473 39.4155 227.935 39.4155H231.299C231.762 39.4155 232.138 39.0388 232.138 38.5767V28.1634C232.138 27.9009 232.011 27.6492 231.801 27.4915L228.775 25.2311V18.0336L228.821 17.9866L235.118 11.5961V38.5767C235.118 39.0388 235.495 39.4155 235.957 39.4155H239.354C239.816 39.4155 240.193 39.0388 240.193 38.5767V21.0179H241.442L241.488 21.0616L245.78 25.1153V38.5767C245.78 39.0388 246.157 39.4155 246.619 39.4155H250.029C250.492 39.4155 250.868 39.0388 250.868 38.5767V34.5003L255.561 39.142C255.719 39.298 255.929 39.3844 256.15 39.3844H263.124C263.587 39.3844 263.964 39.0078 263.964 38.5457C263.964 38.0827 263.587 37.7069 263.124 37.7069Z" fill="white"/>
</g>
<defs>
<linearGradient id="paint0_linear_2111_51162" x1="183.561" y1="24.0652" x2="264.186" y2="24.0652" gradientUnits="userSpaceOnUse">
<stop stop-color="#54B6AE"/>
<stop offset="0.1" stop-color="#54B6AE"/>
<stop offset="0.3" stop-color="#3B98DA"/>
<stop offset="0.42" stop-color="#254A9A"/>
<stop offset="0.55" stop-color="#ED1443"/>
<stop offset="0.84" stop-color="#F25C19"/>
<stop offset="1" stop-color="#F25C19"/>
</linearGradient>
<clipPath id="clip0_2111_51162">
<rect width="120" height="48" fill="white" transform="translate(0.0351562 7.16406)"/>
</clipPath>
<clipPath id="clip1_2111_51162">
<rect width="107.495" height="48.1806" fill="white" transform="translate(170.035 7.07422)"/>
</clipPath>
</defs>
</svg>
