<svg width="201" height="45" viewBox="0 0 201 45" fill="none" xmlns="http://www.w3.org/2000/svg">
<g clip-path="url(#clip0_403_27916)">
<path fill-rule="evenodd" clip-rule="evenodd" d="M80.9318 27.4374C77.5981 27.4374 74.9183 26.5956 72.9811 24.9372C71.0439 23.2914 70.0625 21.03 70.0625 18.2409C70.0625 16.708 70.4147 15.2761 71.1067 13.9816C71.7988 12.6749 72.8052 11.582 74.0754 10.7024C74.931 10.1246 75.8997 9.69735 76.9311 9.43345C77.9754 9.16956 79.3089 9.03125 80.9063 9.03125H82.1519V10.1492H80.5792C77.8743 10.1492 75.6477 10.9031 73.962 12.3983C72.2636 13.8934 71.4084 15.8658 71.4084 18.2405C71.4084 20.6151 72.2763 22.5748 73.9748 24.07C75.6732 25.5651 77.8998 26.319 80.5792 26.319H82.1519V27.437H80.9318V27.4374Z" fill="white"/>
<path d="M67.7251 17.6094H56.4531V18.8907H67.7251V17.6094Z" fill="white"/>
<path fill-rule="evenodd" clip-rule="evenodd" d="M63.8464 16.2789H65.18C65.0666 15.6883 64.9034 15.1105 64.677 14.5576C64.4255 13.9293 64.0983 13.3391 63.7207 12.7736C63.4063 12.3086 63.0541 11.869 62.6514 11.4545C61.7835 10.5627 60.777 9.87157 59.6572 9.40657C58.5378 8.94157 57.3423 8.70312 56.1095 8.70312C54.8766 8.70312 53.6816 8.94198 52.5617 9.40657C51.4546 9.87157 50.4359 10.5623 49.5675 11.4545C48.6745 12.3841 47.9825 13.4397 47.5169 14.5954C47.0513 15.7511 46.8125 16.97 46.8125 18.2263V18.2514C46.8125 19.5076 47.0517 20.7265 47.5169 21.8823C47.9825 23.0257 48.6741 24.0808 49.5675 25.0231C50.4354 25.915 51.4419 26.6061 52.5617 27.0711C53.6811 27.5361 54.8766 27.7745 56.1095 27.7745C57.3423 27.7745 58.5374 27.5357 59.6572 27.0711C60.7766 26.6061 61.783 25.9154 62.6514 25.0231C63.0541 24.6086 63.4063 24.1687 63.7207 23.7041C64.0979 23.1513 64.4251 22.5484 64.677 21.92C64.9034 21.3672 65.067 20.7893 65.18 20.1988H63.8464C63.733 20.7766 63.5193 21.3294 63.2801 21.8695C63.0665 22.3596 62.7895 22.8246 62.4751 23.2641C62.3744 23.4024 62.2737 23.528 62.173 23.6663C62.0345 23.8424 61.8965 24.0057 61.7329 24.1687C60.198 25.7894 58.3109 26.6184 56.1095 26.6184C53.908 26.6184 51.9958 25.8017 50.4482 24.1687C48.926 22.5607 48.146 20.5628 48.1333 18.2386C48.1333 15.9145 48.9133 13.9166 50.4482 12.3086C51.9831 10.6879 53.8825 9.85884 56.1095 9.85884C58.3364 9.85884 60.2107 10.6879 61.7329 12.3086C62.035 12.6353 62.3115 12.9743 62.563 13.3514C62.9152 13.8665 63.2045 14.4066 63.4186 14.9849C63.5571 15.3616 63.6701 15.7388 63.7959 16.1156C63.8086 16.1784 63.8337 16.2284 63.846 16.2789" fill="white"/>
<path fill-rule="evenodd" clip-rule="evenodd" d="M34.8089 27.7906C32.1546 27.7906 29.9153 26.8861 28.179 25.0893C26.4432 23.2925 25.5625 20.9934 25.5625 18.242C25.5625 16.948 25.7889 15.7167 26.2291 14.5733C26.6692 13.4299 27.3234 12.387 28.179 11.4825C29.0346 10.578 30.0534 9.87451 31.1855 9.39679C32.3177 8.91948 33.5633 8.68062 34.8969 8.68062C36.0796 8.68062 37.2117 8.89403 38.2683 9.30896C39.3125 9.72348 40.2939 10.3268 41.1996 11.1308V12.7515C40.344 11.8469 39.4132 11.1558 38.4446 10.6785C37.3502 10.1507 36.1552 9.88682 34.8845 9.88682C32.5951 9.88682 30.6702 10.6908 29.1731 12.2738C27.676 13.8567 26.9211 15.8797 26.9211 18.2916C26.9211 20.7036 27.6884 22.7015 29.2105 24.2972C30.7327 25.8929 32.6448 26.6969 34.8969 26.6969C37.2997 26.6969 39.2369 25.8424 40.6711 24.1466C42.0926 22.4631 42.8225 20.1639 42.8225 17.312V0H44.1054V17.1495C44.1054 18.519 44.0048 19.6998 43.8034 20.6798C43.602 21.6472 43.2749 22.5016 42.8348 23.2301C41.9418 24.6875 40.7841 25.8182 39.4005 26.5971C38.0041 27.3888 36.4568 27.7906 34.8089 27.7906Z" fill="white"/>
<path fill-rule="evenodd" clip-rule="evenodd" d="M20.3666 27.4371V16.4943C20.3666 14.5219 19.788 12.8885 18.6431 11.6572C17.4982 10.426 15.976 9.79765 14.1518 9.79765C12.3276 9.79765 10.8054 10.426 9.66053 11.6572C8.51562 12.8885 7.937 14.5092 7.937 16.4943V27.4371H6.69141V16.9967C6.69141 14.4587 7.37071 12.4112 8.72931 10.916C10.0756 9.43361 11.8994 8.67969 14.1514 8.67969C16.4034 8.67969 18.2272 9.43361 19.5735 10.916C20.9198 12.4112 21.6114 14.4591 21.6114 16.9967V27.4371H20.3658H20.3666Z" fill="white"/>
<path d="M1.44705 9.01953H0.164062V27.438H1.44705V9.01953Z" fill="white"/>
<path d="M21.5938 39.1307V32.5625H22.2825V39.1307H21.5938Z" fill="white"/>
<path d="M44.4531 39.1307V32.5625H45.1419V39.1307H44.4531Z" fill="white"/>
<path d="M52.7123 37.6106C52.5726 37.7168 52.4222 37.8092 52.2615 37.8872C52.1004 37.9651 51.9241 38.0242 51.7326 38.0645C51.5411 38.1047 51.329 38.1248 51.0973 38.1248C50.7327 38.1248 50.397 38.0587 50.0892 37.9262C49.7814 37.794 49.5151 37.613 49.2907 37.384C49.0659 37.155 48.8896 36.8841 48.7618 36.5722C48.634 36.2603 48.5703 35.9246 48.5703 35.5655C48.5703 35.2064 48.6332 34.8776 48.7585 34.5657C48.8839 34.2538 49.0602 33.9809 49.2874 33.7469C49.5147 33.513 49.7843 33.3287 50.0966 33.1941C50.4089 33.0595 50.7541 32.9922 51.133 32.9922C51.3603 32.9922 51.567 33.0111 51.7544 33.0488C51.9414 33.0866 52.1127 33.1399 52.2689 33.2085C52.425 33.277 52.5693 33.3587 52.702 33.4531C52.8343 33.5475 52.9601 33.6517 53.0785 33.765L52.5175 34.4102C52.3186 34.2259 52.1082 34.0769 51.8859 33.9636C51.6631 33.8504 51.4104 33.7933 51.1264 33.7933C50.8897 33.7933 50.6711 33.8393 50.4697 33.9316C50.2684 34.024 50.0945 34.1491 49.9478 34.3076C49.8011 34.466 49.6877 34.6515 49.6071 34.8641C49.5266 35.0767 49.4863 35.3061 49.4863 35.5519C49.4863 35.7978 49.5266 36.028 49.6071 36.2431C49.6877 36.4581 49.8011 36.6461 49.9478 36.8066C50.0945 36.9674 50.2684 37.0938 50.4697 37.1858C50.6707 37.2781 50.8897 37.3241 51.1264 37.3241C51.4293 37.3241 51.6894 37.2662 51.9072 37.1505C52.125 37.0347 52.3404 36.8776 52.5533 36.6789L53.1142 37.2461C52.9864 37.3832 52.8528 37.5051 52.7131 37.6114L52.7123 37.6106Z" fill="white"/>
<path d="M55.8568 38.1426C55.7812 38.3363 55.7031 38.4993 55.6226 38.6318C55.542 38.764 55.452 38.8715 55.353 38.9544C55.2535 39.0369 55.1446 39.0972 55.0263 39.1354C54.9079 39.1732 54.7731 39.1921 54.6215 39.1921C54.4415 39.1921 54.282 39.1715 54.1423 39.1313C54.0026 39.0907 53.8666 39.0345 53.7342 38.963L54.0252 38.3199C54.1057 38.3626 54.1871 38.3967 54.2701 38.4225C54.3527 38.4484 54.4394 38.4615 54.529 38.4615C54.6519 38.4615 54.7538 38.4307 54.8344 38.3696C54.9149 38.308 54.9905 38.1948 55.0616 38.0298L53.5 34.293H54.4156L55.4804 37.0719L56.4531 34.293H57.3477L55.8568 38.1426Z" fill="white"/>
<path d="M61.8244 36.9965C61.7274 37.2374 61.5971 37.4422 61.434 37.6097C61.2708 37.7776 61.0838 37.904 60.873 37.9889C60.6622 38.0739 60.446 38.1166 60.2233 38.1166C59.9155 38.1166 59.6599 38.0505 59.4565 37.9179C59.253 37.7858 59.085 37.6319 58.9526 37.457L58.9596 38.0386H58.0938V32.8633H58.9596V34.9194C59.0965 34.7208 59.2666 34.5542 59.4696 34.4196C59.6726 34.2849 59.9254 34.2176 60.2274 34.2176C60.4493 34.2176 60.6642 34.2603 60.8718 34.3453C61.0793 34.4302 61.2651 34.5571 61.4278 34.7245C61.5905 34.8924 61.7216 35.0967 61.8211 35.3377C61.9201 35.5786 61.9698 35.8552 61.9698 36.1671C61.9698 36.479 61.9214 36.7556 61.8244 36.9965ZM61.0185 35.6672C60.9618 35.5182 60.8845 35.3918 60.7879 35.288C60.691 35.1842 60.5771 35.1037 60.4473 35.0471C60.317 34.9904 60.1785 34.9621 60.0318 34.9621C59.8851 34.9621 59.7454 34.9904 59.613 35.0471C59.4803 35.1037 59.3644 35.1854 59.2654 35.2917C59.1659 35.398 59.0866 35.5244 59.0274 35.6709C58.9683 35.8174 58.9387 35.9828 58.9387 36.1671C58.9387 36.3514 58.9683 36.5168 59.0274 36.6633C59.0866 36.8098 59.1659 36.9362 59.2654 37.0425C59.3648 37.1488 59.4807 37.2305 59.613 37.2871C59.7454 37.3437 59.8851 37.3721 60.0318 37.3721C60.1785 37.3721 60.317 37.3437 60.4473 37.2871C60.5775 37.2305 60.691 37.15 60.7879 37.0462C60.8849 36.9424 60.9618 36.816 61.0185 36.667C61.0752 36.518 61.1036 36.3514 61.1036 36.1671C61.1036 35.9828 61.0752 35.8162 61.0185 35.6672Z" fill="white"/>
<path d="M63.8655 37.1747C64.0594 37.3377 64.2961 37.4193 64.5752 37.4193C64.788 37.4193 64.9726 37.3816 65.1287 37.3061C65.2849 37.2305 65.4386 37.1193 65.5902 36.9728L66.0941 37.4193C65.9141 37.6319 65.7 37.8023 65.4517 37.9299C65.2035 38.0575 64.9064 38.1211 64.5608 38.1211C64.2912 38.1211 64.0389 38.0739 63.8046 37.9791C63.5704 37.8847 63.367 37.7522 63.194 37.5823C63.021 37.412 62.8853 37.2076 62.7859 36.9691C62.6864 36.7307 62.6367 36.4647 62.6367 36.1717C62.6367 35.9025 62.6815 35.6496 62.7715 35.4132C62.8615 35.1768 62.9881 34.97 63.1512 34.7927C63.3144 34.6154 63.5071 34.475 63.7298 34.3708C63.9522 34.267 64.1983 34.2148 64.4679 34.2148C64.7659 34.2148 65.0276 34.2694 65.2524 34.3778C65.4772 34.4865 65.6642 34.6331 65.8134 34.8173C65.9625 35.0016 66.0747 35.2167 66.1508 35.4625C66.2264 35.7083 66.2642 35.9657 66.2642 36.2353C66.2642 36.2731 66.263 36.3108 66.2605 36.3486C66.258 36.3863 66.2543 36.4266 66.2498 36.4692H63.4956C63.5478 36.7766 63.6707 37.0114 63.8646 37.1747H63.8655ZM65.4131 35.902C65.3991 35.765 65.3679 35.6361 65.3206 35.5158C65.2734 35.3952 65.2093 35.2914 65.1291 35.2039C65.0486 35.1165 64.9528 35.0467 64.8415 34.9946C64.7301 34.9425 64.6035 34.9166 64.4618 34.9166C64.1967 34.9166 63.9777 35.0078 63.8051 35.1896C63.632 35.3714 63.5268 35.609 63.489 35.902H65.4127H65.4131Z" fill="white"/>
<path d="M67.9987 38.0422H67.1328V34.2988H67.9987V35.1426C68.117 34.859 68.2851 34.6321 68.5025 34.4622C68.7203 34.2919 68.9948 34.2139 69.3261 34.2282V35.1357H69.2763C69.0869 35.1357 68.9143 35.1664 68.7581 35.228C68.602 35.2896 68.4672 35.3815 68.3533 35.5046C68.2399 35.6277 68.152 35.7825 68.0907 35.9688C68.0291 36.1555 67.9983 36.3718 67.9983 36.6177V38.0426L67.9987 38.0422Z" fill="white"/>
<path d="M70.9469 34.6271C70.9802 34.6981 71.0406 34.7642 71.1286 34.8257C71.2161 34.8873 71.3374 34.9439 71.4915 34.996C71.6456 35.0482 71.8416 35.1023 72.0787 35.159C72.3397 35.2251 72.571 35.2985 72.7728 35.379C72.9746 35.4594 73.1414 35.5575 73.2746 35.6732C73.4073 35.789 73.5084 35.924 73.577 36.0775C73.6457 36.231 73.6802 36.412 73.6802 36.6196C73.6802 36.856 73.6366 37.0662 73.5499 37.2504C73.4632 37.4347 73.3424 37.5907 73.1875 37.7183C73.0325 37.8459 72.8464 37.9428 72.6294 38.0089C72.412 38.075 72.1732 38.1082 71.9131 38.1082C71.5297 38.1082 71.1631 38.0434 70.8126 37.9133C70.4624 37.7832 70.1382 37.5837 69.8398 37.3141L70.365 36.6902C70.6063 36.8983 70.85 37.058 71.0961 37.1688C71.3423 37.28 71.6213 37.3354 71.9336 37.3354C72.2032 37.3354 72.4173 37.2788 72.576 37.1651C72.7346 37.0518 72.8139 36.8983 72.8139 36.7042C72.8139 36.6143 72.7983 36.5339 72.7675 36.4633C72.7366 36.3927 72.6795 36.3274 72.5965 36.2683C72.5135 36.2092 72.3997 36.1538 72.255 36.1017C72.1104 36.0496 71.9217 35.9954 71.6891 35.9388C71.4232 35.8772 71.1874 35.8087 70.9811 35.7331C70.7748 35.6576 70.6013 35.5628 70.4616 35.4496C70.3215 35.3363 70.2146 35.1992 70.1411 35.0383C70.0675 34.8778 70.0309 34.6817 70.0309 34.4498C70.0309 34.2327 70.0733 34.0349 70.1575 33.858C70.2422 33.6807 70.3581 33.5284 70.506 33.4008C70.6539 33.2731 70.8315 33.175 71.0394 33.1065C71.2474 33.038 71.4742 33.0039 71.7204 33.0039C72.0849 33.0039 72.4124 33.0573 72.7034 33.1636C72.9943 33.2699 73.2676 33.4246 73.5232 33.6277L73.0547 34.2873C72.8275 34.1219 72.6027 33.9955 72.3803 33.908C72.158 33.8206 71.9332 33.7767 71.706 33.7767C71.4504 33.7767 71.2515 33.8346 71.1097 33.9503C70.9675 34.0661 70.8968 34.2068 70.8968 34.3722C70.8968 34.4715 70.9133 34.5565 70.9465 34.6275L70.9469 34.6271Z" fill="white"/>
<path d="M75.6272 37.1747C75.8211 37.3377 76.0579 37.4193 76.3369 37.4193C76.5498 37.4193 76.7343 37.3816 76.8904 37.3061C77.0466 37.2305 77.2003 37.1193 77.3519 36.9728L77.8558 37.4193C77.6758 37.6319 77.4617 37.8023 77.2135 37.9299C76.9652 38.0575 76.6681 38.1211 76.3225 38.1211C76.0529 38.1211 75.8006 38.0739 75.5664 37.9791C75.3321 37.8847 75.1287 37.7522 74.9557 37.5823C74.7827 37.412 74.6471 37.2076 74.5476 36.9691C74.4482 36.7307 74.3984 36.4647 74.3984 36.1717C74.3984 35.9025 74.4432 35.6496 74.5332 35.4132C74.6232 35.1768 74.7498 34.97 74.9129 34.7927C75.0761 34.6154 75.2688 34.475 75.4916 34.3708C75.7139 34.267 75.96 34.2148 76.2296 34.2148C76.5276 34.2148 76.7893 34.2694 77.0141 34.3778C77.2389 34.4865 77.4259 34.6331 77.5751 34.8173C77.7243 35.0016 77.8365 35.2167 77.9125 35.4625C77.9881 35.7083 78.0259 35.9657 78.0259 36.2353C78.0259 36.2731 78.0247 36.3108 78.0222 36.3486C78.0197 36.3863 78.016 36.4266 78.0115 36.4692H75.2573C75.3095 36.7766 75.4324 37.0114 75.6264 37.1747H75.6272ZM77.1748 35.902C77.1608 35.765 77.1296 35.6361 77.0824 35.5158C77.0351 35.3952 76.971 35.2914 76.8909 35.2039C76.8103 35.1165 76.7146 35.0467 76.6032 34.9946C76.4918 34.9425 76.3652 34.9166 76.2235 34.9166C75.9584 34.9166 75.7394 35.0078 75.5668 35.1896C75.3938 35.3714 75.2886 35.609 75.2508 35.902H77.1744H77.1748Z" fill="white"/>
<path d="M81.5381 37.9262C81.3014 38.0563 81.001 38.1211 80.6364 38.1211C80.357 38.1211 80.0993 38.0703 79.8626 37.9689C79.6259 37.8671 79.4204 37.728 79.2462 37.5507C79.0719 37.3734 78.9359 37.1678 78.8381 36.9338C78.7403 36.6999 78.6914 36.4483 78.6914 36.1787C78.6914 35.909 78.7403 35.6566 78.8381 35.4202C78.9359 35.1838 79.0719 34.9762 79.2462 34.7964C79.4204 34.6166 79.6271 34.475 79.8659 34.3708C80.1051 34.267 80.364 34.2148 80.6434 34.2148C80.9985 34.2148 81.2931 34.2739 81.5274 34.3921C81.7616 34.5103 81.9663 34.6663 82.1413 34.86L81.6087 35.4342C81.476 35.2971 81.3355 35.1851 81.1863 35.0972C81.0371 35.0098 80.8538 34.9659 80.636 34.9659C80.4799 34.9659 80.3356 34.9979 80.2029 35.0615C80.0701 35.1251 79.9567 35.2117 79.8622 35.3205C79.7677 35.4293 79.6929 35.5557 79.6386 35.6997C79.584 35.8438 79.5569 35.9989 79.5569 36.1639C79.5569 36.3289 79.584 36.4926 79.6386 36.6387C79.6929 36.7853 79.7702 36.9129 79.8692 37.0216C79.9686 37.1304 80.087 37.2166 80.2243 37.2802C80.3615 37.3438 80.5127 37.3758 80.6788 37.3758C80.8822 37.3758 81.061 37.3323 81.2146 37.2445C81.3683 37.1571 81.5138 37.045 81.6511 36.9076L82.1693 37.4181C81.9848 37.6262 81.774 37.7949 81.5377 37.925L81.5381 37.9262Z" fill="white"/>
<path d="M26.8581 32.8594V37.8221H25.9922V32.8594H26.8581Z" fill="white"/>
<path d="M28.9596 37.8643H28.0938V34.1209H28.9596V34.7082C29.0209 34.6175 29.0883 34.533 29.1614 34.4542C29.2346 34.3754 29.3196 34.3052 29.4162 34.2432C29.5128 34.1813 29.6192 34.1324 29.7347 34.0967C29.8502 34.061 29.9813 34.043 30.1276 34.043C30.5521 34.043 30.8804 34.1731 31.1114 34.4329C31.3423 34.6927 31.4582 35.0427 31.4582 35.4823V37.8643H30.5923V35.7425C30.5923 35.4503 30.5233 35.225 30.3848 35.0669C30.2463 34.9089 30.0503 34.8301 29.7971 34.8301C29.544 34.8301 29.3467 34.9114 29.1918 35.0743C29.0369 35.2373 28.9596 35.4646 28.9596 35.7568V37.8647V37.8643Z" fill="white"/>
<path d="M34.532 34.0654V34.7742H33.5523V37.7801H32.6864V34.7742H32.2109V34.058H32.6864V33.7888C32.6864 33.3731 32.7867 33.0644 32.9868 32.8637C33.1874 32.6631 33.473 32.5625 33.8432 32.5625C33.9945 32.5625 34.1247 32.5719 34.2336 32.5908C34.3425 32.6097 34.444 32.6335 34.539 32.6618V33.385C34.4539 33.3566 34.3721 33.3341 34.294 33.3177C34.216 33.3012 34.1297 33.2926 34.0347 33.2926C33.7035 33.2926 33.5379 33.4818 33.5379 33.8598V34.0654H34.5316H34.532Z" fill="white"/>
<path d="M36.0299 37.8586H35.1641V34.1152H36.0299V34.959C36.1483 34.6754 36.3164 34.4485 36.5338 34.2786C36.7516 34.1083 37.0261 34.0303 37.3573 34.0446V34.9521H37.3076C37.1181 34.9521 36.9455 34.9828 36.7894 35.0444C36.6332 35.106 36.4984 35.1979 36.3846 35.321C36.2712 35.4441 36.1832 35.5989 36.122 35.7852C36.0603 35.9719 36.0295 36.1882 36.0295 36.4341V37.859L36.0299 37.8586Z" fill="white"/>
<path d="M40.2128 37.8434V37.3825C40.085 37.5339 39.9218 37.6616 39.7229 37.7654C39.524 37.8692 39.2828 37.9214 38.9988 37.9214C38.8188 37.9214 38.6487 37.8967 38.4876 37.8471C38.3265 37.7974 38.186 37.7244 38.0652 37.6275C37.9443 37.5306 37.8473 37.41 37.7742 37.2659C37.7006 37.1219 37.6641 36.9553 37.6641 36.7661V36.7517C37.6641 36.5485 37.7019 36.3712 37.7775 36.2198C37.8531 36.0688 37.9583 35.9432 38.0935 35.8439C38.2283 35.7445 38.3894 35.6703 38.5764 35.6206C38.7634 35.5709 38.9655 35.5463 39.1833 35.5463C39.4012 35.5463 39.6033 35.5607 39.762 35.589C39.9206 35.6173 40.0731 35.6551 40.2198 35.7023V35.6099C40.2198 35.3501 40.1405 35.1515 39.9818 35.0144C39.8232 34.8773 39.5951 34.8088 39.2968 34.8088C39.0839 34.8088 38.8944 34.8301 38.7288 34.8724C38.5632 34.9151 38.3951 34.9717 38.225 35.0427L37.9908 34.3549C38.1991 34.2605 38.412 34.1846 38.6298 34.1279C38.8476 34.0713 39.1102 34.043 39.4176 34.043C39.9761 34.043 40.3903 34.1813 40.6599 34.4579C40.9295 34.7345 41.0647 35.1232 41.0647 35.6243V37.8434H40.2128ZM40.2342 36.2555C40.1252 36.2128 39.9962 36.1775 39.8474 36.1492C39.6983 36.1209 39.5409 36.1065 39.3753 36.1065C39.1057 36.1065 38.8949 36.1586 38.7436 36.2625C38.592 36.3663 38.5164 36.5153 38.5164 36.709V36.7234C38.5164 36.9031 38.5862 37.0402 38.726 37.1346C38.8657 37.229 39.0371 37.2766 39.2405 37.2766C39.3822 37.2766 39.5138 37.2577 39.6346 37.22C39.7554 37.1822 39.8606 37.1289 39.9506 37.0603C40.0406 36.9918 40.1105 36.9093 40.1602 36.812C40.2099 36.7152 40.2346 36.6076 40.2346 36.4894V36.2555H40.2342Z" fill="white"/>
<path d="M5.41647 37.8613H4.49348L3.98965 36.6633H1.63983L1.12861 37.8613H0.234375L2.42105 32.8633H3.23021L5.41688 37.8613H5.41647ZM2.81104 33.9053L1.95914 35.8905H3.66993L2.81104 33.9053Z" fill="white"/>
<path d="M9.89859 36.8188C9.8016 37.0597 9.67133 37.2645 9.50818 37.4319C9.34503 37.5998 9.15805 37.7262 8.94723 37.8112C8.73642 37.8961 8.52025 37.9388 8.29752 37.9388C7.98972 37.9388 7.7341 37.8727 7.53068 37.7402C7.32726 37.608 7.15918 37.4541 7.02686 37.2793L7.03384 38.9948H6.16797V34.117H7.03384V34.7409C7.17069 34.5422 7.34082 34.3756 7.54383 34.241C7.74684 34.1064 7.99958 34.0391 8.30163 34.0391C8.52354 34.0391 8.73847 34.0817 8.946 34.1667C9.15394 34.2517 9.33928 34.3785 9.50202 34.5459C9.66475 34.7138 9.79585 34.9182 9.8953 35.1591C9.99434 35.4 10.0441 35.6766 10.0441 35.9885C10.0441 36.3004 9.99557 36.577 9.89859 36.818V36.8188ZM9.09271 35.4895C9.036 35.3405 8.95915 35.2141 8.86217 35.1102C8.76518 35.0064 8.65135 34.926 8.52149 34.8693C8.39122 34.8127 8.25273 34.7844 8.10602 34.7844C7.95931 34.7844 7.81958 34.8127 7.68726 34.8693C7.55452 34.926 7.43863 35.0076 7.33959 35.1139C7.24014 35.2202 7.16083 35.3466 7.10165 35.4932C7.04247 35.6397 7.01288 35.8051 7.01288 35.9893C7.01288 36.1736 7.04247 36.339 7.10165 36.4855C7.16083 36.632 7.24014 36.7584 7.33959 36.8647C7.43904 36.971 7.55493 37.0527 7.68726 37.1094C7.81958 37.166 7.95931 37.1943 8.10602 37.1943C8.25273 37.1943 8.39122 37.166 8.52149 37.1094C8.65176 37.0527 8.76518 36.9723 8.86217 36.8684C8.95915 36.7646 9.036 36.6382 9.09271 36.4892C9.14942 36.3402 9.17778 36.1736 9.17778 35.9893C9.17778 35.8051 9.14942 35.6384 9.09271 35.4895Z" fill="white"/>
<path d="M14.6525 36.8188C14.5555 37.0597 14.4252 37.2645 14.2621 37.4319C14.0989 37.5998 13.912 37.7262 13.7011 37.8112C13.4903 37.8961 13.2742 37.9388 13.0514 37.9388C12.7436 37.9388 12.488 37.8727 12.2846 37.7402C12.0812 37.608 11.9131 37.4541 11.7808 37.2793L11.7877 38.9948H10.9219V34.117H11.7877V34.7409C11.9246 34.5422 12.0947 34.3756 12.2977 34.241C12.5008 34.1064 12.7535 34.0391 13.0555 34.0391C13.2774 34.0391 13.4924 34.0817 13.6999 34.1667C13.9078 34.2517 14.0932 34.3785 14.2559 34.5459C14.4187 34.7138 14.5498 34.9182 14.6492 35.1591C14.7482 35.4 14.798 35.6766 14.798 35.9885C14.798 36.3004 14.7495 36.577 14.6525 36.818V36.8188ZM13.8466 35.4895C13.7899 35.3405 13.7131 35.2141 13.6161 35.1102C13.5191 35.0064 13.4053 34.926 13.2754 34.8693C13.1451 34.8127 13.0066 34.7844 12.8599 34.7844C12.7132 34.7844 12.5735 34.8127 12.4412 34.8693C12.3084 34.926 12.1925 35.0076 12.0935 35.1139C11.994 35.2202 11.9147 35.3466 11.8556 35.4932C11.7964 35.6397 11.7668 35.8051 11.7668 35.9893C11.7668 36.1736 11.7964 36.339 11.8556 36.4855C11.9147 36.632 11.994 36.7584 12.0935 36.8647C12.1929 36.971 12.3088 37.0527 12.4412 37.1094C12.5735 37.166 12.7132 37.1943 12.8599 37.1943C13.0066 37.1943 13.1451 37.166 13.2754 37.1094C13.4057 37.0527 13.5191 36.9723 13.6161 36.8684C13.7131 36.7646 13.7899 36.6382 13.8466 36.4892C13.9033 36.3402 13.9317 36.1736 13.9317 35.9893C13.9317 35.8051 13.9033 35.6384 13.8466 35.4895Z" fill="white"/>
<path d="M18.25 37.2735C18.1789 37.4201 18.0807 37.542 17.9554 37.6388C17.83 37.7357 17.6821 37.8091 17.5115 37.8588C17.341 37.9085 17.1589 37.9331 16.965 37.9331C16.6954 37.9331 16.4221 37.8859 16.1451 37.7911C15.8681 37.6967 15.6113 37.5571 15.375 37.3729L15.7584 36.7913C15.9618 36.9428 16.169 37.0573 16.3794 37.1352C16.5898 37.2132 16.7924 37.2522 16.9863 37.2522C17.1803 37.2522 17.3139 37.2157 17.4158 37.1422C17.5177 37.0692 17.5682 36.9711 17.5682 36.8479V36.8336C17.5682 36.7626 17.5456 36.7014 17.5009 36.6493C17.4556 36.5972 17.3944 36.5512 17.3163 36.511C17.2383 36.4708 17.1483 36.4355 17.0467 36.4047C16.9448 36.3739 16.8396 36.3423 16.7307 36.3091C16.5935 36.2664 16.455 36.2192 16.3153 36.1675C16.1755 36.1154 16.0502 36.0481 15.9388 35.9656C15.8275 35.8831 15.7366 35.7813 15.6655 35.6606C15.5944 35.54 15.5591 35.3902 15.5591 35.2104V35.196C15.5591 35.0212 15.5932 34.8628 15.6618 34.7212C15.7305 34.5792 15.825 34.4589 15.9458 34.3596C16.0666 34.2603 16.2084 34.1848 16.3716 34.1327C16.5347 34.0805 16.7089 34.0547 16.8935 34.0547C17.1302 34.0547 17.3689 34.0924 17.6106 34.168C17.8518 34.2435 18.0721 34.3477 18.2706 34.4799L17.9299 35.0897C17.7499 34.981 17.5678 34.8948 17.3833 34.8312C17.1988 34.7676 17.0283 34.7356 16.8721 34.7356C16.7065 34.7356 16.5774 34.7709 16.4854 34.8419C16.3933 34.9129 16.3469 35.0027 16.3469 35.1111V35.1255C16.3469 35.1915 16.3707 35.2494 16.418 35.2991C16.4653 35.3487 16.5281 35.3934 16.6062 35.4337C16.6843 35.4739 16.7743 35.5116 16.8758 35.5469C16.9777 35.5822 17.0829 35.6167 17.1918 35.6495C17.3291 35.6922 17.4663 35.7419 17.6036 35.7985C17.7408 35.8552 17.865 35.9249 17.9763 36.0078C18.0873 36.0907 18.1785 36.1909 18.2496 36.3091C18.3207 36.4273 18.356 36.5713 18.356 36.7417V36.7556C18.356 36.9542 18.3207 37.1266 18.2496 37.2731L18.25 37.2735Z" fill="white"/>
<path d="M0.851072 42.0625V44.9461H0.347656V42.0625H0.850661H0.851072Z" fill="white"/>
<path d="M3.63825 42.0625H4.14126V44.9461H3.71715L2.12842 42.8948V44.9461H1.625V42.0625H2.09431L3.63784 44.0563V42.0625H3.63825Z" fill="white"/>
<path d="M6.10692 44.9456H5.59529V42.532H4.67969V42.0625H7.02252V42.532H6.10692V44.9456Z" fill="white"/>
<path d="M9.69472 42.5197H8.0616V43.2613H9.50938V43.7185H8.0616V44.4889H9.71568V44.9461H7.55859V42.0625H9.69513V42.5197H9.69472Z" fill="white"/>
<path d="M12.1725 44.9461L11.4607 43.941H10.8237V44.9461H10.3203V42.0625H11.607C11.7718 42.0625 11.921 42.0838 12.0545 42.1265C12.1877 42.1692 12.3007 42.2295 12.3927 42.3079C12.4848 42.3863 12.5555 42.4824 12.6052 42.5964C12.6545 42.7105 12.6796 42.8374 12.6796 42.9773C12.6796 43.098 12.6623 43.2059 12.6282 43.3007C12.5937 43.3955 12.5464 43.4792 12.486 43.5519C12.4256 43.6245 12.3533 43.6865 12.2695 43.7374C12.1856 43.7883 12.0927 43.8273 11.9912 43.8548L12.7708 44.9465H12.1729L12.1725 44.9461ZM12.0069 42.642C11.9021 42.5607 11.7545 42.5201 11.5643 42.5201H10.8237V43.4924H11.5684C11.7504 43.4924 11.8951 43.4485 12.0027 43.3602C12.1104 43.272 12.1643 43.1534 12.1643 43.0044C12.1643 42.8443 12.1116 42.7237 12.0069 42.6424V42.642Z" fill="white"/>
<path d="M15.314 42.0625H15.817V44.9461H15.3929L13.8042 42.8948V44.9461H13.3008V42.0625H13.7701L15.3136 44.0563V42.0625H15.314Z" fill="white"/>
<path d="M19.324 44.9509H18.7877L18.4947 44.2549H17.1295L16.8324 44.9509H16.3125L17.5828 42.0469H18.0529L19.3231 44.9509H19.324ZM17.8104 42.6526L17.3156 43.8059H18.3097L17.8108 42.6526H17.8104Z" fill="white"/>
<path d="M20.6694 44.9456H20.1578V42.532H19.2422V42.0625H21.585V42.532H20.6694V44.9456Z" fill="white"/>
<path d="M22.6514 42.0625V44.9461H22.1484V42.0625H22.6514Z" fill="white"/>
<path d="M26.2083 44.0792C26.1339 44.2606 26.0295 44.419 25.8947 44.5548C25.7599 44.6907 25.6005 44.7986 25.4164 44.8782C25.2323 44.9579 25.0288 44.9977 24.8061 44.9977C24.5834 44.9977 24.3799 44.9587 24.1958 44.8803C24.0117 44.8019 23.8535 44.6956 23.7216 44.561C23.5897 44.4264 23.4865 44.2684 23.4121 44.0874C23.3378 43.9064 23.3008 43.7139 23.3008 43.5108C23.3008 43.3076 23.3378 43.1151 23.4121 42.9341C23.4865 42.7531 23.5909 42.5943 23.7257 42.4585C23.8605 42.3226 24.0199 42.2147 24.2041 42.1351C24.3882 42.0554 24.5916 42.0156 24.8143 42.0156C25.0371 42.0156 25.2405 42.0546 25.4246 42.133C25.6087 42.2114 25.7669 42.3177 25.8988 42.4523C26.0307 42.5869 26.1339 42.7449 26.2083 42.9259C26.2826 43.1073 26.3196 43.2994 26.3196 43.5025C26.3196 43.7057 26.2826 43.8978 26.2083 44.0792ZM25.7155 43.1131C25.6675 42.9883 25.6001 42.8791 25.5133 42.7856C25.4266 42.6924 25.3231 42.6181 25.2018 42.5631C25.0806 42.5081 24.9487 42.4806 24.8057 42.4806C24.6627 42.4806 24.5316 42.5073 24.412 42.5611C24.2924 42.6148 24.1901 42.6875 24.1046 42.7794C24.0195 42.8713 23.9526 42.9797 23.9045 43.1049C23.8564 43.23 23.8321 43.3622 23.8321 43.5025C23.8321 43.6429 23.856 43.7751 23.9045 43.9002C23.9526 44.025 24.0199 44.1346 24.1067 44.2277C24.1934 44.3213 24.2969 44.3952 24.4182 44.4502C24.539 44.5052 24.6713 44.5327 24.8143 44.5327C24.9573 44.5327 25.0884 44.506 25.208 44.4522C25.3276 44.3985 25.4299 44.3258 25.5154 44.2339C25.6005 44.142 25.6675 44.0336 25.7155 43.9084C25.7636 43.7837 25.7879 43.6511 25.7879 43.5112C25.7879 43.3712 25.7636 43.2387 25.7155 43.1135V43.1131Z" fill="white"/>
<path d="M28.9468 42.0625H29.4498V44.9461H29.0257L27.437 42.8948V44.9461H26.9336V42.0625H27.4029L28.9464 44.0563V42.0625H28.9468Z" fill="white"/>
<path d="M32.9529 44.9509H32.4166L32.1236 44.2549H30.7584L30.4613 44.9509H29.9414L31.2117 42.0469H31.6818L32.952 44.9509H32.9529ZM31.4393 42.6526L30.9445 43.8059H31.9386L31.4397 42.6526H31.4393Z" fill="white"/>
<path d="M33.4531 42.0625H33.9565V44.4889H35.4742V44.9461H33.4531V42.0625Z" fill="white"/>
<path d="M37.7764 42.0625V44.9461H37.2734V42.0625H37.7764Z" fill="white"/>
<path d="M39.7671 44.9456H39.2554V42.532H38.3398V42.0625H40.6827V42.532H39.7671V44.9456Z" fill="white"/>
<path d="M44.9568 44.0706C44.8825 44.2479 44.7773 44.401 44.6412 44.5299C44.5052 44.6592 44.3429 44.7605 44.1547 44.8348C43.9665 44.9091 43.7593 44.9461 43.5337 44.9461H42.457V42.0625H43.5337C43.7593 42.0625 43.966 42.099 44.1547 42.1717C44.3429 42.2443 44.5052 42.3453 44.6412 42.4746C44.7773 42.6038 44.8825 42.7561 44.9568 42.9318C45.0312 43.1074 45.0682 43.297 45.0682 43.5002C45.0682 43.7033 45.0312 43.8933 44.9568 44.0706ZM44.4637 43.1136C44.4156 42.9937 44.3478 42.8895 44.2611 42.8012C44.1744 42.713 44.0688 42.6441 43.9447 42.5944C43.8206 42.5447 43.6825 42.5201 43.5313 42.5201H42.9604V44.4889H43.5313C43.6829 44.4889 43.8206 44.4646 43.9447 44.4166C44.0688 44.3682 44.174 44.3009 44.2611 44.2139C44.3478 44.1269 44.4156 44.0234 44.4637 43.9036C44.5118 43.7838 44.536 43.652 44.536 43.5088C44.536 43.3656 44.5118 43.2338 44.4637 43.114V43.1136Z" fill="white"/>
<path d="M47.8201 42.5197H46.1866V43.2613H47.6344V43.7185H46.1866V44.4889H47.8407V44.9461H45.6836V42.0625H47.8201V42.5197Z" fill="white"/>
<path d="M48.4496 42.0625H48.9526V44.4889H50.4703V44.9461H48.4492V42.0625H48.4496Z" fill="white"/>
<path d="M51.5347 42.0625V44.9461H51.0312V42.0625H51.5347Z" fill="white"/>
<path d="M54.3601 42.0625H54.9087L53.7084 44.9666H53.2629L52.0625 42.0625H52.6234L53.4938 44.2787L54.3601 42.0625Z" fill="white"/>
<path d="M57.5389 42.5197H55.9054V43.2613H57.3531V43.7185H55.9054V44.4889H57.5594V44.9461H55.4023V42.0625H57.5389V42.5197Z" fill="white"/>
<path d="M60.0158 44.9461L59.304 43.941H58.6671V44.9461H58.1641V42.0625H59.4508C59.6155 42.0625 59.7647 42.0838 59.8983 42.1265C60.0314 42.1692 60.1444 42.2295 60.2365 42.3079C60.3285 42.3863 60.3992 42.4824 60.449 42.5964C60.4983 42.7105 60.5233 42.8374 60.5233 42.9773C60.5233 43.098 60.5061 43.2059 60.472 43.3007C60.4374 43.3955 60.3902 43.4792 60.3298 43.5519C60.2694 43.6245 60.197 43.6865 60.1132 43.7374C60.0294 43.7883 59.9365 43.8273 59.835 43.8548L60.6146 44.9465H60.0166L60.0158 44.9461ZM59.8502 42.642C59.7454 42.5607 59.5979 42.5201 59.4076 42.5201H58.6671V43.4924H59.4117C59.5938 43.4924 59.7384 43.4485 59.8461 43.3602C59.9538 43.272 60.0076 43.1534 60.0076 43.0044C60.0076 42.8443 59.955 42.7237 59.8502 42.6424V42.642Z" fill="white"/>
<path d="M62.4082 44.9456H61.8966V43.8088L60.75 42.0625H61.3479L62.1563 43.3393L62.9728 42.0625H63.5543L62.4078 43.7965V44.9456H62.4082Z" fill="white"/>
<path d="M67.5159 44.6993C67.435 44.7613 67.3474 44.8146 67.2541 44.8598C67.1604 44.9049 67.0581 44.9394 66.9467 44.9628C66.8354 44.9862 66.7121 44.9977 66.5777 44.9977C66.3661 44.9977 66.1709 44.9591 65.9921 44.8824C65.8133 44.8056 65.6588 44.7005 65.5281 44.5672C65.3975 44.4342 65.2951 44.2766 65.2207 44.0956C65.1464 43.9146 65.1094 43.7192 65.1094 43.5108C65.1094 43.3023 65.146 43.111 65.2187 42.93C65.2914 42.7486 65.3942 42.5902 65.5261 42.4544C65.658 42.3185 65.815 42.2114 65.9962 42.133C66.1779 42.0546 66.3784 42.0156 66.5983 42.0156C66.7302 42.0156 66.8506 42.0267 66.9591 42.0485C67.0676 42.0706 67.1674 42.1014 67.2582 42.1412C67.3491 42.181 67.4329 42.2282 67.5097 42.2832C67.5866 42.3382 67.6597 42.3985 67.7284 42.4646L67.4025 42.8393C67.287 42.7322 67.1645 42.6456 67.0355 42.5799C66.9061 42.5139 66.7593 42.481 66.5941 42.481C66.4565 42.481 66.3295 42.5077 66.2128 42.5615C66.0961 42.6148 65.995 42.6879 65.9095 42.7798C65.824 42.8717 65.7583 42.9797 65.7114 43.1032C65.6646 43.2268 65.6411 43.3601 65.6411 43.503C65.6411 43.6458 65.6646 43.7796 65.7114 43.9047C65.7583 44.0295 65.824 44.1391 65.9095 44.2323C65.9946 44.3258 66.0957 44.3993 66.2128 44.4527C66.3295 44.506 66.4569 44.5331 66.5941 44.5331C66.77 44.5331 66.9213 44.4994 67.0478 44.4321C67.1744 44.3648 67.2993 44.2737 67.423 44.1584L67.7489 44.4879C67.6745 44.5676 67.5969 44.6382 67.5159 44.7001V44.6993Z" fill="white"/>
<path d="M70.4139 42.5197H68.7803V43.2613H70.2281V43.7185H68.7803V44.4889H70.4344V44.9461H68.2773V42.0625H70.4139V42.5197Z" fill="white"/>
<path d="M73.0519 42.0625H73.5549V44.9461H73.1308L71.5421 42.8948V44.9461H71.0391V42.0625H71.5084L73.0519 44.0563V42.0625Z" fill="white"/>
<path d="M75.521 44.9456H75.0093V42.532H74.0938V42.0625H76.4366V42.532H75.521V44.9456Z" fill="white"/>
<path d="M78.8244 44.9461L78.1126 43.941H77.4757V44.9461H76.9727V42.0625H78.2593C78.4241 42.0625 78.5733 42.0838 78.7069 42.1265C78.84 42.1692 78.953 42.2295 79.0451 42.3079C79.1371 42.3863 79.2078 42.4824 79.2575 42.5964C79.3069 42.7105 79.3319 42.8374 79.3319 42.9773C79.3319 43.098 79.3147 43.2059 79.2806 43.3007C79.246 43.3955 79.1988 43.4792 79.1384 43.5519C79.078 43.6245 79.0056 43.6865 78.9218 43.7374C78.838 43.7883 78.7451 43.8273 78.6436 43.8548L79.4232 44.9465H78.8252L78.8244 44.9461ZM78.6588 42.642C78.554 42.5607 78.4065 42.5201 78.2162 42.5201H77.4757V43.4924H78.2203C78.4024 43.4924 78.547 43.4485 78.6547 43.3602C78.7624 43.272 78.8162 43.1534 78.8162 43.0044C78.8162 42.8443 78.7636 42.7237 78.6588 42.6424V42.642Z" fill="white"/>
<path d="M82.0936 42.5197H80.46V43.2613H81.9078V43.7185H80.46V44.4889H82.1141V44.9461H79.957V42.0625H82.0936V42.5197Z" fill="white"/>
</g>
<path d="M99.6719 3.75L99.6719 41.25" stroke="#DADADA" stroke-width="0.625" stroke-linecap="round"/>
<g clip-path="url(#clip1_403_27916)">
<path d="M120.558 35.1992C119.397 34.8473 118.888 34.624 118.888 33.9601C118.888 33.366 119.68 33.1551 120.357 33.1551C120.95 33.1551 121.587 33.3314 122.02 33.6147C122.122 33.6813 122.248 33.7016 122.366 33.6689C122.483 33.6376 122.582 33.556 122.637 33.447L122.834 33.0526C122.931 32.8581 122.868 32.6218 122.686 32.5023C122.062 32.0949 121.178 31.8423 120.377 31.8423C118.696 31.8423 117.565 32.706 117.565 33.9914C117.565 35.6614 118.976 36.0837 120.108 36.4239C121.293 36.779 121.811 37.0075 121.805 37.7132C121.805 38.4215 120.971 38.6735 120.191 38.6735C119.444 38.6735 118.631 38.2759 118.136 37.8196C118.038 37.7289 117.911 37.6766 117.779 37.6917C117.646 37.7067 117.528 37.7831 117.46 37.898L117.232 38.2818C117.131 38.4509 117.159 38.667 117.3 38.8054C118.033 39.5274 119.136 39.9766 120.181 39.9766C121.943 39.9766 123.127 39.0619 123.127 37.706C123.141 35.9832 121.708 35.5484 120.558 35.1992Z" fill="white"/>
<path d="M128.324 32.1159C128.254 31.9637 128.102 31.8658 127.934 31.8658H127.468C127.3 31.8658 127.147 31.9637 127.078 32.1172L123.792 39.3629C123.732 39.4961 123.743 39.6495 123.822 39.7722C123.901 39.8956 124.036 39.9688 124.182 39.9688H124.658C124.827 39.9688 124.98 39.8702 125.049 39.7168L125.868 37.9058H129.556L130.385 39.7187C130.455 39.8708 130.607 39.9688 130.774 39.9688H131.251C131.398 39.9688 131.533 39.8943 131.612 39.7716C131.691 39.6495 131.701 39.4954 131.64 39.3616L128.324 32.1159ZM126.442 36.6132L127.698 33.8289L128.968 36.6132H126.442Z" fill="white"/>
<path d="M133.793 31.8665H133.358C133.122 31.8665 132.93 32.0584 132.93 32.2947V39.5405C132.93 39.7775 133.122 39.9688 133.358 39.9688H133.793C134.029 39.9688 134.221 39.7775 134.221 39.5405V32.2947C134.221 32.0584 134.029 31.8665 133.793 31.8665Z" fill="white"/>
<path d="M142.827 31.8665H142.402C142.164 31.8665 141.973 32.0584 141.973 32.2947V37.5722L137.906 32.0408C137.825 31.9305 137.697 31.8665 137.561 31.8665H137.053C136.816 31.8665 136.625 32.0584 136.625 32.2947V39.5405C136.625 39.7775 136.816 39.9688 137.053 39.9688H137.488C137.725 39.9688 137.917 39.7775 137.917 39.5405V34.2656L141.973 39.7951C142.053 39.9041 142.182 39.9688 142.319 39.9688H142.827C143.063 39.9688 143.255 39.7775 143.255 39.5405V32.2947C143.255 32.0584 143.063 31.8665 142.827 31.8665Z" fill="white"/>
<path d="M150.303 31.8665H144.974C144.738 31.8665 144.547 32.0584 144.547 32.2947V32.7204C144.547 32.956 144.738 33.148 144.974 33.148H146.993V39.5405C146.993 39.7775 147.185 39.9688 147.422 39.9688H147.856C148.093 39.9688 148.285 39.7775 148.285 39.5405V33.148H150.303C150.54 33.148 150.731 32.956 150.731 32.7204V32.2947C150.731 32.0584 150.54 31.8665 150.303 31.8665Z" fill="white"/>
<path d="M153.49 35.8144H151.178C150.942 35.8144 150.75 36.0057 150.75 36.2427V36.5952C150.75 36.8322 150.942 37.0234 151.178 37.0234H153.49C153.727 37.0234 153.918 36.8322 153.918 36.5952V36.2427C153.918 36.0057 153.727 35.8144 153.49 35.8144Z" fill="white"/>
<path d="M162.491 35.5543H162.097C162.095 35.5543 162.092 35.5549 162.09 35.5549H160.804C160.567 35.5549 160.375 35.7469 160.375 35.9832V36.4186C160.375 36.655 160.567 36.8469 160.804 36.8469H161.669V38.1715C161.165 38.5175 160.558 38.7055 159.941 38.7055C158.343 38.7055 157.042 37.4521 157.042 35.9107C157.042 34.3746 158.343 33.1251 159.941 33.1251C160.684 33.1251 161.414 33.3986 161.946 33.8759C162.034 33.9542 162.15 33.994 162.267 33.9842C162.384 33.9751 162.492 33.9176 162.566 33.8262L162.825 33.5051C162.968 33.3255 162.947 33.0644 162.773 32.9129C161.995 32.2307 160.988 31.8534 159.941 31.8534C157.631 31.8534 155.75 33.6728 155.75 35.9107C155.75 38.1532 157.621 39.9766 159.921 39.9766C160.96 39.9766 161.998 39.5953 162.771 38.9301C162.865 38.8491 162.92 38.7303 162.92 38.605V35.9825C162.92 35.7469 162.727 35.5543 162.491 35.5543Z" fill="white"/>
<path d="M168.567 31.8534C166.262 31.8534 164.387 33.6728 164.387 35.9101C164.387 38.1532 166.262 39.9766 168.567 39.9766C170.872 39.9766 172.748 38.1532 172.748 35.9101C172.748 33.6728 170.872 31.8534 168.567 31.8534ZM168.567 38.6951C166.98 38.6951 165.688 37.4455 165.688 35.9101C165.688 34.3799 166.98 33.1356 168.567 33.1356C170.154 33.1356 171.445 34.3799 171.445 35.9101C171.445 37.4455 170.154 38.6951 168.567 38.6951Z" fill="white"/>
<path d="M179.605 35.6881C180.041 35.3128 180.284 34.7598 180.284 34.0874C180.284 32.7171 179.254 31.8658 177.596 31.8658H174.631C174.395 31.8658 174.203 32.0578 174.203 32.2941V39.5405C174.203 39.7768 174.395 39.9688 174.631 39.9688H177.616C179.514 39.9688 180.646 39.0802 180.646 37.5924C180.646 36.7503 180.265 36.0805 179.605 35.6881ZM177.585 35.1522H175.494V33.148H177.585C178.226 33.148 178.992 33.3197 178.992 34.1396C178.992 34.8114 178.519 35.1522 177.585 35.1522ZM175.494 36.4337H177.585C178.246 36.4337 179.354 36.5773 179.354 37.5396C179.354 38.4881 178.393 38.6872 177.585 38.6872H175.494V36.4337Z" fill="white"/>
<path d="M185.906 32.1159C185.836 31.9637 185.684 31.8658 185.517 31.8658H185.051C184.881 31.8658 184.729 31.9637 184.66 32.1172L181.374 39.3629C181.314 39.4961 181.325 39.6495 181.405 39.7722C181.484 39.8956 181.619 39.9688 181.765 39.9688H182.242C182.41 39.9688 182.563 39.8702 182.632 39.7168L183.451 37.9058H187.138L187.967 39.7187C188.037 39.8708 188.19 39.9688 188.357 39.9688H188.833C188.979 39.9688 189.115 39.8943 189.194 39.7716C189.273 39.6495 189.284 39.4954 189.223 39.3616L185.906 32.1159ZM184.024 36.6132L185.28 33.8289L186.551 36.6132H184.024Z" fill="white"/>
<path d="M191.372 31.8665H190.937C190.7 31.8665 190.508 32.0584 190.508 32.2947V39.5405C190.508 39.7775 190.7 39.9688 190.937 39.9688H191.372C191.608 39.9688 191.802 39.7775 191.802 39.5405V32.2947C191.802 32.0584 191.608 31.8665 191.372 31.8665Z" fill="white"/>
<path d="M200.41 31.8665H199.984C199.748 31.8665 199.556 32.0584 199.556 32.2947V37.5722L195.489 32.0408C195.409 31.9305 195.28 31.8665 195.144 31.8665H194.636C194.399 31.8665 194.207 32.0584 194.207 32.2947V39.5405C194.207 39.7775 194.399 39.9688 194.636 39.9688H195.071C195.308 39.9688 195.499 39.7775 195.499 39.5405V34.2656L199.556 39.7951C199.637 39.9041 199.765 39.9688 199.901 39.9688H200.41C200.646 39.9688 200.837 39.7775 200.837 39.5405V32.2947C200.837 32.0584 200.646 31.8665 200.41 31.8665Z" fill="white"/>
<path d="M164.198 20.486V27.6097H162.886V19.5061L164.198 20.486ZM189.621 27.5862H184.462L184.426 27.5503L179.888 23.0621C179.704 22.8793 179.419 22.8231 179.178 22.9237C178.934 23.0255 178.776 23.2618 178.776 23.5262V27.6097H177.428V17.5045C177.428 17.3257 177.353 17.1527 177.223 17.0299L173.453 13.4694C173.332 13.3545 173.172 13.2912 173.005 13.2912H171.12C170.76 13.2912 170.467 13.5843 170.467 13.944V27.6097H169.129V5.67068C169.129 5.40432 168.97 5.16735 168.724 5.06682C168.483 4.96759 168.193 5.02764 168.011 5.21239L161.768 11.5481C161.647 11.6708 161.58 11.834 161.58 12.0064V16.9007L159.024 14.9918C158.792 14.8188 158.451 14.8247 158.225 15.0055L152.413 19.6654C152.257 19.7901 152.169 19.9762 152.169 20.1753V27.6097H150.851V23.5119C150.851 22.073 149.86 20.5435 148.026 20.5435C146.19 20.5435 145.2 22.0802 145.2 23.5262V27.6097L143.867 27.609V24.8293C143.867 23.7025 143.092 22.5059 141.655 22.5059C140.217 22.5059 139.442 23.7038 139.442 24.8319V27.6104L138.115 27.611L138.114 27.4876C138.112 26.9275 138.11 26.21 138.11 25.9221C138.11 24.9651 137.207 24.1262 136.177 24.1262C135.146 24.1262 134.243 24.9612 134.243 25.9136V27.6097L128.423 27.609C128.063 27.609 127.77 27.9022 127.77 28.2619C127.77 28.4368 127.837 28.6007 127.961 28.7241C128.084 28.8475 128.248 28.9154 128.422 28.9154L134.896 28.916C135.07 28.916 135.235 28.8481 135.357 28.7247C135.481 28.6013 135.549 28.4375 135.549 28.2632V26.0318C135.549 25.7903 135.812 25.4319 136.177 25.4319C136.536 25.4319 136.804 25.7596 136.804 26.0527C136.804 26.2205 136.811 28.2671 136.811 28.2671C136.813 28.6262 137.105 28.918 137.464 28.918L140.095 28.916C140.455 28.916 140.748 28.6229 140.748 28.2632V24.8319C140.748 24.4787 140.937 23.8115 141.655 23.8115C142.372 23.8115 142.562 24.4768 142.562 24.8293V28.2612C142.562 28.6216 142.854 28.9147 143.214 28.9147L145.852 28.916C146.024 28.916 146.193 28.8462 146.314 28.7247C146.435 28.6033 146.505 28.4349 146.505 28.2632V23.5262C146.505 22.9465 146.823 21.8491 148.026 21.8491C149.14 21.8491 149.545 22.8434 149.545 23.5119V28.2632C149.545 28.6229 149.838 28.916 150.198 28.916H152.821C153.182 28.916 153.474 28.6229 153.474 28.2632V20.4886L153.521 20.4508L158.647 16.3405L161.58 18.5308V28.2632C161.58 28.6229 161.873 28.916 162.233 28.916H164.851C165.211 28.916 165.504 28.6229 165.504 28.2632V20.1583C165.504 19.954 165.405 19.7581 165.242 19.6354L162.886 17.876V12.2741L162.922 12.2375L167.823 7.26359V28.2632C167.823 28.6229 168.116 28.916 168.476 28.916H171.12C171.48 28.916 171.773 28.6229 171.773 28.2632V14.5968H172.745L172.781 14.6308L176.122 17.7859V28.2632C176.122 28.6229 176.415 28.916 176.775 28.916H179.429C179.789 28.916 180.082 28.6229 180.082 28.2632V25.0904L183.734 28.7032C183.858 28.8246 184.021 28.8919 184.193 28.8919H189.621C189.981 28.8919 190.275 28.5987 190.275 28.239C190.275 27.8787 189.981 27.5862 189.621 27.5862Z" fill="white"/>
</g>
<defs>
<clipPath id="clip0_403_27916">
<rect width="82.0066" height="45" fill="white" transform="translate(0.164062)"/>
</clipPath>
<clipPath id="clip1_403_27916">
<rect width="83.6655" height="37.5" fill="white" transform="translate(117.172 3.75)"/>
</clipPath>
</defs>
</svg>
