<svg width="201" height="46" viewBox="0 0 201 46" fill="none" xmlns="http://www.w3.org/2000/svg">
<g clip-path="url(#clip0_403_27817)">
<path fill-rule="evenodd" clip-rule="evenodd" d="M80.9318 27.9374C77.5981 27.9374 74.9183 27.0956 72.9811 25.4372C71.0439 23.7914 70.0625 21.53 70.0625 18.7409C70.0625 17.208 70.4147 15.7761 71.1067 14.4816C71.7988 13.1749 72.8052 12.082 74.0754 11.2024C74.931 10.6246 75.8997 10.1973 76.9311 9.93345C77.9754 9.66956 79.3089 9.53125 80.9063 9.53125H82.1519V10.6492H80.5792C77.8743 10.6492 75.6477 11.4031 73.962 12.8983C72.2636 14.3934 71.4084 16.3658 71.4084 18.7405C71.4084 21.1151 72.2763 23.0748 73.9748 24.57C75.6732 26.0651 77.8998 26.819 80.5792 26.819H82.1519V27.937H80.9318V27.9374Z" fill="#14B04F"/>
<path d="M67.7251 18.1094H56.4531V19.3907H67.7251V18.1094Z" fill="#009CC0"/>
<path fill-rule="evenodd" clip-rule="evenodd" d="M63.8464 16.7789H65.18C65.0666 16.1883 64.9034 15.6105 64.677 15.0576C64.4255 14.4293 64.0983 13.8391 63.7207 13.2736C63.4063 12.8086 63.0541 12.369 62.6514 11.9545C61.7835 11.0627 60.777 10.3716 59.6572 9.90657C58.5378 9.44157 57.3423 9.20312 56.1095 9.20312C54.8766 9.20312 53.6816 9.44198 52.5617 9.90657C51.4546 10.3716 50.4359 11.0623 49.5675 11.9545C48.6745 12.8841 47.9825 13.9397 47.5169 15.0954C47.0513 16.2511 46.8125 17.47 46.8125 18.7263V18.7514C46.8125 20.0076 47.0517 21.2265 47.5169 22.3823C47.9825 23.5257 48.6741 24.5808 49.5675 25.5231C50.4354 26.415 51.4419 27.1061 52.5617 27.5711C53.6811 28.0361 54.8766 28.2745 56.1095 28.2745C57.3423 28.2745 58.5374 28.0357 59.6572 27.5711C60.7766 27.1061 61.783 26.4154 62.6514 25.5231C63.0541 25.1086 63.4063 24.6687 63.7207 24.2041C64.0979 23.6513 64.4251 23.0484 64.677 22.42C64.9034 21.8672 65.067 21.2893 65.18 20.6988H63.8464C63.733 21.2766 63.5193 21.8294 63.2801 22.3695C63.0665 22.8596 62.7895 23.3246 62.4751 23.7641C62.3744 23.9024 62.2737 24.028 62.173 24.1663C62.0345 24.3424 61.8965 24.5057 61.7329 24.6687C60.198 26.2894 58.3109 27.1184 56.1095 27.1184C53.908 27.1184 51.9958 26.3017 50.4482 24.6687C48.926 23.0607 48.146 21.0628 48.1333 18.7386C48.1333 16.4145 48.9133 14.4166 50.4482 12.8086C51.9831 11.1879 53.8825 10.3588 56.1095 10.3588C58.3364 10.3588 60.2107 11.1879 61.7329 12.8086C62.035 13.1353 62.3115 13.4743 62.563 13.8514C62.9152 14.3665 63.2045 14.9066 63.4186 15.4849C63.5571 15.8616 63.6701 16.2388 63.7959 16.6156C63.8086 16.6784 63.8337 16.7284 63.846 16.7789" fill="#19286C"/>
<path fill-rule="evenodd" clip-rule="evenodd" d="M34.8089 28.2906C32.1546 28.2906 29.9153 27.3861 28.179 25.5893C26.4432 23.7925 25.5625 21.4934 25.5625 18.742C25.5625 17.448 25.7889 16.2167 26.2291 15.0733C26.6692 13.9299 27.3234 12.887 28.179 11.9825C29.0346 11.078 30.0534 10.3745 31.1855 9.89679C32.3177 9.41948 33.5633 9.18062 34.8969 9.18062C36.0796 9.18062 37.2117 9.39403 38.2683 9.80896C39.3125 10.2235 40.2939 10.8268 41.1996 11.6308V13.2515C40.344 12.3469 39.4132 11.6558 38.4446 11.1785C37.3502 10.6507 36.1552 10.3868 34.8845 10.3868C32.5951 10.3868 30.6702 11.1908 29.1731 12.7738C27.676 14.3567 26.9211 16.3797 26.9211 18.7916C26.9211 21.2036 27.6884 23.2015 29.2105 24.7972C30.7327 26.3929 32.6448 27.1969 34.8969 27.1969C37.2997 27.1969 39.2369 26.3424 40.6711 24.6466C42.0926 22.9631 42.8225 20.6639 42.8225 17.812V0.5H44.1054V17.6495C44.1054 19.019 44.0048 20.1998 43.8034 21.1798C43.602 22.1472 43.2749 23.0016 42.8348 23.7301C41.9418 25.1875 40.7841 26.3182 39.4005 27.0971C38.0041 27.8888 36.4568 28.2906 34.8089 28.2906Z" fill="#F89920"/>
<path fill-rule="evenodd" clip-rule="evenodd" d="M20.3666 27.9371V16.9943C20.3666 15.0219 19.788 13.3885 18.6431 12.1572C17.4982 10.926 15.976 10.2976 14.1518 10.2976C12.3276 10.2976 10.8054 10.926 9.66053 12.1572C8.51562 13.3885 7.937 15.0092 7.937 16.9943V27.9371H6.69141V17.4967C6.69141 14.9587 7.37071 12.9112 8.72931 11.416C10.0756 9.93361 11.8994 9.17969 14.1514 9.17969C16.4034 9.17969 18.2272 9.93361 19.5735 11.416C20.9198 12.9112 21.6114 14.9591 21.6114 17.4967V27.9371H20.3658H20.3666Z" fill="#BF2227"/>
<path d="M1.44705 9.51953H0.164062V27.938H1.44705V9.51953Z" fill="#1071B9"/>
<path d="M21.5938 39.6307V33.0625H22.2825V39.6307H21.5938Z" fill="#19286C"/>
<path d="M44.4531 39.6307V33.0625H45.1419V39.6307H44.4531Z" fill="#19286C"/>
<path d="M52.7123 38.1106C52.5726 38.2168 52.4222 38.3092 52.2615 38.3872C52.1004 38.4651 51.9241 38.5242 51.7326 38.5645C51.5411 38.6047 51.329 38.6248 51.0973 38.6248C50.7327 38.6248 50.397 38.5587 50.0892 38.4262C49.7814 38.294 49.5151 38.113 49.2907 37.884C49.0659 37.655 48.8896 37.3841 48.7618 37.0722C48.634 36.7603 48.5703 36.4246 48.5703 36.0655C48.5703 35.7064 48.6332 35.3776 48.7585 35.0657C48.8839 34.7538 49.0602 34.4809 49.2874 34.2469C49.5147 34.013 49.7843 33.8287 50.0966 33.6941C50.4089 33.5595 50.7541 33.4922 51.133 33.4922C51.3603 33.4922 51.567 33.5111 51.7544 33.5488C51.9414 33.5866 52.1127 33.6399 52.2689 33.7085C52.425 33.777 52.5693 33.8587 52.702 33.9531C52.8343 34.0475 52.9601 34.1517 53.0785 34.265L52.5175 34.9102C52.3186 34.7259 52.1082 34.5769 51.8859 34.4636C51.6631 34.3504 51.4104 34.2933 51.1264 34.2933C50.8897 34.2933 50.6711 34.3393 50.4697 34.4316C50.2684 34.524 50.0945 34.6491 49.9478 34.8076C49.8011 34.966 49.6877 35.1515 49.6071 35.3641C49.5266 35.5767 49.4863 35.8061 49.4863 36.0519C49.4863 36.2978 49.5266 36.528 49.6071 36.7431C49.6877 36.9581 49.8011 37.1461 49.9478 37.3066C50.0945 37.4674 50.2684 37.5938 50.4697 37.6858C50.6707 37.7781 50.8897 37.8241 51.1264 37.8241C51.4293 37.8241 51.6894 37.7662 51.9072 37.6505C52.125 37.5347 52.3404 37.3776 52.5533 37.1789L53.1142 37.7461C52.9864 37.8832 52.8528 38.0051 52.7131 38.1114L52.7123 38.1106Z" fill="#19286C"/>
<path d="M55.8568 38.6426C55.7812 38.8363 55.7031 38.9993 55.6226 39.1318C55.542 39.264 55.452 39.3715 55.353 39.4544C55.2535 39.5369 55.1446 39.5972 55.0263 39.6354C54.9079 39.6732 54.7731 39.6921 54.6215 39.6921C54.4415 39.6921 54.282 39.6715 54.1423 39.6313C54.0026 39.5907 53.8666 39.5345 53.7342 39.463L54.0252 38.8199C54.1057 38.8626 54.1871 38.8967 54.2701 38.9225C54.3527 38.9484 54.4394 38.9615 54.529 38.9615C54.6519 38.9615 54.7538 38.9307 54.8344 38.8696C54.9149 38.808 54.9905 38.6948 55.0616 38.5298L53.5 34.793H54.4156L55.4804 37.5719L56.4531 34.793H57.3477L55.8568 38.6426Z" fill="#19286C"/>
<path d="M61.8244 37.4965C61.7274 37.7374 61.5971 37.9422 61.434 38.1097C61.2708 38.2776 61.0838 38.404 60.873 38.4889C60.6622 38.5739 60.446 38.6166 60.2233 38.6166C59.9155 38.6166 59.6599 38.5505 59.4565 38.4179C59.253 38.2858 59.085 38.1319 58.9526 37.957L58.9596 38.5386H58.0938V33.3633H58.9596V35.4194C59.0965 35.2208 59.2666 35.0542 59.4696 34.9196C59.6726 34.7849 59.9254 34.7176 60.2274 34.7176C60.4493 34.7176 60.6642 34.7603 60.8718 34.8453C61.0793 34.9302 61.2651 35.0571 61.4278 35.2245C61.5905 35.3924 61.7216 35.5967 61.8211 35.8377C61.9201 36.0786 61.9698 36.3552 61.9698 36.6671C61.9698 36.979 61.9214 37.2556 61.8244 37.4965ZM61.0185 36.1672C60.9618 36.0182 60.8845 35.8918 60.7879 35.788C60.691 35.6842 60.5771 35.6037 60.4473 35.5471C60.317 35.4904 60.1785 35.4621 60.0318 35.4621C59.8851 35.4621 59.7454 35.4904 59.613 35.5471C59.4803 35.6037 59.3644 35.6854 59.2654 35.7917C59.1659 35.898 59.0866 36.0244 59.0274 36.1709C58.9683 36.3174 58.9387 36.4828 58.9387 36.6671C58.9387 36.8514 58.9683 37.0168 59.0274 37.1633C59.0866 37.3098 59.1659 37.4362 59.2654 37.5425C59.3648 37.6488 59.4807 37.7305 59.613 37.7871C59.7454 37.8437 59.8851 37.8721 60.0318 37.8721C60.1785 37.8721 60.317 37.8437 60.4473 37.7871C60.5775 37.7305 60.691 37.65 60.7879 37.5462C60.8849 37.4424 60.9618 37.316 61.0185 37.167C61.0752 37.018 61.1036 36.8514 61.1036 36.6671C61.1036 36.4828 61.0752 36.3162 61.0185 36.1672Z" fill="#19286C"/>
<path d="M63.8655 37.6747C64.0594 37.8377 64.2961 37.9193 64.5752 37.9193C64.788 37.9193 64.9726 37.8816 65.1287 37.8061C65.2849 37.7305 65.4386 37.6193 65.5902 37.4728L66.0941 37.9193C65.9141 38.1319 65.7 38.3023 65.4517 38.4299C65.2035 38.5575 64.9064 38.6211 64.5608 38.6211C64.2912 38.6211 64.0389 38.5739 63.8046 38.4791C63.5704 38.3847 63.367 38.2522 63.194 38.0823C63.021 37.912 62.8853 37.7076 62.7859 37.4691C62.6864 37.2307 62.6367 36.9647 62.6367 36.6717C62.6367 36.4025 62.6815 36.1496 62.7715 35.9132C62.8615 35.6768 62.9881 35.47 63.1512 35.2927C63.3144 35.1154 63.5071 34.975 63.7298 34.8708C63.9522 34.767 64.1983 34.7148 64.4679 34.7148C64.7659 34.7148 65.0276 34.7694 65.2524 34.8778C65.4772 34.9865 65.6642 35.1331 65.8134 35.3173C65.9625 35.5016 66.0747 35.7167 66.1508 35.9625C66.2264 36.2083 66.2642 36.4657 66.2642 36.7353C66.2642 36.7731 66.263 36.8108 66.2605 36.8486C66.258 36.8863 66.2543 36.9266 66.2498 36.9692H63.4956C63.5478 37.2766 63.6707 37.5114 63.8646 37.6747H63.8655ZM65.4131 36.402C65.3991 36.265 65.3679 36.1361 65.3206 36.0158C65.2734 35.8952 65.2093 35.7914 65.1291 35.7039C65.0486 35.6165 64.9528 35.5467 64.8415 35.4946C64.7301 35.4425 64.6035 35.4166 64.4618 35.4166C64.1967 35.4166 63.9777 35.5078 63.8051 35.6896C63.632 35.8714 63.5268 36.109 63.489 36.402H65.4127H65.4131Z" fill="#19286C"/>
<path d="M67.9987 38.5422H67.1328V34.7988H67.9987V35.6426C68.117 35.359 68.2851 35.1321 68.5025 34.9622C68.7203 34.7919 68.9948 34.7139 69.3261 34.7282V35.6357H69.2763C69.0869 35.6357 68.9143 35.6664 68.7581 35.728C68.602 35.7896 68.4672 35.8815 68.3533 36.0046C68.2399 36.1277 68.152 36.2825 68.0907 36.4688C68.0291 36.6555 67.9983 36.8718 67.9983 37.1177V38.5426L67.9987 38.5422Z" fill="#19286C"/>
<path d="M70.9469 35.1271C70.9802 35.1981 71.0406 35.2642 71.1286 35.3257C71.2161 35.3873 71.3374 35.4439 71.4915 35.496C71.6456 35.5482 71.8416 35.6023 72.0787 35.659C72.3397 35.7251 72.571 35.7985 72.7728 35.879C72.9746 35.9594 73.1414 36.0575 73.2746 36.1732C73.4073 36.289 73.5084 36.424 73.577 36.5775C73.6457 36.731 73.6802 36.912 73.6802 37.1196C73.6802 37.356 73.6366 37.5662 73.5499 37.7504C73.4632 37.9347 73.3424 38.0907 73.1875 38.2183C73.0325 38.3459 72.8464 38.4428 72.6294 38.5089C72.412 38.575 72.1732 38.6082 71.9131 38.6082C71.5297 38.6082 71.1631 38.5434 70.8126 38.4133C70.4624 38.2832 70.1382 38.0837 69.8398 37.8141L70.365 37.1902C70.6063 37.3983 70.85 37.558 71.0961 37.6688C71.3423 37.78 71.6213 37.8354 71.9336 37.8354C72.2032 37.8354 72.4173 37.7788 72.576 37.6651C72.7346 37.5518 72.8139 37.3983 72.8139 37.2042C72.8139 37.1143 72.7983 37.0339 72.7675 36.9633C72.7366 36.8927 72.6795 36.8274 72.5965 36.7683C72.5135 36.7092 72.3997 36.6538 72.255 36.6017C72.1104 36.5496 71.9217 36.4954 71.6891 36.4388C71.4232 36.3772 71.1874 36.3087 70.9811 36.2331C70.7748 36.1576 70.6013 36.0628 70.4616 35.9496C70.3215 35.8363 70.2146 35.6992 70.1411 35.5383C70.0675 35.3778 70.0309 35.1817 70.0309 34.9498C70.0309 34.7327 70.0733 34.5349 70.1575 34.358C70.2422 34.1807 70.3581 34.0284 70.506 33.9008C70.6539 33.7731 70.8315 33.675 71.0394 33.6065C71.2474 33.538 71.4742 33.5039 71.7204 33.5039C72.0849 33.5039 72.4124 33.5573 72.7034 33.6636C72.9943 33.7699 73.2676 33.9246 73.5232 34.1277L73.0547 34.7873C72.8275 34.6219 72.6027 34.4955 72.3803 34.408C72.158 34.3206 71.9332 34.2767 71.706 34.2767C71.4504 34.2767 71.2515 34.3346 71.1097 34.4503C70.9675 34.5661 70.8968 34.7068 70.8968 34.8722C70.8968 34.9715 70.9133 35.0565 70.9465 35.1275L70.9469 35.1271Z" fill="#19286C"/>
<path d="M75.6272 37.6747C75.8211 37.8377 76.0579 37.9193 76.3369 37.9193C76.5498 37.9193 76.7343 37.8816 76.8904 37.8061C77.0466 37.7305 77.2003 37.6193 77.3519 37.4728L77.8558 37.9193C77.6758 38.1319 77.4617 38.3023 77.2135 38.4299C76.9652 38.5575 76.6681 38.6211 76.3225 38.6211C76.0529 38.6211 75.8006 38.5739 75.5664 38.4791C75.3321 38.3847 75.1287 38.2522 74.9557 38.0823C74.7827 37.912 74.6471 37.7076 74.5476 37.4691C74.4482 37.2307 74.3984 36.9647 74.3984 36.6717C74.3984 36.4025 74.4432 36.1496 74.5332 35.9132C74.6232 35.6768 74.7498 35.47 74.9129 35.2927C75.0761 35.1154 75.2688 34.975 75.4916 34.8708C75.7139 34.767 75.96 34.7148 76.2296 34.7148C76.5276 34.7148 76.7893 34.7694 77.0141 34.8778C77.2389 34.9865 77.4259 35.1331 77.5751 35.3173C77.7243 35.5016 77.8365 35.7167 77.9125 35.9625C77.9881 36.2083 78.0259 36.4657 78.0259 36.7353C78.0259 36.7731 78.0247 36.8108 78.0222 36.8486C78.0197 36.8863 78.016 36.9266 78.0115 36.9692H75.2573C75.3095 37.2766 75.4324 37.5114 75.6264 37.6747H75.6272ZM77.1748 36.402C77.1608 36.265 77.1296 36.1361 77.0824 36.0158C77.0351 35.8952 76.971 35.7914 76.8909 35.7039C76.8103 35.6165 76.7146 35.5467 76.6032 35.4946C76.4918 35.4425 76.3652 35.4166 76.2235 35.4166C75.9584 35.4166 75.7394 35.5078 75.5668 35.6896C75.3938 35.8714 75.2886 36.109 75.2508 36.402H77.1744H77.1748Z" fill="#19286C"/>
<path d="M81.5381 38.4262C81.3014 38.5563 81.001 38.6211 80.6364 38.6211C80.357 38.6211 80.0993 38.5703 79.8626 38.4689C79.6259 38.3671 79.4204 38.228 79.2462 38.0507C79.0719 37.8734 78.9359 37.6678 78.8381 37.4338C78.7403 37.1999 78.6914 36.9483 78.6914 36.6787C78.6914 36.409 78.7403 36.1566 78.8381 35.9202C78.9359 35.6838 79.0719 35.4762 79.2462 35.2964C79.4204 35.1166 79.6271 34.975 79.8659 34.8708C80.1051 34.767 80.364 34.7148 80.6434 34.7148C80.9985 34.7148 81.2931 34.7739 81.5274 34.8921C81.7616 35.0103 81.9663 35.1663 82.1413 35.36L81.6087 35.9342C81.476 35.7971 81.3355 35.6851 81.1863 35.5972C81.0371 35.5098 80.8538 35.4659 80.636 35.4659C80.4799 35.4659 80.3356 35.4979 80.2029 35.5615C80.0701 35.6251 79.9567 35.7117 79.8622 35.8205C79.7677 35.9293 79.6929 36.0557 79.6386 36.1997C79.584 36.3438 79.5569 36.4989 79.5569 36.6639C79.5569 36.8289 79.584 36.9926 79.6386 37.1387C79.6929 37.2853 79.7702 37.4129 79.8692 37.5216C79.9686 37.6304 80.087 37.7166 80.2243 37.7802C80.3615 37.8438 80.5127 37.8758 80.6788 37.8758C80.8822 37.8758 81.061 37.8323 81.2146 37.7445C81.3683 37.6571 81.5138 37.545 81.6511 37.4076L82.1693 37.9181C81.9848 38.1262 81.774 38.2949 81.5377 38.425L81.5381 38.4262Z" fill="#19286C"/>
<path d="M26.8581 33.3594V38.3221H25.9922V33.3594H26.8581Z" fill="#19286C"/>
<path d="M28.9596 38.3643H28.0938V34.6209H28.9596V35.2082C29.0209 35.1175 29.0883 35.033 29.1614 34.9542C29.2346 34.8754 29.3196 34.8052 29.4162 34.7432C29.5128 34.6813 29.6192 34.6324 29.7347 34.5967C29.8502 34.561 29.9813 34.543 30.1276 34.543C30.5521 34.543 30.8804 34.6731 31.1114 34.9329C31.3423 35.1927 31.4582 35.5427 31.4582 35.9823V38.3643H30.5923V36.2425C30.5923 35.9503 30.5233 35.725 30.3848 35.5669C30.2463 35.4089 30.0503 35.3301 29.7971 35.3301C29.544 35.3301 29.3467 35.4114 29.1918 35.5743C29.0369 35.7373 28.9596 35.9646 28.9596 36.2568V38.3647V38.3643Z" fill="#19286C"/>
<path d="M34.532 34.5654V35.2742H33.5523V38.2801H32.6864V35.2742H32.2109V34.558H32.6864V34.2888C32.6864 33.8731 32.7867 33.5644 32.9868 33.3637C33.1874 33.1631 33.473 33.0625 33.8432 33.0625C33.9945 33.0625 34.1247 33.0719 34.2336 33.0908C34.3425 33.1097 34.444 33.1335 34.539 33.1618V33.885C34.4539 33.8566 34.3721 33.8341 34.294 33.8177C34.216 33.8012 34.1297 33.7926 34.0347 33.7926C33.7035 33.7926 33.5379 33.9818 33.5379 34.3598V34.5654H34.5316H34.532Z" fill="#19286C"/>
<path d="M36.0299 38.3586H35.1641V34.6152H36.0299V35.459C36.1483 35.1754 36.3164 34.9485 36.5338 34.7786C36.7516 34.6083 37.0261 34.5303 37.3573 34.5446V35.4521H37.3076C37.1181 35.4521 36.9455 35.4828 36.7894 35.5444C36.6332 35.606 36.4984 35.6979 36.3846 35.821C36.2712 35.9441 36.1832 36.0989 36.122 36.2852C36.0603 36.4719 36.0295 36.6882 36.0295 36.9341V38.359L36.0299 38.3586Z" fill="#19286C"/>
<path d="M40.2128 38.3434V37.8825C40.085 38.0339 39.9218 38.1616 39.7229 38.2654C39.524 38.3692 39.2828 38.4214 38.9988 38.4214C38.8188 38.4214 38.6487 38.3967 38.4876 38.3471C38.3265 38.2974 38.186 38.2244 38.0652 38.1275C37.9443 38.0306 37.8473 37.91 37.7742 37.7659C37.7006 37.6219 37.6641 37.4553 37.6641 37.2661V37.2517C37.6641 37.0485 37.7019 36.8712 37.7775 36.7198C37.8531 36.5688 37.9583 36.4432 38.0935 36.3439C38.2283 36.2445 38.3894 36.1703 38.5764 36.1206C38.7634 36.0709 38.9655 36.0463 39.1833 36.0463C39.4012 36.0463 39.6033 36.0607 39.762 36.089C39.9206 36.1173 40.0731 36.1551 40.2198 36.2023V36.1099C40.2198 35.8501 40.1405 35.6515 39.9818 35.5144C39.8232 35.3773 39.5951 35.3088 39.2968 35.3088C39.0839 35.3088 38.8944 35.3301 38.7288 35.3724C38.5632 35.4151 38.3951 35.4717 38.225 35.5427L37.9908 34.8549C38.1991 34.7605 38.412 34.6846 38.6298 34.6279C38.8476 34.5713 39.1102 34.543 39.4176 34.543C39.9761 34.543 40.3903 34.6813 40.6599 34.9579C40.9295 35.2345 41.0647 35.6232 41.0647 36.1243V38.3434H40.2128ZM40.2342 36.7555C40.1252 36.7128 39.9962 36.6775 39.8474 36.6492C39.6983 36.6209 39.5409 36.6065 39.3753 36.6065C39.1057 36.6065 38.8949 36.6586 38.7436 36.7625C38.592 36.8663 38.5164 37.0153 38.5164 37.209V37.2234C38.5164 37.4031 38.5862 37.5402 38.726 37.6346C38.8657 37.729 39.0371 37.7766 39.2405 37.7766C39.3822 37.7766 39.5138 37.7577 39.6346 37.72C39.7554 37.6822 39.8606 37.6289 39.9506 37.5603C40.0406 37.4918 40.1105 37.4093 40.1602 37.312C40.2099 37.2152 40.2346 37.1076 40.2346 36.9894V36.7555H40.2342Z" fill="#19286C"/>
<path d="M5.41647 38.3613H4.49348L3.98965 37.1633H1.63983L1.12861 38.3613H0.234375L2.42105 33.3633H3.23021L5.41688 38.3613H5.41647ZM2.81104 34.4053L1.95914 36.3905H3.66993L2.81104 34.4053Z" fill="#19286C"/>
<path d="M9.89859 37.3188C9.8016 37.5597 9.67133 37.7645 9.50818 37.9319C9.34503 38.0998 9.15805 38.2262 8.94723 38.3112C8.73642 38.3961 8.52025 38.4388 8.29752 38.4388C7.98972 38.4388 7.7341 38.3727 7.53068 38.2402C7.32726 38.108 7.15918 37.9541 7.02686 37.7793L7.03384 39.4948H6.16797V34.617H7.03384V35.2409C7.17069 35.0422 7.34082 34.8756 7.54383 34.741C7.74684 34.6064 7.99958 34.5391 8.30163 34.5391C8.52354 34.5391 8.73847 34.5817 8.946 34.6667C9.15394 34.7517 9.33928 34.8785 9.50202 35.0459C9.66475 35.2138 9.79585 35.4182 9.8953 35.6591C9.99434 35.9 10.0441 36.1766 10.0441 36.4885C10.0441 36.8004 9.99557 37.077 9.89859 37.318V37.3188ZM9.09271 35.9895C9.036 35.8405 8.95915 35.7141 8.86217 35.6102C8.76518 35.5064 8.65135 35.426 8.52149 35.3693C8.39122 35.3127 8.25273 35.2844 8.10602 35.2844C7.95931 35.2844 7.81958 35.3127 7.68726 35.3693C7.55452 35.426 7.43863 35.5076 7.33959 35.6139C7.24014 35.7202 7.16083 35.8466 7.10165 35.9932C7.04247 36.1397 7.01288 36.3051 7.01288 36.4893C7.01288 36.6736 7.04247 36.839 7.10165 36.9855C7.16083 37.132 7.24014 37.2584 7.33959 37.3647C7.43904 37.471 7.55493 37.5527 7.68726 37.6094C7.81958 37.666 7.95931 37.6943 8.10602 37.6943C8.25273 37.6943 8.39122 37.666 8.52149 37.6094C8.65176 37.5527 8.76518 37.4723 8.86217 37.3684C8.95915 37.2646 9.036 37.1382 9.09271 36.9892C9.14942 36.8402 9.17778 36.6736 9.17778 36.4893C9.17778 36.3051 9.14942 36.1384 9.09271 35.9895Z" fill="#19286C"/>
<path d="M14.6525 37.3188C14.5555 37.5597 14.4252 37.7645 14.2621 37.9319C14.0989 38.0998 13.912 38.2262 13.7011 38.3112C13.4903 38.3961 13.2742 38.4388 13.0514 38.4388C12.7436 38.4388 12.488 38.3727 12.2846 38.2402C12.0812 38.108 11.9131 37.9541 11.7808 37.7793L11.7877 39.4948H10.9219V34.617H11.7877V35.2409C11.9246 35.0422 12.0947 34.8756 12.2977 34.741C12.5008 34.6064 12.7535 34.5391 13.0555 34.5391C13.2774 34.5391 13.4924 34.5817 13.6999 34.6667C13.9078 34.7517 14.0932 34.8785 14.2559 35.0459C14.4187 35.2138 14.5498 35.4182 14.6492 35.6591C14.7482 35.9 14.798 36.1766 14.798 36.4885C14.798 36.8004 14.7495 37.077 14.6525 37.318V37.3188ZM13.8466 35.9895C13.7899 35.8405 13.7131 35.7141 13.6161 35.6102C13.5191 35.5064 13.4053 35.426 13.2754 35.3693C13.1451 35.3127 13.0066 35.2844 12.8599 35.2844C12.7132 35.2844 12.5735 35.3127 12.4412 35.3693C12.3084 35.426 12.1925 35.5076 12.0935 35.6139C11.994 35.7202 11.9147 35.8466 11.8556 35.9932C11.7964 36.1397 11.7668 36.3051 11.7668 36.4893C11.7668 36.6736 11.7964 36.839 11.8556 36.9855C11.9147 37.132 11.994 37.2584 12.0935 37.3647C12.1929 37.471 12.3088 37.5527 12.4412 37.6094C12.5735 37.666 12.7132 37.6943 12.8599 37.6943C13.0066 37.6943 13.1451 37.666 13.2754 37.6094C13.4057 37.5527 13.5191 37.4723 13.6161 37.3684C13.7131 37.2646 13.7899 37.1382 13.8466 36.9892C13.9033 36.8402 13.9317 36.6736 13.9317 36.4893C13.9317 36.3051 13.9033 36.1384 13.8466 35.9895Z" fill="#19286C"/>
<path d="M18.25 37.7735C18.1789 37.9201 18.0807 38.042 17.9554 38.1388C17.83 38.2357 17.6821 38.3091 17.5115 38.3588C17.341 38.4085 17.1589 38.4331 16.965 38.4331C16.6954 38.4331 16.4221 38.3859 16.1451 38.2911C15.8681 38.1967 15.6113 38.0571 15.375 37.8729L15.7584 37.2913C15.9618 37.4428 16.169 37.5573 16.3794 37.6352C16.5898 37.7132 16.7924 37.7522 16.9863 37.7522C17.1803 37.7522 17.3139 37.7157 17.4158 37.6422C17.5177 37.5692 17.5682 37.4711 17.5682 37.3479V37.3336C17.5682 37.2626 17.5456 37.2014 17.5009 37.1493C17.4556 37.0972 17.3944 37.0512 17.3163 37.011C17.2383 36.9708 17.1483 36.9355 17.0467 36.9047C16.9448 36.8739 16.8396 36.8423 16.7307 36.8091C16.5935 36.7664 16.455 36.7192 16.3153 36.6675C16.1755 36.6154 16.0502 36.5481 15.9388 36.4656C15.8275 36.3831 15.7366 36.2813 15.6655 36.1606C15.5944 36.04 15.5591 35.8902 15.5591 35.7104V35.696C15.5591 35.5212 15.5932 35.3628 15.6618 35.2212C15.7305 35.0792 15.825 34.9589 15.9458 34.8596C16.0666 34.7603 16.2084 34.6848 16.3716 34.6327C16.5347 34.5805 16.7089 34.5547 16.8935 34.5547C17.1302 34.5547 17.3689 34.5924 17.6106 34.668C17.8518 34.7435 18.0721 34.8477 18.2706 34.9799L17.9299 35.5897C17.7499 35.481 17.5678 35.3948 17.3833 35.3312C17.1988 35.2676 17.0283 35.2356 16.8721 35.2356C16.7065 35.2356 16.5774 35.2709 16.4854 35.3419C16.3933 35.4129 16.3469 35.5027 16.3469 35.6111V35.6255C16.3469 35.6915 16.3707 35.7494 16.418 35.7991C16.4653 35.8487 16.5281 35.8934 16.6062 35.9337C16.6843 35.9739 16.7743 36.0116 16.8758 36.0469C16.9777 36.0822 17.0829 36.1167 17.1918 36.1495C17.3291 36.1922 17.4663 36.2419 17.6036 36.2985C17.7408 36.3552 17.865 36.4249 17.9763 36.5078C18.0873 36.5907 18.1785 36.6909 18.2496 36.8091C18.3207 36.9273 18.356 37.0713 18.356 37.2417V37.2556C18.356 37.4542 18.3207 37.6266 18.2496 37.7731L18.25 37.7735Z" fill="#19286C"/>
<path d="M0.851072 42.5625V45.4461H0.347656V42.5625H0.850661H0.851072Z" fill="#19286C"/>
<path d="M3.63825 42.5625H4.14126V45.4461H3.71715L2.12842 43.3948V45.4461H1.625V42.5625H2.09431L3.63784 44.5563V42.5625H3.63825Z" fill="#19286C"/>
<path d="M6.10692 45.4456H5.59529V43.032H4.67969V42.5625H7.02252V43.032H6.10692V45.4456Z" fill="#19286C"/>
<path d="M9.69472 43.0197H8.0616V43.7613H9.50938V44.2185H8.0616V44.9889H9.71568V45.4461H7.55859V42.5625H9.69513V43.0197H9.69472Z" fill="#19286C"/>
<path d="M12.1725 45.4461L11.4607 44.441H10.8237V45.4461H10.3203V42.5625H11.607C11.7718 42.5625 11.921 42.5838 12.0545 42.6265C12.1877 42.6692 12.3007 42.7295 12.3927 42.8079C12.4848 42.8863 12.5555 42.9824 12.6052 43.0964C12.6545 43.2105 12.6796 43.3374 12.6796 43.4773C12.6796 43.598 12.6623 43.7059 12.6282 43.8007C12.5937 43.8955 12.5464 43.9792 12.486 44.0519C12.4256 44.1245 12.3533 44.1865 12.2695 44.2374C12.1856 44.2883 12.0927 44.3273 11.9912 44.3548L12.7708 45.4465H12.1729L12.1725 45.4461ZM12.0069 43.142C11.9021 43.0607 11.7545 43.0201 11.5643 43.0201H10.8237V43.9924H11.5684C11.7504 43.9924 11.8951 43.9485 12.0027 43.8602C12.1104 43.772 12.1643 43.6534 12.1643 43.5044C12.1643 43.3443 12.1116 43.2237 12.0069 43.1424V43.142Z" fill="#19286C"/>
<path d="M15.314 42.5625H15.817V45.4461H15.3929L13.8042 43.3948V45.4461H13.3008V42.5625H13.7701L15.3136 44.5563V42.5625H15.314Z" fill="#19286C"/>
<path d="M19.324 45.4509H18.7877L18.4947 44.7549H17.1295L16.8324 45.4509H16.3125L17.5828 42.5469H18.0529L19.3231 45.4509H19.324ZM17.8104 43.1526L17.3156 44.3059H18.3097L17.8108 43.1526H17.8104Z" fill="#19286C"/>
<path d="M20.6694 45.4456H20.1578V43.032H19.2422V42.5625H21.585V43.032H20.6694V45.4456Z" fill="#19286C"/>
<path d="M22.6514 42.5625V45.4461H22.1484V42.5625H22.6514Z" fill="#19286C"/>
<path d="M26.2083 44.5792C26.1339 44.7606 26.0295 44.919 25.8947 45.0548C25.7599 45.1907 25.6005 45.2986 25.4164 45.3782C25.2323 45.4579 25.0288 45.4977 24.8061 45.4977C24.5834 45.4977 24.3799 45.4587 24.1958 45.3803C24.0117 45.3019 23.8535 45.1956 23.7216 45.061C23.5897 44.9264 23.4865 44.7684 23.4121 44.5874C23.3378 44.4064 23.3008 44.2139 23.3008 44.0108C23.3008 43.8076 23.3378 43.6151 23.4121 43.4341C23.4865 43.2531 23.5909 43.0943 23.7257 42.9585C23.8605 42.8226 24.0199 42.7147 24.2041 42.6351C24.3882 42.5554 24.5916 42.5156 24.8143 42.5156C25.0371 42.5156 25.2405 42.5546 25.4246 42.633C25.6087 42.7114 25.7669 42.8177 25.8988 42.9523C26.0307 43.0869 26.1339 43.2449 26.2083 43.4259C26.2826 43.6073 26.3196 43.7994 26.3196 44.0025C26.3196 44.2057 26.2826 44.3978 26.2083 44.5792ZM25.7155 43.6131C25.6675 43.4883 25.6001 43.3791 25.5133 43.2856C25.4266 43.1924 25.3231 43.1181 25.2018 43.0631C25.0806 43.0081 24.9487 42.9806 24.8057 42.9806C24.6627 42.9806 24.5316 43.0073 24.412 43.0611C24.2924 43.1148 24.1901 43.1875 24.1046 43.2794C24.0195 43.3713 23.9526 43.4797 23.9045 43.6049C23.8564 43.73 23.8321 43.8622 23.8321 44.0025C23.8321 44.1429 23.856 44.2751 23.9045 44.4002C23.9526 44.525 24.0199 44.6346 24.1067 44.7277C24.1934 44.8213 24.2969 44.8952 24.4182 44.9502C24.539 45.0052 24.6713 45.0327 24.8143 45.0327C24.9573 45.0327 25.0884 45.006 25.208 44.9522C25.3276 44.8985 25.4299 44.8258 25.5154 44.7339C25.6005 44.642 25.6675 44.5336 25.7155 44.4084C25.7636 44.2837 25.7879 44.1511 25.7879 44.0112C25.7879 43.8712 25.7636 43.7387 25.7155 43.6135V43.6131Z" fill="#19286C"/>
<path d="M28.9468 42.5625H29.4498V45.4461H29.0257L27.437 43.3948V45.4461H26.9336V42.5625H27.4029L28.9464 44.5563V42.5625H28.9468Z" fill="#19286C"/>
<path d="M32.9529 45.4509H32.4166L32.1236 44.7549H30.7584L30.4613 45.4509H29.9414L31.2117 42.5469H31.6818L32.952 45.4509H32.9529ZM31.4393 43.1526L30.9445 44.3059H31.9386L31.4397 43.1526H31.4393Z" fill="#19286C"/>
<path d="M33.4531 42.5625H33.9565V44.9889H35.4742V45.4461H33.4531V42.5625Z" fill="#19286C"/>
<path d="M37.7764 42.5625V45.4461H37.2734V42.5625H37.7764Z" fill="#19286C"/>
<path d="M39.7671 45.4456H39.2554V43.032H38.3398V42.5625H40.6827V43.032H39.7671V45.4456Z" fill="#19286C"/>
<path d="M44.9568 44.5706C44.8825 44.7479 44.7773 44.901 44.6412 45.0299C44.5052 45.1592 44.3429 45.2605 44.1547 45.3348C43.9665 45.4091 43.7593 45.4461 43.5337 45.4461H42.457V42.5625H43.5337C43.7593 42.5625 43.966 42.599 44.1547 42.6717C44.3429 42.7443 44.5052 42.8453 44.6412 42.9746C44.7773 43.1038 44.8825 43.2561 44.9568 43.4318C45.0312 43.6074 45.0682 43.797 45.0682 44.0002C45.0682 44.2033 45.0312 44.3933 44.9568 44.5706ZM44.4637 43.6136C44.4156 43.4937 44.3478 43.3895 44.2611 43.3012C44.1744 43.213 44.0688 43.1441 43.9447 43.0944C43.8206 43.0447 43.6825 43.0201 43.5313 43.0201H42.9604V44.9889H43.5313C43.6829 44.9889 43.8206 44.9646 43.9447 44.9166C44.0688 44.8682 44.174 44.8009 44.2611 44.7139C44.3478 44.6269 44.4156 44.5234 44.4637 44.4036C44.5118 44.2838 44.536 44.152 44.536 44.0088C44.536 43.8656 44.5118 43.7338 44.4637 43.614V43.6136Z" fill="#19286C"/>
<path d="M47.8201 43.0197H46.1866V43.7613H47.6344V44.2185H46.1866V44.9889H47.8407V45.4461H45.6836V42.5625H47.8201V43.0197Z" fill="#19286C"/>
<path d="M48.4496 42.5625H48.9526V44.9889H50.4703V45.4461H48.4492V42.5625H48.4496Z" fill="#19286C"/>
<path d="M51.5347 42.5625V45.4461H51.0312V42.5625H51.5347Z" fill="#19286C"/>
<path d="M54.3601 42.5625H54.9087L53.7084 45.4666H53.2629L52.0625 42.5625H52.6234L53.4938 44.7787L54.3601 42.5625Z" fill="#19286C"/>
<path d="M57.5389 43.0197H55.9054V43.7613H57.3531V44.2185H55.9054V44.9889H57.5594V45.4461H55.4023V42.5625H57.5389V43.0197Z" fill="#19286C"/>
<path d="M60.0158 45.4461L59.304 44.441H58.6671V45.4461H58.1641V42.5625H59.4508C59.6155 42.5625 59.7647 42.5838 59.8983 42.6265C60.0314 42.6692 60.1444 42.7295 60.2365 42.8079C60.3285 42.8863 60.3992 42.9824 60.449 43.0964C60.4983 43.2105 60.5233 43.3374 60.5233 43.4773C60.5233 43.598 60.5061 43.7059 60.472 43.8007C60.4374 43.8955 60.3902 43.9792 60.3298 44.0519C60.2694 44.1245 60.197 44.1865 60.1132 44.2374C60.0294 44.2883 59.9365 44.3273 59.835 44.3548L60.6146 45.4465H60.0166L60.0158 45.4461ZM59.8502 43.142C59.7454 43.0607 59.5979 43.0201 59.4076 43.0201H58.6671V43.9924H59.4117C59.5938 43.9924 59.7384 43.9485 59.8461 43.8602C59.9538 43.772 60.0076 43.6534 60.0076 43.5044C60.0076 43.3443 59.955 43.2237 59.8502 43.1424V43.142Z" fill="#19286C"/>
<path d="M62.4082 45.4456H61.8966V44.3088L60.75 42.5625H61.3479L62.1563 43.8393L62.9728 42.5625H63.5543L62.4078 44.2965V45.4456H62.4082Z" fill="#19286C"/>
<path d="M67.5159 45.1993C67.435 45.2613 67.3474 45.3146 67.2541 45.3598C67.1604 45.4049 67.0581 45.4394 66.9467 45.4628C66.8354 45.4862 66.7121 45.4977 66.5777 45.4977C66.3661 45.4977 66.1709 45.4591 65.9921 45.3824C65.8133 45.3056 65.6588 45.2005 65.5281 45.0672C65.3975 44.9342 65.2951 44.7766 65.2207 44.5956C65.1464 44.4146 65.1094 44.2192 65.1094 44.0108C65.1094 43.8023 65.146 43.611 65.2187 43.43C65.2914 43.2486 65.3942 43.0902 65.5261 42.9544C65.658 42.8185 65.815 42.7114 65.9962 42.633C66.1779 42.5546 66.3784 42.5156 66.5983 42.5156C66.7302 42.5156 66.8506 42.5267 66.9591 42.5485C67.0676 42.5706 67.1674 42.6014 67.2582 42.6412C67.3491 42.681 67.4329 42.7282 67.5097 42.7832C67.5866 42.8382 67.6597 42.8985 67.7284 42.9646L67.4025 43.3393C67.287 43.2322 67.1645 43.1456 67.0355 43.0799C66.9061 43.0139 66.7593 42.981 66.5941 42.981C66.4565 42.981 66.3295 43.0077 66.2128 43.0615C66.0961 43.1148 65.995 43.1879 65.9095 43.2798C65.824 43.3717 65.7583 43.4797 65.7114 43.6032C65.6646 43.7268 65.6411 43.8601 65.6411 44.003C65.6411 44.1458 65.6646 44.2796 65.7114 44.4047C65.7583 44.5295 65.824 44.6391 65.9095 44.7323C65.9946 44.8258 66.0957 44.8993 66.2128 44.9527C66.3295 45.006 66.4569 45.0331 66.5941 45.0331C66.77 45.0331 66.9213 44.9994 67.0478 44.9321C67.1744 44.8648 67.2993 44.7737 67.423 44.6584L67.7489 44.9879C67.6745 45.0676 67.5969 45.1382 67.5159 45.2001V45.1993Z" fill="#19286C"/>
<path d="M70.4139 43.0197H68.7803V43.7613H70.2281V44.2185H68.7803V44.9889H70.4344V45.4461H68.2773V42.5625H70.4139V43.0197Z" fill="#19286C"/>
<path d="M73.0519 42.5625H73.5549V45.4461H73.1308L71.5421 43.3948V45.4461H71.0391V42.5625H71.5084L73.0519 44.5563V42.5625Z" fill="#19286C"/>
<path d="M75.521 45.4456H75.0093V43.032H74.0938V42.5625H76.4366V43.032H75.521V45.4456Z" fill="#19286C"/>
<path d="M78.8244 45.4461L78.1126 44.441H77.4757V45.4461H76.9727V42.5625H78.2593C78.4241 42.5625 78.5733 42.5838 78.7069 42.6265C78.84 42.6692 78.953 42.7295 79.0451 42.8079C79.1371 42.8863 79.2078 42.9824 79.2575 43.0964C79.3069 43.2105 79.3319 43.3374 79.3319 43.4773C79.3319 43.598 79.3147 43.7059 79.2806 43.8007C79.246 43.8955 79.1988 43.9792 79.1384 44.0519C79.078 44.1245 79.0056 44.1865 78.9218 44.2374C78.838 44.2883 78.7451 44.3273 78.6436 44.3548L79.4232 45.4465H78.8252L78.8244 45.4461ZM78.6588 43.142C78.554 43.0607 78.4065 43.0201 78.2162 43.0201H77.4757V43.9924H78.2203C78.4024 43.9924 78.547 43.9485 78.6547 43.8602C78.7624 43.772 78.8162 43.6534 78.8162 43.5044C78.8162 43.3443 78.7636 43.2237 78.6588 43.1424V43.142Z" fill="#19286C"/>
<path d="M82.0936 43.0197H80.46V43.7613H81.9078V44.2185H80.46V44.9889H82.1141V45.4461H79.957V42.5625H82.0936V43.0197Z" fill="#19286C"/>
</g>
<path d="M99.6719 4.25L99.6719 41.75" stroke="#DADADA" stroke-width="0.625" stroke-linecap="round"/>
<g clip-path="url(#clip1_403_27817)">
<path d="M120.558 35.6992C119.397 35.3473 118.888 35.124 118.888 34.4601C118.888 33.866 119.68 33.6551 120.357 33.6551C120.95 33.6551 121.587 33.8314 122.02 34.1147C122.122 34.1813 122.248 34.2016 122.366 34.1689C122.483 34.1376 122.582 34.056 122.637 33.947L122.834 33.5526C122.931 33.3581 122.868 33.1218 122.686 33.0023C122.062 32.5949 121.178 32.3423 120.377 32.3423C118.696 32.3423 117.565 33.206 117.565 34.4914C117.565 36.1614 118.976 36.5837 120.108 36.9239C121.293 37.279 121.811 37.5075 121.805 38.2132C121.805 38.9215 120.971 39.1735 120.191 39.1735C119.444 39.1735 118.631 38.7759 118.136 38.3196C118.038 38.2289 117.911 38.1766 117.779 38.1917C117.646 38.2067 117.528 38.2831 117.46 38.398L117.232 38.7818C117.131 38.9509 117.159 39.167 117.3 39.3054C118.033 40.0274 119.136 40.4766 120.181 40.4766C121.943 40.4766 123.127 39.5619 123.127 38.206C123.141 36.4832 121.708 36.0484 120.558 35.6992Z" fill="#254A9A"/>
<path d="M128.324 32.6159C128.254 32.4637 128.102 32.3658 127.934 32.3658H127.468C127.3 32.3658 127.147 32.4637 127.078 32.6172L123.792 39.8629C123.732 39.9961 123.743 40.1495 123.822 40.2722C123.901 40.3956 124.036 40.4688 124.182 40.4688H124.658C124.827 40.4688 124.98 40.3702 125.049 40.2168L125.868 38.4058H129.556L130.385 40.2187C130.455 40.3708 130.607 40.4688 130.774 40.4688H131.251C131.398 40.4688 131.533 40.3943 131.612 40.2716C131.691 40.1495 131.701 39.9954 131.64 39.8616L128.324 32.6159ZM126.442 37.1132L127.698 34.3289L128.968 37.1132H126.442Z" fill="#254A9A"/>
<path d="M133.793 32.3665H133.358C133.122 32.3665 132.93 32.5584 132.93 32.7947V40.0405C132.93 40.2775 133.122 40.4688 133.358 40.4688H133.793C134.029 40.4688 134.221 40.2775 134.221 40.0405V32.7947C134.221 32.5584 134.029 32.3665 133.793 32.3665Z" fill="#254A9A"/>
<path d="M142.827 32.3665H142.402C142.164 32.3665 141.973 32.5584 141.973 32.7947V38.0722L137.906 32.5408C137.825 32.4305 137.697 32.3665 137.561 32.3665H137.053C136.816 32.3665 136.625 32.5584 136.625 32.7947V40.0405C136.625 40.2775 136.816 40.4688 137.053 40.4688H137.488C137.725 40.4688 137.917 40.2775 137.917 40.0405V34.7656L141.973 40.2951C142.053 40.4041 142.182 40.4688 142.319 40.4688H142.827C143.063 40.4688 143.255 40.2775 143.255 40.0405V32.7947C143.255 32.5584 143.063 32.3665 142.827 32.3665Z" fill="#254A9A"/>
<path d="M150.303 32.3665H144.974C144.738 32.3665 144.547 32.5584 144.547 32.7947V33.2204C144.547 33.456 144.738 33.648 144.974 33.648H146.993V40.0405C146.993 40.2775 147.185 40.4688 147.422 40.4688H147.856C148.093 40.4688 148.285 40.2775 148.285 40.0405V33.648H150.303C150.54 33.648 150.731 33.456 150.731 33.2204V32.7947C150.731 32.5584 150.54 32.3665 150.303 32.3665Z" fill="#254A9A"/>
<path d="M153.49 36.3144H151.178C150.942 36.3144 150.75 36.5057 150.75 36.7427V37.0952C150.75 37.3322 150.942 37.5234 151.178 37.5234H153.49C153.727 37.5234 153.918 37.3322 153.918 37.0952V36.7427C153.918 36.5057 153.727 36.3144 153.49 36.3144Z" fill="#254A9A"/>
<path d="M162.491 36.0543H162.097C162.095 36.0543 162.092 36.0549 162.09 36.0549H160.804C160.567 36.0549 160.375 36.2469 160.375 36.4832V36.9186C160.375 37.155 160.567 37.3469 160.804 37.3469H161.669V38.6715C161.165 39.0175 160.558 39.2055 159.941 39.2055C158.343 39.2055 157.042 37.9521 157.042 36.4107C157.042 34.8746 158.343 33.6251 159.941 33.6251C160.684 33.6251 161.414 33.8986 161.946 34.3759C162.034 34.4542 162.15 34.494 162.267 34.4842C162.384 34.4751 162.492 34.4176 162.566 34.3262L162.825 34.0051C162.968 33.8255 162.947 33.5644 162.773 33.4129C161.995 32.7307 160.988 32.3534 159.941 32.3534C157.631 32.3534 155.75 34.1728 155.75 36.4107C155.75 38.6532 157.621 40.4766 159.921 40.4766C160.96 40.4766 161.998 40.0953 162.771 39.4301C162.865 39.3491 162.92 39.2303 162.92 39.105V36.4825C162.92 36.2469 162.727 36.0543 162.491 36.0543Z" fill="#254A9A"/>
<path d="M168.567 32.3534C166.262 32.3534 164.387 34.1728 164.387 36.4101C164.387 38.6532 166.262 40.4766 168.567 40.4766C170.872 40.4766 172.748 38.6532 172.748 36.4101C172.748 34.1728 170.872 32.3534 168.567 32.3534ZM168.567 39.1951C166.98 39.1951 165.688 37.9455 165.688 36.4101C165.688 34.8799 166.98 33.6356 168.567 33.6356C170.154 33.6356 171.445 34.8799 171.445 36.4101C171.445 37.9455 170.154 39.1951 168.567 39.1951Z" fill="#254A9A"/>
<path d="M179.605 36.1881C180.041 35.8128 180.284 35.2598 180.284 34.5874C180.284 33.2171 179.254 32.3658 177.596 32.3658H174.631C174.395 32.3658 174.203 32.5578 174.203 32.7941V40.0405C174.203 40.2768 174.395 40.4688 174.631 40.4688H177.616C179.514 40.4688 180.646 39.5802 180.646 38.0924C180.646 37.2503 180.265 36.5805 179.605 36.1881ZM177.585 35.6522H175.494V33.648H177.585C178.226 33.648 178.992 33.8197 178.992 34.6396C178.992 35.3114 178.519 35.6522 177.585 35.6522ZM175.494 36.9337H177.585C178.246 36.9337 179.354 37.0773 179.354 38.0396C179.354 38.9881 178.393 39.1872 177.585 39.1872H175.494V36.9337Z" fill="#254A9A"/>
<path d="M185.906 32.6159C185.836 32.4637 185.684 32.3658 185.517 32.3658H185.051C184.881 32.3658 184.729 32.4637 184.66 32.6172L181.374 39.8629C181.314 39.9961 181.325 40.1495 181.405 40.2722C181.484 40.3956 181.619 40.4688 181.765 40.4688H182.242C182.41 40.4688 182.563 40.3702 182.632 40.2168L183.451 38.4058H187.138L187.967 40.2187C188.037 40.3708 188.19 40.4688 188.357 40.4688H188.833C188.979 40.4688 189.115 40.3943 189.194 40.2716C189.273 40.1495 189.284 39.9954 189.223 39.8616L185.906 32.6159ZM184.024 37.1132L185.28 34.3289L186.551 37.1132H184.024Z" fill="#254A9A"/>
<path d="M191.372 32.3665H190.937C190.7 32.3665 190.508 32.5584 190.508 32.7947V40.0405C190.508 40.2775 190.7 40.4688 190.937 40.4688H191.372C191.608 40.4688 191.802 40.2775 191.802 40.0405V32.7947C191.802 32.5584 191.608 32.3665 191.372 32.3665Z" fill="#254A9A"/>
<path d="M200.41 32.3665H199.984C199.748 32.3665 199.556 32.5584 199.556 32.7947V38.0722L195.489 32.5408C195.409 32.4305 195.28 32.3665 195.144 32.3665H194.636C194.399 32.3665 194.207 32.5584 194.207 32.7947V40.0405C194.207 40.2775 194.399 40.4688 194.636 40.4688H195.071C195.308 40.4688 195.499 40.2775 195.499 40.0405V34.7656L199.556 40.2951C199.637 40.4041 199.765 40.4688 199.901 40.4688H200.41C200.646 40.4688 200.837 40.2775 200.837 40.0405V32.7947C200.837 32.5584 200.646 32.3665 200.41 32.3665Z" fill="#254A9A"/>
<path d="M164.198 20.986V28.1097H162.886V20.0061L164.198 20.986ZM189.621 28.0862H184.462L184.426 28.0503L179.888 23.5621C179.704 23.3793 179.419 23.3231 179.178 23.4237C178.934 23.5255 178.776 23.7618 178.776 24.0262V28.1097H177.428V18.0045C177.428 17.8257 177.353 17.6527 177.223 17.5299L173.453 13.9694C173.332 13.8545 173.172 13.7912 173.005 13.7912H171.12C170.76 13.7912 170.467 14.0843 170.467 14.444V28.1097H169.129V6.17068C169.129 5.90432 168.97 5.66735 168.724 5.56682C168.483 5.46759 168.193 5.52764 168.011 5.71239L161.768 12.0481C161.647 12.1708 161.58 12.334 161.58 12.5064V17.4007L159.024 15.4918C158.792 15.3188 158.451 15.3247 158.225 15.5055L152.413 20.1654C152.257 20.2901 152.169 20.4762 152.169 20.6753V28.1097H150.851V24.0119C150.851 22.573 149.86 21.0435 148.026 21.0435C146.19 21.0435 145.2 22.5802 145.2 24.0262V28.1097L143.867 28.109V25.3293C143.867 24.2025 143.092 23.0059 141.655 23.0059C140.217 23.0059 139.442 24.2038 139.442 25.3319V28.1104L138.115 28.111L138.114 27.9876C138.112 27.4275 138.11 26.71 138.11 26.4221C138.11 25.4651 137.207 24.6262 136.177 24.6262C135.146 24.6262 134.243 25.4612 134.243 26.4136V28.1097L128.423 28.109C128.063 28.109 127.77 28.4022 127.77 28.7619C127.77 28.9368 127.837 29.1007 127.961 29.2241C128.084 29.3475 128.248 29.4154 128.422 29.4154L134.896 29.416C135.07 29.416 135.235 29.3481 135.357 29.2247C135.481 29.1013 135.549 28.9375 135.549 28.7632V26.5318C135.549 26.2903 135.812 25.9319 136.177 25.9319C136.536 25.9319 136.804 26.2596 136.804 26.5527C136.804 26.7205 136.811 28.7671 136.811 28.7671C136.813 29.1262 137.105 29.418 137.464 29.418L140.095 29.416C140.455 29.416 140.748 29.1229 140.748 28.7632V25.3319C140.748 24.9787 140.937 24.3115 141.655 24.3115C142.372 24.3115 142.562 24.9768 142.562 25.3293V28.7612C142.562 29.1216 142.854 29.4147 143.214 29.4147L145.852 29.416C146.024 29.416 146.193 29.3462 146.314 29.2247C146.435 29.1033 146.505 28.9349 146.505 28.7632V24.0262C146.505 23.4465 146.823 22.3491 148.026 22.3491C149.14 22.3491 149.545 23.3434 149.545 24.0119V28.7632C149.545 29.1229 149.838 29.416 150.198 29.416H152.821C153.182 29.416 153.474 29.1229 153.474 28.7632V20.9886L153.521 20.9508L158.647 16.8405L161.58 19.0308V28.7632C161.58 29.1229 161.873 29.416 162.233 29.416H164.851C165.211 29.416 165.504 29.1229 165.504 28.7632V20.6583C165.504 20.454 165.405 20.2581 165.242 20.1354L162.886 18.376V12.7741L162.922 12.7375L167.823 7.76359V28.7632C167.823 29.1229 168.116 29.416 168.476 29.416H171.12C171.48 29.416 171.773 29.1229 171.773 28.7632V15.0968H172.745L172.781 15.1308L176.122 18.2859V28.7632C176.122 29.1229 176.415 29.416 176.775 29.416H179.429C179.789 29.416 180.082 29.1229 180.082 28.7632V25.5904L183.734 29.2032C183.858 29.3246 184.021 29.3919 184.193 29.3919H189.621C189.981 29.3919 190.275 29.0987 190.275 28.739C190.275 28.3787 189.981 28.0862 189.621 28.0862Z" fill="url(#paint0_linear_403_27817)"/>
</g>
<defs>
<linearGradient id="paint0_linear_403_27817" x1="127.696" y1="17.4686" x2="190.448" y2="17.4686" gradientUnits="userSpaceOnUse">
<stop stop-color="#54B6AE"/>
<stop offset="0.1" stop-color="#54B6AE"/>
<stop offset="0.3" stop-color="#3B98DA"/>
<stop offset="0.42" stop-color="#254A9A"/>
<stop offset="0.55" stop-color="#ED1443"/>
<stop offset="0.84" stop-color="#F25C19"/>
<stop offset="1" stop-color="#F25C19"/>
</linearGradient>
<clipPath id="clip0_403_27817">
<rect width="82.0066" height="45" fill="white" transform="translate(0.164062 0.5)"/>
</clipPath>
<clipPath id="clip1_403_27817">
<rect width="83.6655" height="37.5" fill="white" transform="translate(117.172 4.25)"/>
</clipPath>
</defs>
</svg>
