<svg width="243" height="63" viewBox="0 0 243 63" fill="none" xmlns="http://www.w3.org/2000/svg">
<path fill-rule="evenodd" clip-rule="evenodd" d="M84.0906 36.3053C80.6196 36.3053 77.8293 35.4288 75.8123 33.702C73.7952 31.9884 72.7734 29.6339 72.7734 26.7298C72.7734 25.1337 73.1401 23.6428 73.8607 22.295C74.5813 20.9344 75.6292 19.7964 76.9517 18.8807C77.8426 18.279 78.8511 17.8342 79.9251 17.5594C81.0124 17.2846 82.4009 17.1406 84.0641 17.1406H85.361V18.3047H83.7235C80.9071 18.3047 78.5888 19.0897 76.8337 20.6464C75.0652 22.2031 74.1748 24.2569 74.1748 26.7294C74.1748 29.2019 75.0785 31.2423 76.8469 32.7991C78.6154 34.3558 80.9337 35.1408 83.7235 35.1408H85.361V36.3049H84.0906V36.3053Z" fill="white"/>
<path d="M70.342 26.0801H58.6055V27.4142H70.342V26.0801Z" fill="white"/>
<path fill-rule="evenodd" clip-rule="evenodd" d="M66.3062 24.6927H67.6947C67.5766 24.0778 67.4067 23.4761 67.171 22.9005C66.9091 22.2462 66.5685 21.6317 66.1753 21.0429C65.8479 20.5587 65.4812 20.1011 65.0619 19.6695C64.1582 18.7409 63.1103 18.0213 61.9443 17.5371C60.7788 17.053 59.534 16.8047 58.2504 16.8047C56.9667 16.8047 55.7224 17.0534 54.5564 17.5371C53.4037 18.0213 52.343 18.7405 51.4389 19.6695C50.5091 20.6374 49.7885 21.7364 49.3037 22.9398C48.8189 24.1431 48.5703 25.4123 48.5703 26.7203V26.7464C48.5703 28.0544 48.8193 29.3236 49.3037 30.5269C49.7885 31.7175 50.5086 32.8161 51.4389 33.7972C52.3426 34.7258 53.3905 35.4454 54.5564 35.9296C55.722 36.4138 56.9667 36.662 58.2504 36.662C59.534 36.662 60.7783 36.4133 61.9443 35.9296C63.1099 35.4454 64.1578 34.7263 65.0619 33.7972C65.4812 33.3657 65.8479 32.9076 66.1753 32.4238C66.5681 31.8482 66.9087 31.2205 67.171 30.5662C67.4067 29.9906 67.577 29.389 67.6947 28.774H66.3062C66.1881 29.3757 65.9656 29.9513 65.7166 30.5137C65.4941 31.0239 65.2057 31.5081 64.8783 31.9657C64.7735 32.1097 64.6687 32.2405 64.5639 32.3845C64.4197 32.5678 64.2759 32.7379 64.1056 32.9076C62.5074 34.5951 60.5426 35.4583 58.2504 35.4583C55.9582 35.4583 53.9672 34.6079 52.3558 32.9076C50.7709 31.2333 49.9588 29.1531 49.9455 26.7331C49.9455 24.3132 50.7577 22.233 52.3558 20.5587C53.954 18.8712 55.9317 18.008 58.2504 18.008C60.5691 18.008 62.5207 18.8712 64.1056 20.5587C64.4201 20.8989 64.7081 21.2519 64.9699 21.6446C65.3366 22.1809 65.6379 22.7432 65.8608 23.3453C66.005 23.7376 66.1226 24.1303 66.2536 24.5226C66.2668 24.588 66.2929 24.6401 66.3058 24.6927" fill="white"/>
<path fill-rule="evenodd" clip-rule="evenodd" d="M36.0767 36.6741C33.3129 36.6741 30.9814 35.7323 29.1736 33.8615C27.3662 31.9907 26.4492 29.5968 26.4492 26.732C26.4492 25.3847 26.685 24.1027 27.1433 22.9122C27.6015 21.7216 28.2827 20.6358 29.1736 19.694C30.0644 18.7521 31.1252 18.0197 32.304 17.5223C33.4828 17.0253 34.7797 16.7766 36.1682 16.7766C37.3997 16.7766 38.5785 16.9988 39.6786 17.4309C40.7659 17.8625 41.7877 18.4906 42.7307 19.3278V21.0153C41.8399 20.0734 40.8707 19.3538 39.8622 18.8568C38.7227 18.3073 37.4784 18.0325 36.1554 18.0325C33.7716 18.0325 31.7674 18.8697 30.2086 20.5179C28.6498 22.166 27.8638 24.2723 27.8638 26.7837C27.8638 29.2951 28.6627 31.3753 30.2476 33.0368C31.8325 34.6982 33.8234 35.5353 36.1682 35.5353C38.6701 35.5353 40.6871 34.6456 42.1805 32.8799C43.6605 31.127 44.4205 28.7332 44.4205 25.7637V7.73828H45.7563V25.5945C45.7563 27.0204 45.6515 28.2499 45.4418 29.2703C45.2322 30.2775 44.8916 31.1672 44.4333 31.9257C43.5035 33.4431 42.2981 34.6204 40.8574 35.4315C39.4035 36.2558 37.7925 36.6741 36.0767 36.6741Z" fill="white"/>
<path fill-rule="evenodd" clip-rule="evenodd" d="M21.0357 36.3078V24.914C21.0357 22.8603 20.4332 21.1596 19.2411 19.8776C18.049 18.5956 16.4641 17.9414 14.5647 17.9414C12.6653 17.9414 11.0804 18.5956 9.88835 19.8776C8.69626 21.1596 8.0938 22.8471 8.0938 24.914V36.3078H6.79688V25.4371C6.79688 22.7945 7.50417 20.6626 8.91876 19.1058C10.3205 17.5623 12.2195 16.7773 14.5643 16.7773C16.9091 16.7773 18.8081 17.5623 20.2098 19.1058C21.6116 20.6626 22.3317 22.7949 22.3317 25.4371V36.3078H21.0348H21.0357Z" fill="white"/>
<path d="M1.33586 17.1309H0V36.3083H1.33586V17.1309Z" fill="white"/>
<path d="M22.3164 48.4873V41.6484H23.0335V48.4873H22.3164Z" fill="white"/>
<path d="M46.1211 48.4873V41.6484H46.8382V48.4873H46.1211Z" fill="white"/>
<path d="M54.7228 46.9005C54.5773 47.0112 54.4207 47.1073 54.2534 47.1885C54.0857 47.2697 53.9021 47.3312 53.7027 47.3731C53.5034 47.415 53.2826 47.4359 53.0412 47.4359C52.6617 47.4359 52.3121 47.3671 51.9916 47.2291C51.6711 47.0915 51.3939 46.903 51.1602 46.6646C50.9262 46.4262 50.7426 46.1441 50.6096 45.8194C50.4765 45.4946 50.4102 45.145 50.4102 44.7711C50.4102 44.3972 50.4756 44.0549 50.6061 43.7302C50.7366 43.4054 50.9202 43.1212 51.1568 42.8776C51.3934 42.6341 51.6741 42.4422 51.9993 42.302C52.3245 42.1619 52.6839 42.0918 53.0785 42.0918C53.3151 42.0918 53.5303 42.1115 53.7254 42.1508C53.9201 42.1901 54.0985 42.2456 54.2611 42.317C54.4237 42.3884 54.5739 42.4734 54.7121 42.5717C54.8499 42.67 54.9808 42.7785 55.1041 42.8964L54.52 43.5682C54.3129 43.3763 54.0938 43.2212 53.8623 43.1033C53.6304 42.9853 53.3673 42.9259 53.0716 42.9259C52.8252 42.9259 52.5975 42.9738 52.3879 43.0699C52.1782 43.1661 51.9972 43.2964 51.8444 43.4614C51.6917 43.6263 51.5736 43.8195 51.4897 44.0408C51.4059 44.2622 51.3639 44.5011 51.3639 44.757C51.3639 45.013 51.4059 45.2527 51.4897 45.4766C51.5736 45.7006 51.6917 45.8963 51.8444 46.0634C51.9972 46.2309 52.1782 46.3625 52.3879 46.4582C52.5971 46.5543 52.8252 46.6022 53.0716 46.6022C53.387 46.6022 53.6578 46.542 53.8846 46.4214C54.1114 46.3009 54.3356 46.1373 54.5572 45.9305L55.1413 46.521C55.0082 46.6637 54.8692 46.7907 54.7237 46.9013L54.7228 46.9005Z" fill="white"/>
<path d="M58.0008 47.4517C57.9221 47.6534 57.8408 47.823 57.7569 47.961C57.673 48.0986 57.5793 48.2106 57.4762 48.2969C57.3727 48.3828 57.2593 48.4456 57.136 48.4854C57.0128 48.5247 56.8725 48.5443 56.7146 48.5443C56.5272 48.5443 56.3611 48.523 56.2157 48.4811C56.0702 48.4388 55.9285 48.3802 55.7908 48.3059L56.0937 47.6363C56.1776 47.6807 56.2623 47.7162 56.3487 47.7431C56.4347 47.77 56.525 47.7837 56.6183 47.7837C56.7462 47.7837 56.8524 47.7516 56.9362 47.688C57.0201 47.6239 57.0988 47.5059 57.1728 47.3341L55.5469 43.4434H56.5002L57.6089 46.3368L58.6217 43.4434H59.5532L58.0008 47.4517Z" fill="white"/>
<path d="M64.2047 46.2587C64.1037 46.5095 63.968 46.7227 63.7982 46.8971C63.6283 47.0719 63.4336 47.2035 63.2141 47.2919C62.9946 47.3804 62.7695 47.4248 62.5376 47.4248C62.2171 47.4248 61.951 47.356 61.7392 47.218C61.5274 47.0804 61.3524 46.9202 61.2146 46.7381L61.2219 47.3436H60.3203V41.9551H61.2219V44.096C61.3644 43.8892 61.5415 43.7157 61.7529 43.5755C61.9643 43.4353 62.2274 43.3652 62.5419 43.3652C62.773 43.3652 62.9967 43.4097 63.2128 43.4981C63.4289 43.5866 63.6223 43.7186 63.7918 43.893C63.9612 44.0678 64.0977 44.2806 64.2012 44.5314C64.3044 44.7823 64.3561 45.0703 64.3561 45.395C64.3561 45.7198 64.3056 46.0078 64.2047 46.2587ZM63.3656 44.8746C63.3065 44.7194 63.2261 44.5878 63.1255 44.4797C63.0246 44.3716 62.906 44.2878 62.7708 44.2289C62.6352 44.1699 62.491 44.1404 62.3382 44.1404C62.1855 44.1404 62.04 44.1699 61.9022 44.2289C61.764 44.2878 61.6433 44.3729 61.5402 44.4836C61.4367 44.5942 61.3541 44.7259 61.2925 44.8784C61.2309 45.031 61.2 45.2032 61.2 45.395C61.2 45.5869 61.2309 45.7591 61.2925 45.9117C61.3541 46.0642 61.4367 46.1958 61.5402 46.3065C61.6438 46.4172 61.7644 46.5022 61.9022 46.5612C62.04 46.6202 62.1855 46.6497 62.3382 46.6497C62.491 46.6497 62.6352 46.6202 62.7708 46.5612C62.9065 46.5022 63.0246 46.4185 63.1255 46.3104C63.2265 46.2023 63.3065 46.0706 63.3656 45.9155C63.4246 45.7604 63.4542 45.5869 63.4542 45.395C63.4542 45.2032 63.4246 45.0297 63.3656 44.8746Z" fill="white"/>
<path d="M66.3419 46.4471C66.5438 46.6167 66.7903 46.7018 67.0808 46.7018C67.3025 46.7018 67.4946 46.6625 67.6572 46.5838C67.8198 46.5052 67.9798 46.3894 68.1377 46.2369L68.6623 46.7018C68.4749 46.9231 68.252 47.1005 67.9935 47.2334C67.7351 47.3663 67.4257 47.4325 67.0659 47.4325C66.7852 47.4325 66.5224 47.3834 66.2785 47.2847C66.0347 47.1864 65.8229 47.0483 65.6427 46.8714C65.4626 46.6941 65.3214 46.4813 65.2178 46.233C65.1143 45.9847 65.0625 45.7078 65.0625 45.4027C65.0625 45.1224 65.1091 44.8592 65.2028 44.613C65.2965 44.3669 65.4283 44.1515 65.5982 43.9669C65.7681 43.7823 65.9688 43.6362 66.2007 43.5276C66.4322 43.4195 66.6885 43.3652 66.9692 43.3652C67.2794 43.3652 67.5519 43.4221 67.786 43.5349C68.02 43.6481 68.2147 43.8007 68.3701 43.9925C68.5254 44.1844 68.6422 44.4083 68.7214 44.6643C68.8001 44.9203 68.8394 45.1882 68.8394 45.469C68.8394 45.5083 68.8382 45.5476 68.8356 45.5869C68.833 45.6262 68.8292 45.6681 68.8245 45.7125H65.9568C66.0111 46.0326 66.1391 46.277 66.341 46.4471H66.3419ZM67.9533 45.122C67.9387 44.9792 67.9062 44.8451 67.857 44.7199C67.8078 44.5942 67.7411 44.4861 67.6576 44.3951C67.5738 44.3041 67.4741 44.2314 67.3581 44.1772C67.2421 44.1229 67.1104 44.096 66.9627 44.096C66.6868 44.096 66.4587 44.1908 66.279 44.3801C66.0988 44.5694 65.9893 44.8169 65.9499 45.122H67.9529H67.9533Z" fill="white"/>
<path d="M70.6398 47.3459H69.7383V43.4483H70.6398V44.3269C70.7631 44.0316 70.9381 43.7953 71.1644 43.6184C71.3912 43.441 71.677 43.3598 72.0219 43.3748V44.3196H71.9701C71.7729 44.3196 71.5932 44.3517 71.4306 44.4158C71.268 44.4799 71.1276 44.5756 71.0091 44.7038C70.891 44.832 70.7994 44.9931 70.7357 45.1871C70.6715 45.3815 70.6394 45.6067 70.6394 45.8627V47.3463L70.6398 47.3459Z" fill="white"/>
<path d="M73.7074 43.7936C73.7421 43.8675 73.805 43.9363 73.8965 44.0004C73.9877 44.0645 74.1139 44.1235 74.2744 44.1777C74.4348 44.232 74.6389 44.2884 74.8858 44.3474C75.1575 44.4162 75.3984 44.4927 75.6085 44.5764C75.8186 44.6602 75.9923 44.7623 76.131 44.8828C76.2692 45.0033 76.3744 45.1439 76.4459 45.3037C76.5173 45.4636 76.5533 45.652 76.5533 45.8682C76.5533 46.1144 76.5079 46.3332 76.4176 46.525C76.3274 46.7169 76.2016 46.8793 76.0402 47.0122C75.8789 47.1451 75.6851 47.2459 75.4592 47.3147C75.2328 47.3835 74.9842 47.4182 74.7134 47.4182C74.3142 47.4182 73.9325 47.3506 73.5675 47.2152C73.2029 47.0797 72.8653 46.872 72.5547 46.5913L73.1015 45.9417C73.3527 46.1584 73.6064 46.3246 73.8627 46.44C74.119 46.5558 74.4096 46.6135 74.7348 46.6135C75.0155 46.6135 75.2384 46.5545 75.4036 46.4362C75.5687 46.3182 75.6513 46.1584 75.6513 45.9563C75.6513 45.8627 75.635 45.7789 75.6029 45.7054C75.5709 45.6319 75.5114 45.564 75.4249 45.5025C75.3385 45.4409 75.22 45.3832 75.0694 45.329C74.9188 45.2747 74.7224 45.2183 74.4802 45.1593C74.2033 45.0952 73.9577 45.0239 73.7429 44.9452C73.5281 44.8666 73.3476 44.7679 73.2021 44.6499C73.0562 44.532 72.9449 44.3893 72.8683 44.2218C72.7917 44.0547 72.7537 43.8504 72.7537 43.609C72.7537 43.3829 72.7977 43.177 72.8854 42.9928C72.9736 42.8082 73.0943 42.6496 73.2483 42.5167C73.4023 42.3838 73.5872 42.2817 73.8037 42.2103C74.0202 42.139 74.2564 42.1035 74.5127 42.1035C74.8922 42.1035 75.2333 42.1591 75.5362 42.2697C75.8391 42.3804 76.1237 42.5415 76.3898 42.753L75.902 43.4398C75.6654 43.2675 75.4314 43.1359 75.1999 43.0449C74.9684 42.9539 74.7343 42.9082 74.4977 42.9082C74.2316 42.9082 74.0245 42.9684 73.8769 43.0889C73.7288 43.2094 73.6552 43.356 73.6552 43.5282C73.6552 43.6316 73.6723 43.7201 73.707 43.794L73.7074 43.7936Z" fill="white"/>
<path d="M78.5841 46.4471C78.786 46.6167 79.0325 46.7018 79.323 46.7018C79.5447 46.7018 79.7368 46.6625 79.8994 46.5838C80.062 46.5052 80.222 46.3894 80.3799 46.2369L80.9045 46.7018C80.7171 46.9231 80.4942 47.1005 80.2357 47.2334C79.9773 47.3663 79.6679 47.4325 79.308 47.4325C79.0274 47.4325 78.7646 47.3834 78.5207 47.2847C78.2768 47.1864 78.065 47.0483 77.8849 46.8714C77.7048 46.6941 77.5636 46.4813 77.46 46.233C77.3565 45.9847 77.3047 45.7078 77.3047 45.4027C77.3047 45.1224 77.3513 44.8592 77.445 44.613C77.5387 44.3669 77.6705 44.1515 77.8404 43.9669C78.0103 43.7823 78.2109 43.6362 78.4429 43.5276C78.6744 43.4195 78.9307 43.3652 79.2113 43.3652C79.5216 43.3652 79.7941 43.4221 80.0282 43.5349C80.2622 43.6481 80.4569 43.8007 80.6122 43.9925C80.7676 44.1844 80.8844 44.4083 80.9635 44.6643C81.0423 44.9203 81.0816 45.1882 81.0816 45.469C81.0816 45.5083 81.0804 45.5476 81.0778 45.5869C81.0752 45.6262 81.0714 45.6681 81.0667 45.7125H78.199C78.2533 46.0326 78.3812 46.277 78.5832 46.4471H78.5841ZM80.1955 45.122C80.1809 44.9792 80.1484 44.8451 80.0992 44.7199C80.05 44.5942 79.9833 44.4861 79.8998 44.3951C79.8159 44.3041 79.7163 44.2314 79.6003 44.1772C79.4843 44.1229 79.3525 44.096 79.2049 44.096C78.9289 44.096 78.7009 44.1908 78.5212 44.3801C78.341 44.5694 78.2315 44.8169 78.1921 45.122H80.1951H80.1955Z" fill="white"/>
<path d="M84.7374 47.2295C84.4909 47.365 84.1782 47.4325 83.7986 47.4325C83.5077 47.4325 83.2394 47.3795 82.9929 47.274C82.7465 47.168 82.5325 47.0231 82.3511 46.8385C82.1697 46.6539 82.028 46.4398 81.9262 46.1963C81.8244 45.9527 81.7734 45.6907 81.7734 45.41C81.7734 45.1292 81.8244 44.8664 81.9262 44.6203C82.028 44.3742 82.1697 44.1579 82.3511 43.9708C82.5325 43.7836 82.7477 43.6362 82.9963 43.5276C83.2454 43.4195 83.5149 43.3652 83.8059 43.3652C84.1756 43.3652 84.4824 43.4268 84.7263 43.5498C84.9702 43.6729 85.1833 43.8353 85.3655 44.037L84.811 44.6348C84.6728 44.4921 84.5265 44.3754 84.3711 44.284C84.2158 44.193 84.025 44.1472 83.7982 44.1472C83.6356 44.1472 83.4854 44.1806 83.3472 44.2468C83.209 44.313 83.0909 44.4032 82.9925 44.5164C82.8941 44.6297 82.8162 44.7613 82.7597 44.9113C82.7028 45.0613 82.6746 45.2228 82.6746 45.3946C82.6746 45.5664 82.7028 45.7369 82.7597 45.889C82.8162 46.0416 82.8966 46.1745 82.9998 46.2877C83.1033 46.4009 83.2265 46.4907 83.3695 46.5569C83.5124 46.6232 83.6698 46.6565 83.8427 46.6565C84.0545 46.6565 84.2406 46.6112 84.4007 46.5197C84.5607 46.4287 84.7122 46.3121 84.8551 46.1689L85.3946 46.7005C85.2025 46.9172 84.983 47.0928 84.737 47.2282L84.7374 47.2295Z" fill="white"/>
<path d="M27.7961 41.9551V47.1223H26.8945V41.9551H27.7961Z" fill="white"/>
<path d="M29.9836 47.1683H29.082V43.2706H29.9836V43.8821C30.0473 43.7877 30.1175 43.6997 30.1937 43.6176C30.2698 43.5356 30.3584 43.4625 30.459 43.398C30.5595 43.3335 30.6703 43.2826 30.7906 43.2454C30.9108 43.2083 31.0473 43.1895 31.1996 43.1895C31.6417 43.1895 31.9835 43.3249 32.224 43.5954C32.4645 43.8659 32.5851 44.2304 32.5851 44.6881V47.1683H31.6836V44.959C31.6836 44.6548 31.6117 44.4201 31.4675 44.2556C31.3233 44.0911 31.1192 44.0091 30.8556 44.0091C30.592 44.0091 30.3867 44.0937 30.2253 44.2633C30.064 44.433 29.9836 44.6697 29.9836 44.974V47.1687V47.1683Z" fill="white"/>
<path d="M35.7878 43.2133V43.9513H34.7677V47.081H33.8662V43.9513H33.3711V43.2056H33.8662V42.9253C33.8662 42.4924 33.9706 42.1711 34.1789 41.9621C34.3878 41.7531 34.6851 41.6484 35.0707 41.6484C35.2281 41.6484 35.3638 41.6583 35.4772 41.6779C35.5905 41.6976 35.6962 41.7224 35.7951 41.7518V42.5048C35.7065 42.4753 35.6213 42.4518 35.5401 42.4347C35.4588 42.4176 35.3689 42.4086 35.2701 42.4086C34.9252 42.4086 34.7527 42.6056 34.7527 42.9992V43.2133H35.7874H35.7878Z" fill="white"/>
<path d="M37.343 47.1623H36.4414V43.2647H37.343V44.1433C37.4662 43.848 37.6412 43.6117 37.8675 43.4348C38.0943 43.2574 38.3802 43.1762 38.725 43.1912V44.136H38.6733C38.476 44.136 38.2963 44.1681 38.1337 44.2322C37.9711 44.2963 37.8308 44.392 37.7122 44.5202C37.5941 44.6484 37.5026 44.8095 37.4388 45.0035C37.3746 45.1979 37.3425 45.4231 37.3425 45.6791V47.1628L37.343 47.1623Z" fill="white"/>
<path d="M41.6967 47.1465V46.6666C41.5636 46.8243 41.3938 46.9572 41.1867 47.0653C40.9796 47.1734 40.7284 47.2277 40.4327 47.2277C40.2453 47.2277 40.0682 47.202 39.9005 47.1503C39.7327 47.0986 39.5864 47.0226 39.4606 46.9217C39.3348 46.8209 39.2338 46.6952 39.1576 46.5452C39.0811 46.3952 39.043 46.2217 39.043 46.0248V46.0098C39.043 45.7983 39.0823 45.6137 39.1611 45.456C39.2398 45.2987 39.3493 45.168 39.4901 45.0646C39.6305 44.9611 39.7982 44.8838 39.9929 44.8321C40.1876 44.7804 40.3981 44.7547 40.6249 44.7547C40.8516 44.7547 41.0622 44.7697 41.2273 44.7992C41.3925 44.8287 41.5512 44.868 41.704 44.9171V44.821C41.704 44.5505 41.6214 44.3437 41.4562 44.2009C41.2911 44.0582 41.0536 43.9868 40.743 43.9868C40.5213 43.9868 40.3241 44.0091 40.1516 44.0531C39.9792 44.0975 39.8042 44.1565 39.627 44.2304L39.3831 43.5142C39.6001 43.4159 39.8217 43.3369 40.0485 43.2779C40.2753 43.2189 40.5487 43.1895 40.8688 43.1895C41.4503 43.1895 41.8816 43.3335 42.1623 43.6215C42.443 43.9095 42.5837 44.3142 42.5837 44.8359V47.1465H41.6967ZM41.719 45.4932C41.6056 45.4487 41.4712 45.412 41.3163 45.3825C41.161 45.353 40.9971 45.338 40.8247 45.338C40.544 45.338 40.3245 45.3923 40.167 45.5004C40.0091 45.6085 39.9304 45.7637 39.9304 45.9654V45.9803C39.9304 46.1675 40.0031 46.3102 40.1486 46.4085C40.2941 46.5068 40.4725 46.5563 40.6843 46.5563C40.832 46.5563 40.9689 46.5367 41.0947 46.4974C41.2205 46.4581 41.33 46.4025 41.4237 46.3311C41.5174 46.2598 41.5902 46.1739 41.642 46.0726C41.6937 45.9718 41.7194 45.8598 41.7194 45.7367V45.4932H41.719Z" fill="white"/>
<path d="M5.47377 47.159H4.51274L3.98815 45.9117H1.5415L1.00921 47.159H0.078125L2.35491 41.9551H3.19742L5.4742 47.159H5.47377ZM2.76097 43.0401L1.87396 45.107H3.65526L2.76097 43.0401Z" fill="white"/>
<path d="M10.1383 46.074C10.0373 46.3248 9.90164 46.538 9.73177 46.7124C9.5619 46.8872 9.36721 47.0188 9.1477 47.1072C8.9282 47.1957 8.70313 47.2401 8.47121 47.2401C8.15073 47.2401 7.88458 47.1713 7.67278 47.0333C7.46097 46.8957 7.28597 46.7355 7.14819 46.5534L7.15546 48.3396H6.25391V43.2609H7.15546V43.9104C7.29795 43.7036 7.47509 43.5301 7.68647 43.3899C7.89785 43.2498 8.161 43.1797 8.47549 43.1797C8.70655 43.1797 8.93034 43.2241 9.14642 43.3126C9.36293 43.401 9.55591 43.5331 9.72535 43.7074C9.89479 43.8822 10.0313 44.095 10.1348 44.3459C10.238 44.5967 10.2897 44.8847 10.2897 45.2095C10.2897 45.5342 10.2392 45.8223 10.1383 46.0731V46.074ZM9.29917 44.6899C9.24013 44.5347 9.16011 44.4031 9.05913 44.295C8.95815 44.1869 8.83962 44.1031 8.70441 44.0442C8.56877 43.9852 8.42457 43.9557 8.27182 43.9557C8.11906 43.9557 7.97358 43.9852 7.8358 44.0442C7.6976 44.1031 7.57693 44.1882 7.47381 44.2989C7.37026 44.4095 7.28768 44.5411 7.22606 44.6937C7.16445 44.8463 7.13364 45.0185 7.13364 45.2103C7.13364 45.4022 7.16445 45.5744 7.22606 45.727C7.28768 45.8795 7.37026 46.0111 7.47381 46.1218C7.57736 46.2325 7.69802 46.3175 7.8358 46.3765C7.97358 46.4355 8.11906 46.465 8.27182 46.465C8.42457 46.465 8.56877 46.4355 8.70441 46.3765C8.84005 46.3175 8.95815 46.2338 9.05913 46.1257C9.16011 46.0175 9.24013 45.8859 9.29917 45.7308C9.35822 45.5757 9.38775 45.4022 9.38775 45.2103C9.38775 45.0185 9.35822 44.845 9.29917 44.6899Z" fill="white"/>
<path d="M15.0953 46.074C14.9943 46.3248 14.8587 46.538 14.6888 46.7124C14.5189 46.8872 14.3242 47.0188 14.1047 47.1072C13.8852 47.1957 13.6602 47.2401 13.4282 47.2401C13.1078 47.2401 12.8416 47.1713 12.6298 47.0333C12.418 46.8957 12.243 46.7355 12.1052 46.5534L12.1125 48.3396H11.2109V43.2609H12.1125V43.9104C12.255 43.7036 12.4321 43.5301 12.6435 43.3899C12.8549 43.2498 13.118 43.1797 13.4325 43.1797C13.6636 43.1797 13.8874 43.2241 14.1035 43.3126C14.32 43.401 14.5129 43.5331 14.6824 43.7074C14.8518 43.8822 14.9883 44.095 15.0919 44.3459C15.195 44.5967 15.2468 44.8847 15.2468 45.2095C15.2468 45.5342 15.1963 45.8223 15.0953 46.0731V46.074ZM14.2562 44.6899C14.1972 44.5347 14.1171 44.4031 14.0162 44.295C13.9152 44.1869 13.7967 44.1031 13.6614 44.0442C13.5258 43.9852 13.3816 43.9557 13.2289 43.9557C13.0761 43.9557 12.9306 43.9852 12.7928 44.0442C12.6546 44.1031 12.534 44.1882 12.4308 44.2989C12.3273 44.4095 12.2447 44.5411 12.1831 44.6937C12.1215 44.8463 12.0907 45.0185 12.0907 45.2103C12.0907 45.4022 12.1215 45.5744 12.1831 45.727C12.2447 45.8795 12.3273 46.0111 12.4308 46.1218C12.5344 46.2325 12.6551 46.3175 12.7928 46.3765C12.9306 46.4355 13.0761 46.465 13.2289 46.465C13.3816 46.465 13.5258 46.4355 13.6614 46.3765C13.7971 46.3175 13.9152 46.2338 14.0162 46.1257C14.1171 46.0175 14.1972 45.8859 14.2562 45.7308C14.3153 45.5757 14.3448 45.4022 14.3448 45.2103C14.3448 45.0185 14.3153 44.845 14.2562 44.6899Z" fill="white"/>
<path d="M18.8411 46.5488C18.7671 46.7013 18.6649 46.8282 18.5344 46.9291C18.4039 47.0299 18.2498 47.1064 18.0722 47.1581C17.8947 47.2098 17.7051 47.2355 17.5031 47.2355C17.2225 47.2355 16.9379 47.1863 16.6495 47.0876C16.3611 46.9893 16.0937 46.8441 15.8477 46.6522L16.2469 46.0467C16.4587 46.2043 16.6743 46.3236 16.8934 46.4048C17.1125 46.486 17.3234 46.5266 17.5254 46.5266C17.7274 46.5266 17.8664 46.4885 17.9725 46.412C18.0787 46.336 18.1313 46.2338 18.1313 46.1056V46.0907C18.1313 46.0168 18.1078 45.9531 18.0611 45.8988C18.014 45.8445 17.9503 45.7967 17.869 45.7548C17.7877 45.7129 17.694 45.6762 17.5883 45.6441C17.4822 45.6121 17.3726 45.5792 17.2593 45.5446C17.1163 45.5001 16.9721 45.451 16.8267 45.3971C16.6812 45.3429 16.5507 45.2728 16.4347 45.1869C16.3188 45.101 16.2242 44.995 16.1502 44.8694C16.0761 44.7438 16.0393 44.5878 16.0393 44.4006V44.3857C16.0393 44.2036 16.0749 44.0387 16.1463 43.8912C16.2178 43.7434 16.3162 43.6182 16.442 43.5148C16.5678 43.4114 16.7154 43.3327 16.8853 43.2785C17.0552 43.2242 17.2366 43.1973 17.4287 43.1973C17.6752 43.1973 17.9238 43.2366 18.1754 43.3152C18.4265 43.3938 18.6559 43.5024 18.8625 43.64L18.5078 44.275C18.3204 44.1617 18.1309 44.072 17.9387 44.0058C17.7466 43.9395 17.569 43.9062 17.4064 43.9062C17.234 43.9062 17.0997 43.9429 17.0038 44.0169C16.908 44.0908 16.8596 44.1844 16.8596 44.2972V44.3122C16.8596 44.381 16.8844 44.4412 16.9336 44.4929C16.9828 44.5446 17.0483 44.5912 17.1296 44.6331C17.2109 44.675 17.3046 44.7143 17.4103 44.751C17.5164 44.7878 17.626 44.8237 17.7393 44.8578C17.8823 44.9023 18.0252 44.954 18.1681 45.013C18.311 45.0719 18.4402 45.1446 18.5562 45.2309C18.6717 45.3172 18.7667 45.4215 18.8407 45.5446C18.9147 45.6676 18.9515 45.8176 18.9515 45.995V46.0095C18.9515 46.2163 18.9147 46.3958 18.8407 46.5483L18.8411 46.5488Z" fill="white"/>
<path d="M0.719473 51.5391V54.5414H0.195312V51.5391H0.719046H0.719473Z" fill="white"/>
<path d="M3.61965 51.5391H4.14339V54.5414H3.70181L2.0476 52.4057V54.5414H1.52344V51.5391H2.01208L3.61923 53.615V51.5391H3.61965Z" fill="white"/>
<path d="M6.19308 54.541H5.66036V52.0279H4.70703V51.5391H7.14641V52.0279H6.19308V54.541Z" fill="white"/>
<path d="M9.93118 52.0151H8.23076V52.7873H9.73821V53.2633H8.23076V54.0654H9.95301V54.5414H7.70703V51.5391H9.93161V52.0151H9.93118Z" fill="white"/>
<path d="M12.5105 54.5414L11.7694 53.4949H11.1062V54.5414H10.582V51.5391H11.9217C12.0933 51.5391 12.2486 51.5613 12.3877 51.6057C12.5263 51.6502 12.644 51.713 12.7399 51.7946C12.8357 51.8762 12.9093 51.9762 12.9611 52.095C13.0124 52.2138 13.0385 52.3459 13.0385 52.4916C13.0385 52.6172 13.0206 52.7296 12.985 52.8283C12.9491 52.927 12.8999 53.0142 12.837 53.0898C12.7741 53.1655 12.6988 53.23 12.6115 53.283C12.5242 53.336 12.4275 53.3766 12.3218 53.4052L13.1335 54.5419H12.5109L12.5105 54.5414ZM12.3381 52.1424C12.229 52.0578 12.0754 52.0155 11.8772 52.0155H11.1062V53.0279H11.8815C12.0711 53.0279 12.2217 52.9821 12.3338 52.8903C12.4459 52.7984 12.502 52.6749 12.502 52.5198C12.502 52.3531 12.4472 52.2275 12.3381 52.1429V52.1424Z" fill="white"/>
<path d="M15.7759 51.5391H16.2996V54.5414H15.8581L14.2038 52.4057V54.5414H13.6797V51.5391H14.1683L15.7755 53.615V51.5391H15.7759Z" fill="white"/>
<path d="M19.9598 54.5374H19.4014L19.0963 53.8127H17.6749L17.3655 54.5374H16.8242L18.1468 51.5137H18.6363L19.9589 54.5374H19.9598ZM18.3839 52.1444L17.8687 53.3452H18.9037L18.3843 52.1444H18.3839Z" fill="white"/>
<path d="M21.3532 54.541H20.8205V52.0279H19.8672V51.5391H22.3066V52.0279H21.3532V54.541Z" fill="white"/>
<path d="M23.4183 51.5391V54.5414H22.8945V51.5391H23.4183Z" fill="white"/>
<path d="M27.1171 53.6349C27.0397 53.8238 26.931 53.9887 26.7907 54.1302C26.6503 54.2716 26.4843 54.384 26.2926 54.4669C26.1009 54.5498 25.8891 54.5913 25.6572 54.5913C25.4253 54.5913 25.2135 54.5507 25.0218 54.4691C24.8301 54.3874 24.6654 54.2768 24.528 54.1366C24.3906 53.9964 24.2832 53.8319 24.2058 53.6435C24.1284 53.455 24.0898 53.2546 24.0898 53.0431C24.0898 52.8315 24.1284 52.6311 24.2058 52.4427C24.2832 52.2542 24.3919 52.0889 24.5323 51.9474C24.6726 51.806 24.8386 51.6936 25.0303 51.6107C25.222 51.5278 25.4338 51.4863 25.6658 51.4863C25.8977 51.4863 26.1095 51.5269 26.3012 51.6085C26.4929 51.6902 26.6576 51.8008 26.7949 51.941C26.9323 52.0812 27.0397 52.2457 27.1171 52.4341C27.1946 52.623 27.2331 52.823 27.2331 53.0345C27.2331 53.2461 27.1946 53.446 27.1171 53.6349ZM26.6041 52.629C26.554 52.4991 26.4839 52.3854 26.3936 52.288C26.3033 52.191 26.1955 52.1136 26.0692 52.0564C25.943 51.9991 25.8057 51.9705 25.6568 51.9705C25.5079 51.9705 25.3714 51.9983 25.2468 52.0542C25.1223 52.1102 25.0158 52.1859 24.9268 52.2816C24.8382 52.3773 24.7685 52.4901 24.7184 52.6204C24.6683 52.7508 24.6431 52.8884 24.6431 53.0345C24.6431 53.1807 24.6679 53.3183 24.7184 53.4486C24.7685 53.5785 24.8386 53.6926 24.9289 53.7896C25.0192 53.887 25.127 53.964 25.2533 54.0212C25.3791 54.0785 25.5168 54.1071 25.6658 54.1071C25.8147 54.1071 25.9511 54.0793 26.0757 54.0234C26.2002 53.9674 26.3067 53.8917 26.3957 53.796C26.4843 53.7003 26.554 53.5875 26.6041 53.4572C26.6542 53.3272 26.6794 53.1892 26.6794 53.0435C26.6794 52.8978 26.6542 52.7598 26.6041 52.6294V52.629Z" fill="white"/>
<path d="M29.9712 51.5391H30.4949V54.5414H30.0534L28.3992 52.4057V54.5414H27.875V51.5391H28.3636L29.9708 53.615V51.5391H29.9712Z" fill="white"/>
<path d="M34.1512 54.5374H33.5928L33.2877 53.8127H31.8663L31.5569 54.5374H31.0156L32.3382 51.5137H32.8277L34.1503 54.5374H34.1512ZM32.5753 52.1444L32.0601 53.3452H33.0952L32.5757 52.1444H32.5753Z" fill="white"/>
<path d="M34.668 51.5391H35.1921V54.0654H36.7723V54.5414H34.668V51.5391Z" fill="white"/>
<path d="M39.1644 51.5391V54.5414H38.6406V51.5391H39.1644Z" fill="white"/>
<path d="M41.24 54.541H40.7072V52.0279H39.7539V51.5391H42.1933V52.0279H41.24V54.541Z" fill="white"/>
<path d="M46.6458 53.63C46.5684 53.8146 46.4588 53.974 46.3172 54.1081C46.1756 54.2427 46.0065 54.3483 45.8106 54.4256C45.6146 54.503 45.3989 54.5414 45.164 54.5414H44.043V51.5391H45.164C45.3989 51.5391 45.6142 51.5771 45.8106 51.6527C46.0065 51.7284 46.1756 51.8335 46.3172 51.9681C46.4588 52.1027 46.5684 52.2612 46.6458 52.4441C46.7232 52.627 46.7618 52.8245 46.7618 53.036C46.7618 53.2475 46.7232 53.4454 46.6458 53.63ZM46.1323 52.6334C46.0823 52.5087 46.0117 52.4001 45.9214 52.3082C45.8311 52.2164 45.7211 52.1446 45.5919 52.0929C45.4627 52.0412 45.3189 52.0155 45.1615 52.0155H44.5671V54.0654H45.1615C45.3194 54.0654 45.4627 54.0402 45.5919 53.9902C45.7211 53.9398 45.8307 53.8697 45.9214 53.7791C46.0117 53.6885 46.0823 53.5808 46.1323 53.456C46.1824 53.3313 46.2076 53.1941 46.2076 53.045C46.2076 52.8958 46.1824 52.7586 46.1323 52.6339V52.6334Z" fill="white"/>
<path d="M49.623 52.0151H47.9222V52.7873H49.4296V53.2633H47.9222V54.0654H49.6444V54.5414H47.3984V51.5391H49.623V52.0151Z" fill="white"/>
<path d="M50.2778 51.5391H50.8015V54.0654H52.3817V54.5414H50.2773V51.5391H50.2778Z" fill="white"/>
<path d="M53.4929 51.5391V54.5414H52.9688V51.5391H53.4929Z" fill="white"/>
<path d="M56.4314 51.5391H57.0026L55.7527 54.5628H55.2889L54.0391 51.5391H54.6231L55.5294 53.8466L56.4314 51.5391Z" fill="white"/>
<path d="M59.7402 52.0151H58.0394V52.7873H59.5468V53.2633H58.0394V54.0654H59.7616V54.5414H57.5156V51.5391H59.7402V52.0151Z" fill="white"/>
<path d="M62.3226 54.5414L61.5815 53.4949H60.9183V54.5414H60.3945V51.5391H61.7342C61.9058 51.5391 62.0612 51.5613 62.2002 51.6057C62.3389 51.6502 62.4565 51.713 62.5524 51.7946C62.6482 51.8762 62.7218 51.9762 62.7736 52.095C62.8249 52.2138 62.851 52.3459 62.851 52.4916C62.851 52.6172 62.8331 52.7296 62.7975 52.8283C62.7616 52.927 62.7124 53.0142 62.6495 53.0898C62.5866 53.1655 62.5113 53.23 62.424 53.283C62.3367 53.336 62.24 53.3766 62.1343 53.4052L62.946 54.5419H62.3234L62.3226 54.5414ZM62.1502 52.1424C62.041 52.0578 61.8874 52.0155 61.6893 52.0155H60.9183V53.0279H61.6936C61.8832 53.0279 62.0338 52.9821 62.1459 52.8903C62.258 52.7984 62.314 52.6749 62.314 52.5198C62.314 52.3531 62.2593 52.2275 62.1502 52.1429V52.1424Z" fill="white"/>
<path d="M64.8086 54.541H64.2758V53.3573L63.082 51.5391H63.7046L64.5463 52.8685L65.3965 51.5391H66.0019L64.8081 53.3445V54.541H64.8086Z" fill="white"/>
<path d="M70.1268 54.2806C70.0425 54.3451 69.9514 54.4007 69.8542 54.4477C69.7567 54.4947 69.6501 54.5306 69.5342 54.5549C69.4182 54.5793 69.2899 54.5913 69.1499 54.5913C68.9296 54.5913 68.7263 54.5511 68.5402 54.4712C68.3541 54.3913 68.1932 54.2819 68.0571 54.143C67.921 54.0046 67.8145 53.8405 67.7371 53.652C67.6596 53.4636 67.6211 53.2602 67.6211 53.0431C67.6211 52.826 67.6592 52.6269 67.7349 52.4384C67.8106 52.2495 67.9176 52.0846 68.055 51.9431C68.1923 51.8017 68.3558 51.6902 68.5445 51.6085C68.7336 51.5269 68.9424 51.4863 69.1713 51.4863C69.3087 51.4863 69.434 51.4979 69.547 51.5205C69.66 51.5436 69.764 51.5756 69.8585 51.6171C69.9531 51.6585 70.0404 51.7077 70.1204 51.7649C70.2004 51.8222 70.2766 51.885 70.348 51.9538L70.0087 52.344C69.8885 52.2324 69.761 52.1423 69.6266 52.0739C69.4918 52.0051 69.3391 51.9709 69.167 51.9709C69.0237 51.9709 68.8915 51.9987 68.77 52.0547C68.6484 52.1102 68.5432 52.1863 68.4542 52.282C68.3652 52.3777 68.2967 52.4901 68.2479 52.6187C68.1992 52.7474 68.1748 52.8862 68.1748 53.035C68.1748 53.1837 68.1992 53.323 68.2479 53.4533C68.2967 53.5832 68.3652 53.6973 68.4542 53.7943C68.5428 53.8917 68.648 53.9682 68.77 54.0238C68.8915 54.0793 69.0241 54.1075 69.167 54.1075C69.3502 54.1075 69.5076 54.0725 69.6394 54.0024C69.7712 53.9323 69.9013 53.8375 70.0301 53.7174L70.3694 54.0605C70.292 54.1434 70.2111 54.2169 70.1268 54.2815V54.2806Z" fill="white"/>
<path d="M73.1465 52.0151H71.4456V52.7873H72.9531V53.2633H71.4456V54.0654H73.1679V54.5414H70.9219V51.5391H73.1465V52.0151Z" fill="white"/>
<path d="M75.9005 51.5391H76.4242V54.5414H75.9826L74.3284 52.4057V54.5414H73.8047V51.5391H74.2933L75.9005 53.615V51.5391Z" fill="white"/>
<path d="M78.4626 54.541H77.9299V52.0279H76.9766V51.5391H79.4159V52.0279H78.4626V54.541Z" fill="white"/>
<path d="M81.9046 54.5414L81.1635 53.4949H80.5003V54.5414H79.9766V51.5391H81.3163C81.4879 51.5391 81.6432 51.5613 81.7822 51.6057C81.9209 51.6502 82.0385 51.713 82.1344 51.7946C82.2302 51.8762 82.3038 51.9762 82.3556 52.095C82.407 52.2138 82.4331 52.3459 82.4331 52.4916C82.4331 52.6172 82.4151 52.7296 82.3796 52.8283C82.3436 52.927 82.2944 53.0142 82.2315 53.0898C82.1686 53.1655 82.0933 53.23 82.006 53.283C81.9187 53.336 81.822 53.3766 81.7164 53.4052L82.528 54.5419H81.9055L81.9046 54.5414ZM81.7322 52.1424C81.6231 52.0578 81.4695 52.0155 81.2713 52.0155H80.5003V53.0279H81.2756C81.4652 53.0279 81.6158 52.9821 81.7279 52.8903C81.84 52.7984 81.8961 52.6749 81.8961 52.5198C81.8961 52.3531 81.8413 52.2275 81.7322 52.1429V52.1424Z" fill="white"/>
<path d="M85.3105 52.0151H83.6097V52.7873H85.1171V53.2633H83.6097V54.0654H85.3319V54.5414H83.0859V51.5391H85.3105V52.0151Z" fill="white"/>
<line x1="111.174" y1="3.4056e-08" x2="111.174" y2="62.3289" stroke="white" stroke-opacity="0.5" stroke-width="1.55822"/>
<g clip-path="url(#clip0_2122_52637)">
<path d="M139.744 47.4771C138.253 47.025 137.6 46.7382 137.6 45.8852C137.6 45.1219 138.616 44.851 139.487 44.851C140.249 44.851 141.067 45.0774 141.623 45.4415C141.755 45.527 141.917 45.553 142.068 45.5111C142.219 45.4708 142.346 45.366 142.417 45.2259L142.67 44.7193C142.794 44.4693 142.713 44.1657 142.479 44.0122C141.678 43.4888 140.541 43.1642 139.513 43.1642C137.353 43.1642 135.9 44.2739 135.9 45.9254C135.9 48.071 137.712 48.6137 139.167 49.0507C140.69 49.507 141.356 49.8005 141.347 50.7072C141.347 51.6173 140.276 51.9411 139.274 51.9411C138.314 51.9411 137.269 51.4302 136.634 50.8439C136.507 50.7274 136.344 50.6603 136.174 50.6796C136.004 50.6988 135.852 50.797 135.764 50.9446L135.472 51.4378C135.342 51.655 135.378 51.9327 135.559 52.1105C136.5 53.0382 137.919 53.6152 139.261 53.6152C141.525 53.6152 143.046 52.4401 143.046 50.698C143.064 48.4845 141.223 47.9259 139.744 47.4771Z" fill="white"/>
<path d="M149.719 43.514C149.629 43.3186 149.434 43.1927 149.218 43.1927H148.62C148.403 43.1927 148.208 43.3186 148.119 43.5157L143.897 52.8251C143.82 52.9962 143.834 53.1934 143.935 53.351C144.037 53.5096 144.211 53.6035 144.398 53.6035H145.01C145.226 53.6035 145.422 53.4769 145.511 53.2798L146.564 50.953H151.302L152.368 53.2823C152.457 53.4777 152.653 53.6035 152.867 53.6035H153.481C153.668 53.6035 153.842 53.5079 153.943 53.3502C154.045 53.1934 154.058 52.9954 153.98 52.8235L149.719 43.514ZM147.301 49.2923L148.915 45.7149L150.547 49.2923H147.301Z" fill="white"/>
<path d="M156.745 43.1936H156.187C155.883 43.1936 155.637 43.4402 155.637 43.7438V53.0533C155.637 53.3578 155.883 53.6035 156.187 53.6035H156.745C157.049 53.6035 157.296 53.3578 157.296 53.0533V43.7438C157.296 43.4402 157.049 43.1936 156.745 43.1936Z" fill="white"/>
<path d="M168.355 43.1936H167.809C167.504 43.1936 167.258 43.4402 167.258 43.7438V50.5244L162.033 43.4175C161.929 43.2758 161.765 43.1936 161.589 43.1936H160.937C160.632 43.1936 160.387 43.4402 160.387 43.7438V53.0533C160.387 53.3578 160.632 53.6035 160.937 53.6035H161.495C161.8 53.6035 162.046 53.3578 162.046 53.0533V46.2761L167.258 53.3804C167.361 53.5205 167.526 53.6035 167.703 53.6035H168.355C168.659 53.6035 168.905 53.3578 168.905 53.0533V43.7438C168.905 43.4402 168.659 43.1936 168.355 43.1936Z" fill="white"/>
<path d="M177.958 43.1936H171.112C170.808 43.1936 170.562 43.4402 170.562 43.7438V44.2907C170.562 44.5935 170.808 44.8401 171.112 44.8401H173.706V53.0533C173.706 53.3578 173.952 53.6035 174.256 53.6035H174.814C175.119 53.6035 175.366 53.3578 175.366 53.0533V44.8401H177.958C178.262 44.8401 178.508 44.5935 178.508 44.2907V43.7438C178.508 43.4402 178.262 43.1936 177.958 43.1936Z" fill="white"/>
<path d="M182.056 48.2689H179.085C178.782 48.2689 178.535 48.5146 178.535 48.8191V49.272C178.535 49.5765 178.782 49.8223 179.085 49.8223H182.056C182.36 49.8223 182.605 49.5765 182.605 49.272V48.8191C182.605 48.5146 182.36 48.2689 182.056 48.2689Z" fill="white"/>
<path d="M193.622 47.9334H193.115C193.113 47.9334 193.11 47.9343 193.106 47.9343H191.454C191.15 47.9343 190.903 48.1809 190.903 48.4845V49.044C190.903 49.3476 191.15 49.5942 191.454 49.5942H192.566V51.296C191.918 51.7406 191.139 51.9822 190.346 51.9822C188.292 51.9822 186.622 50.3717 186.622 48.3914C186.622 46.4178 188.292 44.8124 190.346 44.8124C191.3 44.8124 192.238 45.1638 192.922 45.777C193.034 45.8776 193.183 45.9288 193.334 45.9162C193.484 45.9045 193.623 45.8306 193.718 45.7132L194.051 45.3005C194.235 45.0699 194.207 44.7344 193.984 44.5398C192.985 43.6633 191.691 43.1785 190.346 43.1785C187.377 43.1785 184.961 45.5161 184.961 48.3914C184.961 51.2726 187.365 53.6152 190.319 53.6152C191.655 53.6152 192.989 53.1254 193.982 52.2707C194.103 52.1667 194.173 52.014 194.173 51.853V48.4837C194.173 48.1809 193.926 47.9334 193.622 47.9334Z" fill="white"/>
<path d="M201.426 43.1785C198.464 43.1785 196.055 45.5161 196.055 48.3906C196.055 51.2726 198.464 53.6152 201.426 53.6152C204.387 53.6152 206.797 51.2726 206.797 48.3906C206.797 45.5161 204.387 43.1785 201.426 43.1785ZM201.426 51.9687C199.386 51.9687 197.727 50.3633 197.727 48.3906C197.727 46.4245 199.386 44.8258 201.426 44.8258C203.464 44.8258 205.123 46.4245 205.123 48.3906C205.123 50.3633 203.464 51.9687 201.426 51.9687Z" fill="white"/>
<path d="M215.613 48.1037C216.173 47.6214 216.484 46.911 216.484 46.0471C216.484 44.2865 215.161 43.1927 213.031 43.1927H209.221C208.918 43.1927 208.672 43.4393 208.672 43.743V53.0533C208.672 53.3569 208.918 53.6035 209.221 53.6035H213.057C215.495 53.6035 216.95 52.462 216.95 50.5504C216.95 49.4684 216.461 48.6078 215.613 48.1037ZM213.017 47.4151H210.331V44.8401H213.017C213.841 44.8401 214.824 45.0607 214.824 46.1142C214.824 46.9773 214.216 47.4151 213.017 47.4151ZM210.331 49.0616H213.017C213.866 49.0616 215.29 49.2461 215.29 50.4825C215.29 51.7012 214.055 51.957 213.017 51.957H210.331V49.0616Z" fill="white"/>
<path d="M223.708 43.514C223.618 43.3186 223.423 43.1927 223.207 43.1927H222.609C222.391 43.1927 222.196 43.3186 222.106 43.5157L217.885 52.8251C217.808 52.9962 217.822 53.1934 217.924 53.351C218.026 53.5096 218.2 53.6035 218.387 53.6035H219C219.216 53.6035 219.412 53.4769 219.501 53.2798L220.554 50.953H225.291L226.356 53.2823C226.445 53.4777 226.642 53.6035 226.856 53.6035H227.469C227.656 53.6035 227.831 53.5079 227.932 53.3502C228.033 53.1934 228.047 52.9954 227.969 52.8235L223.708 43.514ZM221.29 49.2923L222.904 45.7149L224.536 49.2923H221.29Z" fill="white"/>
<path d="M230.728 43.1936H230.168C229.865 43.1936 229.617 43.4402 229.617 43.7438V53.0533C229.617 53.3578 229.865 53.6035 230.168 53.6035H230.728C231.031 53.6035 231.279 53.3578 231.279 53.0533V43.7438C231.279 43.4402 231.031 43.1936 230.728 43.1936Z" fill="white"/>
<path d="M242.336 43.1936H241.79C241.486 43.1936 241.24 43.4402 241.24 43.7438V50.5244L236.014 43.4175C235.911 43.2758 235.746 43.1936 235.571 43.1936H234.918C234.614 43.1936 234.367 43.4402 234.367 43.7438V53.0533C234.367 53.3578 234.614 53.6035 234.918 53.6035H235.478C235.781 53.6035 236.027 53.3578 236.027 53.0533V46.2761L241.24 53.3804C241.343 53.5205 241.508 53.6035 241.683 53.6035H242.336C242.64 53.6035 242.886 53.3578 242.886 53.0533V43.7438C242.886 43.4402 242.64 43.1936 242.336 43.1936Z" fill="white"/>
<path d="M195.819 28.5845V37.7371H194.134V27.3255L195.819 28.5845ZM228.484 37.7069H221.855L221.808 37.6608L215.979 31.8942C215.741 31.6594 215.376 31.5872 215.066 31.7164C214.753 31.8473 214.55 32.1509 214.55 32.4906V37.7371H212.818V24.7538C212.818 24.524 212.721 24.3017 212.554 24.144L207.711 19.5694C207.555 19.4218 207.35 19.3404 207.135 19.3404H204.714C204.251 19.3404 203.874 19.717 203.874 20.1792V37.7371H202.156V9.54948C202.156 9.20726 201.951 8.9028 201.635 8.77363C201.324 8.64613 200.952 8.72329 200.719 8.96066L192.698 17.1009C192.542 17.2586 192.456 17.4683 192.456 17.6897V23.978L189.172 21.5254C188.873 21.3031 188.435 21.3107 188.145 21.543L180.678 27.5301C180.478 27.6903 180.364 27.9294 180.364 28.1852V37.7371H178.672V32.4721C178.672 30.6235 177.398 28.6583 175.041 28.6583C172.682 28.6583 171.41 30.6327 171.41 32.4906V37.7371L169.698 37.7362V34.1648C169.698 32.7171 168.702 31.1796 166.855 31.1796C165.009 31.1796 164.012 32.7187 164.012 34.1681V37.7379L162.307 37.7388L162.306 37.5802C162.304 36.8606 162.301 35.9388 162.301 35.5689C162.301 34.3392 161.14 33.2614 159.817 33.2614C158.494 33.2614 157.333 34.3342 157.333 35.558V37.7371L149.855 37.7362C149.392 37.7362 149.016 38.1128 149.016 38.575C149.016 38.7998 149.103 39.0103 149.261 39.1689C149.42 39.3274 149.63 39.4146 149.854 39.4146L158.172 39.4155C158.395 39.4155 158.607 39.3282 158.764 39.1697C158.923 39.0112 159.011 38.8006 159.011 38.5767V35.7098C159.011 35.3994 159.349 34.939 159.817 34.939C160.278 34.939 160.624 35.36 160.624 35.7366C160.624 35.9522 160.632 38.5817 160.632 38.5817C160.635 39.043 161.011 39.418 161.471 39.418L164.852 39.4155C165.314 39.4155 165.69 39.0388 165.69 38.5767V34.1681C165.69 33.7144 165.934 32.8571 166.855 32.8571C167.777 32.8571 168.021 33.7118 168.021 34.1648V38.5742C168.021 39.0372 168.397 39.4138 168.859 39.4138L172.248 39.4155C172.469 39.4155 172.686 39.3257 172.842 39.1697C172.998 39.0137 173.088 38.7973 173.088 38.5767V32.4906C173.088 31.7458 173.496 30.3358 175.041 30.3358C176.473 30.3358 176.993 31.6132 176.993 32.4721V38.5767C176.993 39.0388 177.37 39.4155 177.832 39.4155H181.203C181.666 39.4155 182.041 39.0388 182.041 38.5767V28.5878L182.102 28.5392L188.688 23.2583L192.456 26.0723V38.5767C192.456 39.0388 192.833 39.4155 193.295 39.4155H196.659C197.121 39.4155 197.497 39.0388 197.497 38.5767V28.1634C197.497 27.9009 197.371 27.6492 197.16 27.4915L194.134 25.2311V18.0336L194.18 17.9866L200.477 11.5961V38.5767C200.477 39.0388 200.854 39.4155 201.316 39.4155H204.714C205.176 39.4155 205.552 39.0388 205.552 38.5767V21.0179H206.801L206.847 21.0616L211.14 25.1153V38.5767C211.14 39.0388 211.516 39.4155 211.978 39.4155H215.388C215.851 39.4155 216.228 39.0388 216.228 38.5767V34.5003L220.92 39.142C221.079 39.298 221.288 39.3844 221.51 39.3844H228.484C228.946 39.3844 229.323 39.0078 229.323 38.5457C229.323 38.0827 228.946 37.7069 228.484 37.7069Z" fill="white"/>
</g>
<defs>
<clipPath id="clip0_2122_52637">
<rect width="107.495" height="48.1806" fill="white" transform="translate(135.395 7.07422)"/>
</clipPath>
</defs>
</svg>
